<svg width="64" height="64" viewBox="0 0 64 64" fill="none" xmlns="http://www.w3.org/2000/svg">
<rect width="64" height="64" rx="4" fill="#2E4C63"/>
<path d="M20.6677 50.5449H15.6172V55.6964H20.6677V50.5449Z" fill="#F2F2F2"/>
<path d="M48.9504 36.6359C48.9504 42.0267 47.0246 46.6226 43.151 50.4407C39.6242 53.9117 34.7801 55.6965 28.3918 55.6965H24.708V17.5753H28.3918C28.8258 17.5839 29.9393 17.5561 30.3646 17.5754C31.4507 18.7281 32.2164 20.0179 32.7813 21.3656C32.9885 21.8498 33.1565 22.3533 33.2939 22.8675C32.356 22.6919 30.7648 22.6147 29.7266 22.6147V50.7C33.7179 50.7 37.007 49.4294 39.5588 46.9097C42.4422 44.0793 43.886 40.6576 43.886 36.6338C43.886 33.2785 42.8675 30.3217 40.8325 27.7827C40.8522 27.2264 40.8522 26.8571 40.8522 26.3943C40.8522 25.2308 40.7628 24.0953 40.5752 22.9897C40.525 22.6019 40.4465 22.2248 40.368 21.8455C40.2786 21.3999 40.1608 20.9628 40.0321 20.5278C40.3365 20.6293 40.5964 20.7797 40.8572 20.9583C41.6779 21.5203 42.4468 22.1453 43.151 22.8461C47.0246 26.675 48.9504 31.2708 48.9504 36.6316V36.6359Z" fill="#F2F2F2"/>
<path d="M39.7342 28.9804C39.1924 33.2253 37.3138 36.9477 34.1001 40.1289C33.2921 40.9227 31.7176 42.6947 30.7687 43.3112V36.6361C31.9164 35.2861 33.4782 32.7387 34.0367 31.1441C34.1942 30.6943 34.297 30.2388 34.4077 29.7746C34.668 28.6821 34.7958 27.5371 34.7958 26.3396C34.7958 22.3272 33.3493 18.9009 30.4673 16.0717C27.9531 13.5864 24.743 12.3124 20.8329 12.2734H20.6722V40.3625C21.6387 40.3625 22.8107 40.2868 23.698 40.1289V45.0908C22.3924 45.2877 20.7823 45.3937 19.3358 45.3937H15.6172V7.27251C22.3697 7.27251 28.673 7.20329 34.0979 12.5373C35.6843 14.1039 36.9468 15.8131 37.8852 17.6476C38.0253 17.9215 38.1324 18.1898 38.2573 18.47C38.9072 19.9277 39.3544 21.46 39.6108 23.0669C39.7803 24.1246 39.8596 25.2105 39.8596 26.3374C39.8596 27.2365 39.8466 28.0997 39.7342 28.9804Z" fill="#F2F2F2"/>
</svg>
