<svg width="128" height="97" viewBox="0 0 128 97" fill="none" xmlns="http://www.w3.org/2000/svg">
<g clip-path="url(#clip0_4024_6041)">
<path d="M13.72 97.96C7.56 97.96 2.32 96.88 -2 94.72C-6.32 92.48 -9.8 89.36 -12.44 85.36C-15.08 81.36 -17.04 76.76 -18.32 71.56C-19.52 66.36 -20.12 60.76 -20.12 54.76C-20.12 48.68 -19.52 43 -18.32 37.72C-17.04 32.44 -15.08 27.84 -12.44 23.92C-9.72 19.92 -6.2 16.8 -1.88 14.56C2.44 12.24 7.68 11.08 13.84 11.08C20.16 11.08 25.48 12.28 29.8 14.68C34.2 17.08 37.68 20.32 40.24 24.4C42.88 28.48 44.76 33.12 45.88 38.32C47.08 43.52 47.68 48.96 47.68 54.64C47.68 60.24 47.08 65.64 45.88 70.84C44.76 76.04 42.88 80.68 40.24 84.76C37.6 88.84 34.08 92.08 29.68 94.48C25.36 96.8 20.04 97.96 13.72 97.96ZM13.72 84.28C17.8 84.28 21.08 83.32 23.56 81.4C26.12 79.48 28.04 77.04 29.32 74.08C30.6 71.04 31.44 67.8 31.84 64.36C32.32 60.92 32.56 57.68 32.56 54.64C32.56 51.6 32.36 48.4 31.96 45.04C31.56 41.6 30.72 38.36 29.44 35.32C28.16 32.28 26.28 29.8 23.8 27.88C21.32 25.96 18 25 13.84 25C9.68 25 6.32 25.96 3.76 27.88C1.28 29.8 -0.599999 32.28 -1.88 35.32C-3.16 38.28 -4.04 41.48 -4.52 44.92C-4.92 48.36 -5.12 51.6 -5.12 54.64C-5.12 57.68 -4.92 60.92 -4.52 64.36C-4.12 67.72 -3.32 70.92 -2.12 73.96C-0.839999 77 1.04 79.48 3.52 81.4C6.08 83.32 9.48 84.28 13.72 84.28ZM54.5753 97V84.64L78.2153 64.72C80.1353 63.12 82.2553 61.36 84.5753 59.44C86.8953 57.52 89.0953 55.44 91.1753 53.2C93.3353 50.88 95.1353 48.48 96.5753 46C98.0153 43.52 98.7353 40.92 98.7353 38.2C98.7353 34.12 97.4953 30.92 95.0153 28.6C92.6153 26.28 89.1753 25.12 84.6953 25.12C80.7753 25.12 77.5753 25.96 75.0953 27.64C72.6153 29.32 71.0553 31.6 70.4153 34.48H55.6553C56.2153 29.12 57.9353 24.76 60.8153 21.4C63.7753 17.96 67.4153 15.4 71.7353 13.72C76.0553 11.96 80.5753 11.08 85.2953 11.08C90.6553 11.08 95.4553 12.08 99.6953 14.08C103.935 16 107.295 18.88 109.775 22.72C112.335 26.48 113.615 31.08 113.615 36.52C113.615 41.4 112.655 45.8 110.735 49.72C108.895 53.64 106.375 57.24 103.175 60.52C100.055 63.72 96.6153 66.88 92.8553 70L76.6553 83.32H113.855V97H54.5753Z" fill="#F2ECE9"/>
<mask id="path-2-outside-1_4024_6041" maskUnits="userSpaceOnUse" x="-36" y="6" width="139" height="91" fill="black">
<rect fill="white" x="-36" y="6" width="139" height="91"/>
<path d="M0.720004 94.96C-5.44 94.96 -10.68 93.88 -15 91.72C-19.32 89.48 -22.8 86.36 -25.44 82.36C-28.08 78.36 -30.04 73.76 -31.32 68.56C-32.52 63.36 -33.12 57.76 -33.12 51.76C-33.12 45.68 -32.52 40 -31.32 34.72C-30.04 29.44 -28.08 24.84 -25.44 20.92C-22.72 16.92 -19.2 13.8 -14.88 11.56C-10.56 9.24 -5.32 8.08 0.840002 8.08C7.16 8.08 12.48 9.28 16.8 11.68C21.2 14.08 24.68 17.32 27.24 21.4C29.88 25.48 31.76 30.12 32.88 35.32C34.08 40.52 34.68 45.96 34.68 51.64C34.68 57.24 34.08 62.64 32.88 67.84C31.76 73.04 29.88 77.68 27.24 81.76C24.6 85.84 21.08 89.08 16.68 91.48C12.36 93.8 7.04 94.96 0.720004 94.96ZM0.720004 81.28C4.8 81.28 8.08 80.32 10.56 78.4C13.12 76.48 15.04 74.04 16.32 71.08C17.6 68.04 18.44 64.8 18.84 61.36C19.32 57.92 19.56 54.68 19.56 51.64C19.56 48.6 19.36 45.4 18.96 42.04C18.56 38.6 17.72 35.36 16.44 32.32C15.16 29.28 13.28 26.8 10.8 24.88C8.32 22.96 5 22 0.840002 22C-3.32 22 -6.68 22.96 -9.24 24.88C-11.72 26.8 -13.6 29.28 -14.88 32.32C-16.16 35.28 -17.04 38.48 -17.52 41.92C-17.92 45.36 -18.12 48.6 -18.12 51.64C-18.12 54.68 -17.92 57.92 -17.52 61.36C-17.12 64.72 -16.32 67.92 -15.12 70.96C-13.84 74 -11.96 76.48 -9.48 78.4C-6.92 80.32 -3.52 81.28 0.720004 81.28ZM41.5753 94V81.64L65.2153 61.72C67.1353 60.12 69.2553 58.36 71.5753 56.44C73.8953 54.52 76.0953 52.44 78.1753 50.2C80.3353 47.88 82.1353 45.48 83.5753 43C85.0153 40.52 85.7353 37.92 85.7353 35.2C85.7353 31.12 84.4953 27.92 82.0153 25.6C79.6153 23.28 76.1753 22.12 71.6953 22.12C67.7753 22.12 64.5753 22.96 62.0953 24.64C59.6153 26.32 58.0553 28.6 57.4153 31.48H42.6553C43.2153 26.12 44.9353 21.76 47.8153 18.4C50.7753 14.96 54.4153 12.4 58.7353 10.72C63.0553 8.96 67.5753 8.08 72.2953 8.08C77.6553 8.08 82.4553 9.08 86.6953 11.08C90.9353 13 94.2953 15.88 96.7753 19.72C99.3353 23.48 100.615 28.08 100.615 33.52C100.615 38.4 99.6553 42.8 97.7353 46.72C95.8953 50.64 93.3753 54.24 90.1753 57.52C87.0553 60.72 83.6153 63.88 79.8553 67L63.6553 80.32H100.855V94H41.5753Z"/>
</mask>
<path d="M-15 91.72L-15.9206 93.4955L-15.9076 93.5023L-15.8944 93.5089L-15 91.72ZM-25.44 82.36L-27.1092 83.4617H-27.1092L-25.44 82.36ZM-31.32 68.56L-33.2688 69.0097L-33.2655 69.0239L-33.262 69.038L-31.32 68.56ZM-31.32 34.72L-33.2637 34.2488L-33.2671 34.2628L-33.2703 34.2768L-31.32 34.72ZM-25.44 20.92L-27.0939 19.7954L-27.0989 19.8028L-25.44 20.92ZM-14.88 11.56L-13.9594 13.3355L-13.9465 13.3288L-13.9337 13.322L-14.88 11.56ZM16.8 11.68L15.8287 13.4283L15.8355 13.4321L15.8423 13.4358L16.8 11.68ZM27.24 21.4L25.5459 22.463L25.5533 22.4748L25.5609 22.4865L27.24 21.4ZM32.88 35.32L30.9248 35.7411L30.9279 35.7554L30.9312 35.7697L32.88 35.32ZM32.88 67.84L30.9312 67.3903L30.9279 67.4046L30.9248 67.4189L32.88 67.84ZM27.24 81.76L28.9191 82.8465L27.24 81.76ZM16.68 91.48L17.6263 93.242L17.6377 93.2358L16.68 91.48ZM10.56 78.4L9.36 76.8L9.34776 76.8092L9.33566 76.8186L10.56 78.4ZM16.32 71.08L18.1557 71.8738L18.1595 71.865L18.1633 71.8561L16.32 71.08ZM18.84 61.36L16.8592 61.0836L16.856 61.1063L16.8534 61.129L18.84 61.36ZM18.96 42.04L16.9734 42.271L16.974 42.2764L18.96 42.04ZM16.44 32.32L14.5967 33.0961L16.44 32.32ZM10.8 24.88L12.0243 23.2985L10.8 24.88ZM-9.24 24.88L-10.44 23.28L-10.4522 23.2892L-10.4643 23.2985L-9.24 24.88ZM-14.88 32.32L-13.0443 33.1138L-13.0405 33.105L-13.0367 33.0961L-14.88 32.32ZM-17.52 41.92L-19.5008 41.6436L-19.504 41.6663L-19.5066 41.689L-17.52 41.92ZM-17.52 61.36L-19.5066 61.591L-19.506 61.5964L-17.52 61.36ZM-15.12 70.96L-16.9803 71.6943L-16.972 71.7153L-16.9633 71.7361L-15.12 70.96ZM-9.48 78.4L-10.7043 79.9814L-10.6922 79.9908L-10.68 80L-9.48 78.4ZM0.720005 92.96C-5.21249 92.96 -10.129 91.9194 -14.1056 89.9311L-15.8944 93.5089C-11.231 95.8406 -5.6675 96.96 0.720005 96.96V92.96ZM-14.0794 89.9445C-18.1013 87.859 -21.3217 84.969 -23.7708 81.2583L-27.1092 83.4617C-24.2783 87.751 -20.5387 91.101 -15.9206 93.4955L-14.0794 89.9445ZM-23.7708 81.2583C-26.271 77.4701 -28.1462 73.0859 -29.378 68.082L-33.262 69.038C-31.9338 74.4341 -29.889 79.2499 -27.1092 83.4617L-23.7708 81.2583ZM-29.3712 68.1103C-30.5333 63.0747 -31.12 57.627 -31.12 51.76H-35.12C-35.12 57.893 -34.5067 63.6453 -33.2688 69.0097L-29.3712 68.1103ZM-31.12 51.76C-31.12 45.8112 -30.5329 40.2813 -29.3697 35.1632L-33.2703 34.2768C-34.5071 39.7187 -35.12 45.5488 -35.12 51.76H-31.12ZM-29.3763 35.1912C-28.1439 30.1077 -26.2704 25.7334 -23.7811 22.0372L-27.0989 19.8028C-29.8896 23.9466 -31.9361 28.7723 -33.2637 34.2488L-29.3763 35.1912ZM-23.7861 22.0446C-21.2539 18.3208 -17.9866 15.4237 -13.9594 13.3355L-15.8006 9.78448C-20.4134 12.1763 -24.1861 15.5192 -27.0939 19.7954L-23.7861 22.0446ZM-13.9337 13.322C-9.96992 11.1933 -5.07274 10.08 0.840004 10.08V6.08C-5.56725 6.08 -11.1501 7.28673 -15.8263 9.79801L-13.9337 13.322ZM0.840004 10.08C6.91276 10.08 11.8775 11.2332 15.8287 13.4283L17.7713 9.93168C13.0825 7.32681 7.40725 6.08 0.840004 6.08V10.08ZM15.8423 13.4358C19.9542 15.6787 23.1755 18.6852 25.5459 22.463L28.9341 20.337C26.1845 15.9548 22.4458 12.4813 17.7577 9.9242L15.8423 13.4358ZM25.5609 22.4865C28.0574 26.3448 29.851 30.7554 30.9248 35.7411L34.8352 34.8989C33.669 29.4846 31.7026 24.6151 28.9191 20.3135L25.5609 22.4865ZM30.9312 35.7697C32.0951 40.8131 32.68 46.1017 32.68 51.64H36.68C36.68 45.8183 36.0649 40.2269 34.8288 34.8703L30.9312 35.7697ZM32.68 51.64C32.68 57.0961 32.0956 62.3448 30.9312 67.3903L34.8288 68.2897C36.0645 62.9351 36.68 57.3839 36.68 51.64H32.68ZM30.9248 67.4189C29.851 72.4046 28.0574 76.8151 25.5609 80.6735L28.9191 82.8465C31.7026 78.5448 33.669 73.6754 34.8352 68.2611L30.9248 67.4189ZM25.5609 80.6735C23.1077 84.4648 19.8394 87.4785 15.7223 89.7242L17.6377 93.2358C22.3206 90.6815 26.0924 87.2152 28.9191 82.8465L25.5609 80.6735ZM15.7337 89.718C11.7767 91.8431 6.80252 92.96 0.720005 92.96V96.96C7.27748 96.96 12.9433 95.7569 17.6263 93.242L15.7337 89.718ZM0.720005 83.28C5.10915 83.28 8.86087 82.2448 11.7843 79.9814L9.33566 76.8186C7.29913 78.3952 4.49086 79.28 0.720005 79.28V83.28ZM11.76 80C14.6007 77.8695 16.7387 75.1507 18.1557 71.8738L14.4843 70.2862C13.3413 72.9293 11.6393 75.0905 9.36 76.8L11.76 80ZM18.1633 71.8561C19.5201 68.6336 20.4059 65.2092 20.8266 61.591L16.8534 61.129C16.4741 64.3908 15.6799 67.4464 14.4767 70.3039L18.1633 71.8561ZM20.8208 61.6364C21.3118 58.1174 21.56 54.7844 21.56 51.64H17.56C17.56 54.5756 17.3282 57.7225 16.8592 61.0836L20.8208 61.6364ZM21.56 51.64C21.56 48.5127 21.3543 45.2334 20.946 41.8036L16.974 42.2764C17.3657 45.5666 17.56 48.6873 17.56 51.64H21.56ZM20.9466 41.809C20.5259 38.1908 19.6401 34.7664 18.2833 31.5439L14.5967 33.0961C15.7999 35.9536 16.5941 39.0092 16.9734 42.271L20.9466 41.809ZM18.2833 31.5439C16.8769 28.2037 14.7908 25.4403 12.0243 23.2985L9.57566 26.4614C11.7692 28.1597 13.4431 30.3563 14.5967 33.0961L18.2833 31.5439ZM12.0243 23.2985C9.09462 21.0304 5.29875 20 0.840004 20V24C4.70125 24 7.54539 24.8896 9.57566 26.4614L12.0243 23.2985ZM0.840004 20C-3.62268 20 -7.4425 21.0319 -10.44 23.28L-8.04 26.48C-5.9175 24.8881 -3.01731 24 0.840004 24V20ZM-10.4643 23.2985C-13.2308 25.4403 -15.3169 28.2037 -16.7233 31.5439L-13.0367 33.0961C-11.8831 30.3563 -10.2092 28.1597 -8.01565 26.4614L-10.4643 23.2985ZM-16.7157 31.5262C-18.0724 34.6635 -18.9978 38.039 -19.5008 41.6436L-15.5392 42.1964C-15.0822 38.921 -14.2476 35.8965 -13.0443 33.1138L-16.7157 31.5262ZM-19.5066 41.689C-19.9143 45.1953 -20.12 48.5131 -20.12 51.64H-16.12C-16.12 48.6869 -15.9257 45.5247 -15.5334 42.151L-19.5066 41.689ZM-20.12 51.64C-20.12 54.7669 -19.9143 58.0846 -19.5066 61.591L-15.5334 61.129C-15.9257 57.7553 -16.12 54.5931 -16.12 51.64H-20.12ZM-19.506 61.5964C-19.0864 65.1211 -18.2456 68.4889 -16.9803 71.6943L-13.2597 70.2257C-14.3944 67.3511 -15.1536 64.3189 -15.534 61.1236L-19.506 61.5964ZM-16.9633 71.7361C-15.5569 75.0763 -13.4708 77.8397 -10.7043 79.9814L-8.25565 76.8186C-10.4492 75.1203 -12.1231 72.9237 -13.2767 70.1839L-16.9633 71.7361ZM-10.68 80C-7.67645 82.2527 -3.81277 83.28 0.720005 83.28V79.28C-3.22723 79.28 -6.16354 78.3873 -8.28 76.8L-10.68 80ZM41.5753 94H39.5753V96H41.5753V94ZM41.5753 81.64L40.2866 80.1106L39.5753 80.7099V81.64H41.5753ZM65.2153 61.72L63.9349 60.1835L63.9266 60.1906L65.2153 61.72ZM71.5753 56.44L70.3002 54.8992L71.5753 56.44ZM78.1753 50.2L76.7115 48.8372L76.7097 48.8391L78.1753 50.2ZM83.5753 43L85.3049 44.0043L83.5753 43ZM82.0153 25.6L80.6253 27.038L80.637 27.0494L80.649 27.0605L82.0153 25.6ZM62.0953 24.64L63.217 26.2958L62.0953 24.64ZM57.4153 31.48V33.48H59.0197L59.3677 31.9139L57.4153 31.48ZM42.6553 31.48L40.6661 31.2722L40.4355 33.48H42.6553V31.48ZM47.8153 18.4L46.2993 17.0955L46.2968 17.0984L47.8153 18.4ZM58.7353 10.72L59.4602 12.584L59.4751 12.5782L59.4899 12.5722L58.7353 10.72ZM86.6953 11.08L85.8421 12.8889L85.8561 12.8955L85.8703 12.9019L86.6953 11.08ZM96.7753 19.72L95.0952 20.805L95.1084 20.8255L95.1221 20.8456L96.7753 19.72ZM97.7353 46.72L95.9392 45.8403L95.9319 45.8552L95.9248 45.8702L97.7353 46.72ZM90.1753 57.52L88.7438 56.1234L88.7433 56.1238L90.1753 57.52ZM79.8553 67L81.1255 68.5449L81.1325 68.5391L79.8553 67ZM63.6553 80.32L62.3851 78.7751L58.0738 82.32H63.6553V80.32ZM100.855 80.32H102.855V78.32H100.855V80.32ZM100.855 94V96H102.855V94H100.855ZM43.5753 94V81.64H39.5753V94H43.5753ZM42.8641 83.1694L66.5041 63.2494L63.9266 60.1906L40.2866 80.1106L42.8641 83.1694ZM66.4957 63.2564C68.4136 61.6581 70.5319 59.8996 72.8504 57.9808L70.3002 54.8992C67.9788 56.8204 65.857 58.5818 63.9349 60.1836L66.4957 63.2564ZM72.8504 57.9808C75.2388 56.0042 77.5023 53.864 79.6409 51.5609L76.7097 48.8391C74.6883 51.016 72.5518 53.0358 70.3002 54.8992L72.8504 57.9808ZM79.6391 51.5628C81.8903 49.1449 83.7826 46.626 85.3049 44.0043L81.8457 41.9957C80.4881 44.334 78.7804 46.6151 76.7115 48.8372L79.6391 51.5628ZM85.3049 44.0043C86.912 41.2364 87.7353 38.2921 87.7353 35.2H83.7353C83.7353 37.5478 83.1186 39.8036 81.8457 41.9957L85.3049 44.0043ZM87.7353 35.2C87.7353 30.687 86.3462 26.9128 83.3816 24.1395L80.649 27.0605C82.6444 28.9272 83.7353 31.553 83.7353 35.2H87.7353ZM83.4054 24.162C80.5194 21.3722 76.5121 20.12 71.6953 20.12V24.12C75.8386 24.12 78.7112 25.1877 80.6253 27.038L83.4054 24.162ZM71.6953 20.12C67.4974 20.12 63.873 21.02 60.9736 22.9842L63.217 26.2958C65.2776 24.8999 68.0533 24.12 71.6953 24.12V20.12ZM60.9736 22.9842C58.0781 24.9456 56.2156 27.6593 55.4629 31.0461L59.3677 31.9139C59.8951 29.5407 61.1525 27.6944 63.217 26.2958L60.9736 22.9842ZM57.4153 29.48H42.6553V33.48H57.4153V29.48ZM44.6445 31.6878C45.1716 26.6425 46.771 22.6915 49.3338 19.7016L46.2968 17.0984C43.0996 20.8285 41.259 25.5975 40.6661 31.2722L44.6445 31.6878ZM49.3313 19.7045C52.0728 16.5185 55.439 14.1478 59.4602 12.584L58.0104 8.85599C53.3916 10.6522 49.4779 13.4015 46.2993 17.0955L49.3313 19.7045ZM59.4899 12.5722C63.5674 10.911 67.8309 10.08 72.2953 10.08V6.08C67.3197 6.08 62.5432 7.00902 57.9807 8.86781L59.4899 12.5722ZM72.2953 10.08C77.4026 10.08 81.9047 11.0316 85.8421 12.8889L87.5486 9.27113C83.0059 7.12839 77.908 6.08 72.2953 6.08V10.08ZM85.8703 12.9019C89.7672 14.6665 92.8276 17.2938 95.0952 20.805L98.4554 18.6349C95.763 14.4662 92.1034 11.3335 87.5203 9.25809L85.8703 12.9019ZM95.1221 20.8456C97.4149 24.2131 98.6153 28.4014 98.6153 33.52H102.615C102.615 27.7586 101.256 22.7468 98.4285 18.5944L95.1221 20.8456ZM98.6153 33.52C98.6153 38.1314 97.7099 42.225 95.9392 45.8403L99.5314 47.5997C101.601 43.375 102.615 38.6686 102.615 33.52H98.6153ZM95.9248 45.8702C94.1851 49.5765 91.7969 52.9938 88.7438 56.1234L91.6069 58.9166C94.9537 55.4862 97.6055 51.7035 99.5458 47.5698L95.9248 45.8702ZM88.7433 56.1238C85.6767 59.2691 82.289 62.3817 78.5782 65.4609L81.1325 68.5391C84.9416 65.3783 88.434 62.1709 91.6073 58.9162L88.7433 56.1238ZM78.5851 65.4551L62.3851 78.7751L64.9255 81.8649L81.1255 68.5449L78.5851 65.4551ZM63.6553 82.32H100.855V78.32H63.6553V82.32ZM98.8553 80.32V94H102.855V80.32H98.8553ZM100.855 92H41.5753V96H100.855V92Z" fill="#DAA261" mask="url(#path-2-outside-1_4024_6041)"/>
</g>
<defs>
<clipPath id="clip0_4024_6041">
<rect width="128" height="97" fill="white"/>
</clipPath>
</defs>
</svg>
