<svg width="128" height="97" viewBox="0 0 128 97" fill="none" xmlns="http://www.w3.org/2000/svg">
<g clip-path="url(#clip0_4114_2512)">
<path d="M13.72 97.96C7.56 97.96 2.32 96.88 -2 94.72C-6.32 92.48 -9.8 89.36 -12.44 85.36C-15.08 81.36 -17.04 76.76 -18.32 71.56C-19.52 66.36 -20.12 60.76 -20.12 54.76C-20.12 48.68 -19.52 43 -18.32 37.72C-17.04 32.44 -15.08 27.84 -12.44 23.92C-9.72 19.92 -6.2 16.8 -1.88 14.56C2.44 12.24 7.68 11.08 13.84 11.08C20.16 11.08 25.48 12.28 29.8 14.68C34.2 17.08 37.68 20.32 40.24 24.4C42.88 28.48 44.76 33.12 45.88 38.32C47.08 43.52 47.68 48.96 47.68 54.64C47.68 60.24 47.08 65.64 45.88 70.84C44.76 76.04 42.88 80.68 40.24 84.76C37.6 88.84 34.08 92.08 29.68 94.48C25.36 96.8 20.04 97.96 13.72 97.96ZM13.72 84.28C17.8 84.28 21.08 83.32 23.56 81.4C26.12 79.48 28.04 77.04 29.32 74.08C30.6 71.04 31.44 67.8 31.84 64.36C32.32 60.92 32.56 57.68 32.56 54.64C32.56 51.6 32.36 48.4 31.96 45.04C31.56 41.6 30.72 38.36 29.44 35.32C28.16 32.28 26.28 29.8 23.8 27.88C21.32 25.96 18 25 13.84 25C9.68 25 6.32 25.96 3.76 27.88C1.28 29.8 -0.599999 32.28 -1.88 35.32C-3.16 38.28 -4.04 41.48 -4.52 44.92C-4.92 48.36 -5.12 51.6 -5.12 54.64C-5.12 57.68 -4.92 60.92 -4.52 64.36C-4.12 67.72 -3.32 70.92 -2.12 73.96C-0.839999 77 1.04 79.48 3.52 81.4C6.08 83.32 9.48 84.28 13.72 84.28ZM89.2131 97.96C85.4531 97.96 81.7331 97.52 78.0531 96.64C74.3731 95.76 71.0131 94.4 67.9731 92.56C64.9331 90.64 62.3731 88.16 60.2931 85.12C58.2931 82.08 57.0131 78.4 56.4531 74.08H71.3331C72.0531 76.56 73.3331 78.52 75.1731 79.96C77.0931 81.4 79.2931 82.48 81.7731 83.2C84.2531 83.84 86.7731 84.16 89.3331 84.16C91.1731 84.16 93.0131 84 94.8531 83.68C96.6931 83.36 98.4131 82.76 100.013 81.88C101.613 81 102.893 79.76 103.853 78.16C104.813 76.56 105.293 74.48 105.293 71.92C105.293 69.6 104.853 67.68 103.973 66.16C103.173 64.64 102.013 63.48 100.493 62.68C99.0531 61.8 97.3731 61.2 95.4531 60.88C93.6131 60.48 91.6531 60.28 89.5731 60.28H80.2131V47.44H86.3331C88.6531 47.44 90.7731 47.2 92.6931 46.72C94.6131 46.24 96.2931 45.56 97.7331 44.68C99.1731 43.72 100.253 42.52 100.973 41.08C101.773 39.64 102.173 37.92 102.173 35.92C102.173 33.04 101.533 30.8 100.253 29.2C99.0531 27.6 97.4131 26.48 95.3331 25.84C93.2531 25.12 90.9731 24.76 88.4931 24.76C86.2531 24.76 84.0931 25.12 82.0131 25.84C79.9331 26.48 78.1331 27.48 76.6131 28.84C75.0931 30.2 74.1331 31.92 73.7331 34H59.0931C59.5731 30 60.7331 26.56 62.5731 23.68C64.4131 20.8 66.6931 18.44 69.4131 16.6C72.2131 14.68 75.3331 13.28 78.7731 12.4C82.2131 11.52 85.7731 11.08 89.4531 11.08C93.0531 11.08 96.4931 11.48 99.7731 12.28C103.133 13.08 106.093 14.4 108.653 16.24C111.213 18 113.253 20.32 114.773 23.2C116.293 26.08 117.053 29.6 117.053 33.76C117.053 36.4 116.613 38.88 115.733 41.2C114.853 43.52 113.573 45.56 111.893 47.32C110.293 49.08 108.333 50.52 106.013 51.64C109.213 52.52 111.893 53.96 114.053 55.96C116.213 57.88 117.813 60.2 118.853 62.92C119.973 65.64 120.533 68.64 120.533 71.92C120.533 77.04 119.573 81.32 117.653 84.76C115.813 88.12 113.333 90.76 110.213 92.68C107.173 94.6 103.813 95.96 100.133 96.76C96.4531 97.56 92.8131 97.96 89.2131 97.96Z" fill="#F2ECE9"/>
<mask id="path-2-outside-1_4114_2512" maskUnits="userSpaceOnUse" x="-36" y="6" width="146" height="91" fill="black">
<rect fill="white" x="-36" y="6" width="146" height="91"/>
<path d="M0.720004 94.96C-5.44 94.96 -10.68 93.88 -15 91.72C-19.32 89.48 -22.8 86.36 -25.44 82.36C-28.08 78.36 -30.04 73.76 -31.32 68.56C-32.52 63.36 -33.12 57.76 -33.12 51.76C-33.12 45.68 -32.52 40 -31.32 34.72C-30.04 29.44 -28.08 24.84 -25.44 20.92C-22.72 16.92 -19.2 13.8 -14.88 11.56C-10.56 9.24 -5.32 8.08 0.840002 8.08C7.16 8.08 12.48 9.28 16.8 11.68C21.2 14.08 24.68 17.32 27.24 21.4C29.88 25.48 31.76 30.12 32.88 35.32C34.08 40.52 34.68 45.96 34.68 51.64C34.68 57.24 34.08 62.64 32.88 67.84C31.76 73.04 29.88 77.68 27.24 81.76C24.6 85.84 21.08 89.08 16.68 91.48C12.36 93.8 7.04 94.96 0.720004 94.96ZM0.720004 81.28C4.8 81.28 8.08 80.32 10.56 78.4C13.12 76.48 15.04 74.04 16.32 71.08C17.6 68.04 18.44 64.8 18.84 61.36C19.32 57.92 19.56 54.68 19.56 51.64C19.56 48.6 19.36 45.4 18.96 42.04C18.56 38.6 17.72 35.36 16.44 32.32C15.16 29.28 13.28 26.8 10.8 24.88C8.32 22.96 5 22 0.840002 22C-3.32 22 -6.68 22.96 -9.24 24.88C-11.72 26.8 -13.6 29.28 -14.88 32.32C-16.16 35.28 -17.04 38.48 -17.52 41.92C-17.92 45.36 -18.12 48.6 -18.12 51.64C-18.12 54.68 -17.92 57.92 -17.52 61.36C-17.12 64.72 -16.32 67.92 -15.12 70.96C-13.84 74 -11.96 76.48 -9.48 78.4C-6.92 80.32 -3.52 81.28 0.720004 81.28ZM76.2131 94.96C72.4531 94.96 68.7331 94.52 65.0531 93.64C61.3731 92.76 58.0131 91.4 54.9731 89.56C51.9331 87.64 49.3731 85.16 47.2931 82.12C45.2931 79.08 44.0131 75.4 43.4531 71.08H58.3331C59.0531 73.56 60.3331 75.52 62.1731 76.96C64.0931 78.4 66.2931 79.48 68.7731 80.2C71.2531 80.84 73.7731 81.16 76.3331 81.16C78.1731 81.16 80.0131 81 81.8531 80.68C83.6931 80.36 85.4131 79.76 87.0131 78.88C88.6131 78 89.8931 76.76 90.8531 75.16C91.8131 73.56 92.2931 71.48 92.2931 68.92C92.2931 66.6 91.8531 64.68 90.9731 63.16C90.1731 61.64 89.0131 60.48 87.4931 59.68C86.0531 58.8 84.3731 58.2 82.4531 57.88C80.6131 57.48 78.6531 57.28 76.5731 57.28H67.2131V44.44H73.3331C75.6531 44.44 77.7731 44.2 79.6931 43.72C81.6131 43.24 83.2931 42.56 84.7331 41.68C86.1731 40.72 87.2531 39.52 87.9731 38.08C88.7731 36.64 89.1731 34.92 89.1731 32.92C89.1731 30.04 88.5331 27.8 87.2531 26.2C86.0531 24.6 84.4131 23.48 82.3331 22.84C80.2531 22.12 77.9731 21.76 75.4931 21.76C73.2531 21.76 71.0931 22.12 69.0131 22.84C66.9331 23.48 65.1331 24.48 63.6131 25.84C62.0931 27.2 61.1331 28.92 60.7331 31H46.0931C46.5731 27 47.7331 23.56 49.5731 20.68C51.4131 17.8 53.6931 15.44 56.4131 13.6C59.2131 11.68 62.3331 10.28 65.7731 9.39999C69.2131 8.52 72.7731 8.08 76.4531 8.08C80.0531 8.08 83.4931 8.48 86.7731 9.28C90.1331 10.08 93.0931 11.4 95.6531 13.24C98.2131 15 100.253 17.32 101.773 20.2C103.293 23.08 104.053 26.6 104.053 30.76C104.053 33.4 103.613 35.88 102.733 38.2C101.853 40.52 100.573 42.56 98.8931 44.32C97.2931 46.08 95.3331 47.52 93.0131 48.64C96.2131 49.52 98.8931 50.96 101.053 52.96C103.213 54.88 104.813 57.2 105.853 59.92C106.973 62.64 107.533 65.64 107.533 68.92C107.533 74.04 106.573 78.32 104.653 81.76C102.813 85.12 100.333 87.76 97.2131 89.68C94.1731 91.6 90.8131 92.96 87.1331 93.76C83.4531 94.56 79.8131 94.96 76.2131 94.96Z"/>
</mask>
<path d="M-15 91.72L-15.9206 93.4955L-15.9076 93.5023L-15.8944 93.5089L-15 91.72ZM-25.44 82.36L-27.1092 83.4617H-27.1092L-25.44 82.36ZM-31.32 68.56L-33.2688 69.0097L-33.2655 69.0239L-33.262 69.038L-31.32 68.56ZM-31.32 34.72L-33.2637 34.2488L-33.2671 34.2628L-33.2703 34.2768L-31.32 34.72ZM-25.44 20.92L-27.0939 19.7954L-27.0989 19.8028L-25.44 20.92ZM-14.88 11.56L-13.9594 13.3355L-13.9465 13.3288L-13.9337 13.322L-14.88 11.56ZM16.8 11.68L15.8287 13.4283L15.8355 13.4321L15.8423 13.4358L16.8 11.68ZM27.24 21.4L25.5459 22.463L25.5533 22.4748L25.5609 22.4865L27.24 21.4ZM32.88 35.32L30.9248 35.7411L30.9279 35.7554L30.9312 35.7697L32.88 35.32ZM32.88 67.84L30.9312 67.3903L30.9279 67.4046L30.9248 67.4189L32.88 67.84ZM27.24 81.76L28.9191 82.8465L27.24 81.76ZM16.68 91.48L17.6263 93.242L17.6377 93.2358L16.68 91.48ZM10.56 78.4L9.36 76.8L9.34776 76.8092L9.33566 76.8186L10.56 78.4ZM16.32 71.08L18.1557 71.8738L18.1595 71.865L18.1633 71.8561L16.32 71.08ZM18.84 61.36L16.8592 61.0836L16.856 61.1063L16.8534 61.129L18.84 61.36ZM18.96 42.04L16.9734 42.271L16.974 42.2764L18.96 42.04ZM16.44 32.32L14.5967 33.0961L16.44 32.32ZM10.8 24.88L12.0243 23.2985L10.8 24.88ZM-9.24 24.88L-10.44 23.28L-10.4522 23.2892L-10.4643 23.2985L-9.24 24.88ZM-14.88 32.32L-13.0443 33.1138L-13.0405 33.105L-13.0367 33.0961L-14.88 32.32ZM-17.52 41.92L-19.5008 41.6436L-19.504 41.6663L-19.5066 41.689L-17.52 41.92ZM-17.52 61.36L-19.5066 61.591L-19.506 61.5964L-17.52 61.36ZM-15.12 70.96L-16.9803 71.6943L-16.972 71.7153L-16.9633 71.7361L-15.12 70.96ZM-9.48 78.4L-10.7043 79.9814L-10.6922 79.9908L-10.68 80L-9.48 78.4ZM0.720005 92.96C-5.21249 92.96 -10.129 91.9194 -14.1056 89.9311L-15.8944 93.5089C-11.231 95.8406 -5.6675 96.96 0.720005 96.96V92.96ZM-14.0794 89.9445C-18.1013 87.859 -21.3217 84.969 -23.7708 81.2583L-27.1092 83.4617C-24.2783 87.751 -20.5387 91.101 -15.9206 93.4955L-14.0794 89.9445ZM-23.7708 81.2583C-26.271 77.4701 -28.1462 73.0859 -29.378 68.082L-33.262 69.038C-31.9338 74.4341 -29.889 79.2499 -27.1092 83.4617L-23.7708 81.2583ZM-29.3712 68.1103C-30.5333 63.0747 -31.12 57.627 -31.12 51.76H-35.12C-35.12 57.893 -34.5067 63.6453 -33.2688 69.0097L-29.3712 68.1103ZM-31.12 51.76C-31.12 45.8112 -30.5329 40.2813 -29.3697 35.1632L-33.2703 34.2768C-34.5071 39.7187 -35.12 45.5488 -35.12 51.76H-31.12ZM-29.3763 35.1912C-28.1439 30.1077 -26.2704 25.7334 -23.7811 22.0372L-27.0989 19.8028C-29.8896 23.9466 -31.9361 28.7723 -33.2637 34.2488L-29.3763 35.1912ZM-23.7861 22.0446C-21.2539 18.3208 -17.9866 15.4237 -13.9594 13.3355L-15.8006 9.78448C-20.4134 12.1763 -24.1861 15.5192 -27.0939 19.7954L-23.7861 22.0446ZM-13.9337 13.322C-9.96992 11.1933 -5.07274 10.08 0.840004 10.08V6.08C-5.56725 6.08 -11.1501 7.28673 -15.8263 9.79801L-13.9337 13.322ZM0.840004 10.08C6.91276 10.08 11.8775 11.2332 15.8287 13.4283L17.7713 9.93168C13.0825 7.32681 7.40725 6.08 0.840004 6.08V10.08ZM15.8423 13.4358C19.9542 15.6787 23.1755 18.6852 25.5459 22.463L28.9341 20.337C26.1845 15.9548 22.4458 12.4813 17.7577 9.9242L15.8423 13.4358ZM25.5609 22.4865C28.0574 26.3448 29.851 30.7554 30.9248 35.7411L34.8352 34.8989C33.669 29.4846 31.7026 24.6151 28.9191 20.3135L25.5609 22.4865ZM30.9312 35.7697C32.0951 40.8131 32.68 46.1017 32.68 51.64H36.68C36.68 45.8183 36.0649 40.2269 34.8288 34.8703L30.9312 35.7697ZM32.68 51.64C32.68 57.0961 32.0956 62.3448 30.9312 67.3903L34.8288 68.2897C36.0645 62.9351 36.68 57.3839 36.68 51.64H32.68ZM30.9248 67.4189C29.851 72.4046 28.0574 76.8151 25.5609 80.6735L28.9191 82.8465C31.7026 78.5448 33.669 73.6754 34.8352 68.2611L30.9248 67.4189ZM25.5609 80.6735C23.1077 84.4648 19.8394 87.4785 15.7223 89.7242L17.6377 93.2358C22.3206 90.6815 26.0924 87.2152 28.9191 82.8465L25.5609 80.6735ZM15.7337 89.718C11.7767 91.8431 6.80252 92.96 0.720005 92.96V96.96C7.27748 96.96 12.9433 95.7569 17.6263 93.242L15.7337 89.718ZM0.720005 83.28C5.10915 83.28 8.86087 82.2448 11.7843 79.9814L9.33566 76.8186C7.29913 78.3952 4.49086 79.28 0.720005 79.28V83.28ZM11.76 80C14.6007 77.8695 16.7387 75.1507 18.1557 71.8738L14.4843 70.2862C13.3413 72.9293 11.6393 75.0905 9.36 76.8L11.76 80ZM18.1633 71.8561C19.5201 68.6336 20.4059 65.2092 20.8266 61.591L16.8534 61.129C16.4741 64.3908 15.6799 67.4464 14.4767 70.3039L18.1633 71.8561ZM20.8208 61.6364C21.3118 58.1174 21.56 54.7844 21.56 51.64H17.56C17.56 54.5756 17.3282 57.7225 16.8592 61.0836L20.8208 61.6364ZM21.56 51.64C21.56 48.5127 21.3543 45.2334 20.946 41.8036L16.974 42.2764C17.3657 45.5666 17.56 48.6873 17.56 51.64H21.56ZM20.9466 41.809C20.5259 38.1908 19.6401 34.7664 18.2833 31.5439L14.5967 33.0961C15.7999 35.9536 16.5941 39.0092 16.9734 42.271L20.9466 41.809ZM18.2833 31.5439C16.8769 28.2037 14.7908 25.4403 12.0243 23.2985L9.57566 26.4614C11.7692 28.1597 13.4431 30.3563 14.5967 33.0961L18.2833 31.5439ZM12.0243 23.2985C9.09462 21.0304 5.29875 20 0.840004 20V24C4.70125 24 7.54539 24.8896 9.57566 26.4614L12.0243 23.2985ZM0.840004 20C-3.62268 20 -7.4425 21.0319 -10.44 23.28L-8.04 26.48C-5.9175 24.8881 -3.01731 24 0.840004 24V20ZM-10.4643 23.2985C-13.2308 25.4403 -15.3169 28.2037 -16.7233 31.5439L-13.0367 33.0961C-11.8831 30.3563 -10.2092 28.1597 -8.01565 26.4614L-10.4643 23.2985ZM-16.7157 31.5262C-18.0724 34.6635 -18.9978 38.039 -19.5008 41.6436L-15.5392 42.1964C-15.0822 38.921 -14.2476 35.8965 -13.0443 33.1138L-16.7157 31.5262ZM-19.5066 41.689C-19.9143 45.1953 -20.12 48.5131 -20.12 51.64H-16.12C-16.12 48.6869 -15.9257 45.5247 -15.5334 42.151L-19.5066 41.689ZM-20.12 51.64C-20.12 54.7669 -19.9143 58.0846 -19.5066 61.591L-15.5334 61.129C-15.9257 57.7553 -16.12 54.5931 -16.12 51.64H-20.12ZM-19.506 61.5964C-19.0864 65.1211 -18.2456 68.4889 -16.9803 71.6943L-13.2597 70.2257C-14.3944 67.3511 -15.1536 64.3189 -15.534 61.1236L-19.506 61.5964ZM-16.9633 71.7361C-15.5569 75.0763 -13.4708 77.8397 -10.7043 79.9814L-8.25565 76.8186C-10.4492 75.1203 -12.1231 72.9237 -13.2767 70.1839L-16.9633 71.7361ZM-10.68 80C-7.67645 82.2527 -3.81277 83.28 0.720005 83.28V79.28C-3.22723 79.28 -6.16354 78.3873 -8.28 76.8L-10.68 80ZM54.9731 89.56L53.9051 91.251L53.9212 91.2611L53.9375 91.271L54.9731 89.56ZM47.2931 82.12L45.6223 83.2192L45.6323 83.2344L45.6425 83.2494L47.2931 82.12ZM43.4531 71.08V69.08H41.1771L41.4697 71.3371L43.4531 71.08ZM58.3331 71.08L60.2538 70.5224L59.8351 69.08H58.3331V71.08ZM62.1731 76.96L60.9405 78.535L60.9567 78.5477L60.9731 78.56L62.1731 76.96ZM68.7731 80.2L68.2155 82.1207L68.2443 82.1291L68.2734 82.1366L68.7731 80.2ZM81.8531 80.68L81.5104 78.7096L81.8531 80.68ZM87.0131 78.88L86.0493 77.1276L87.0131 78.88ZM90.9731 63.16L89.2033 64.0915L89.2221 64.1272L89.2423 64.1621L90.9731 63.16ZM87.4931 59.68L86.4502 61.3866L86.5049 61.42L86.5616 61.4498L87.4931 59.68ZM82.4531 57.88L82.0283 59.8344L82.0761 59.8447L82.1243 59.8528L82.4531 57.88ZM67.2131 57.28H65.2131V59.28H67.2131V57.28ZM67.2131 44.44V42.44H65.2131V44.44H67.2131ZM79.6931 43.72L79.2081 41.7797H79.2081L79.6931 43.72ZM84.7331 41.68L85.776 43.3866L85.8097 43.366L85.8425 43.3441L84.7331 41.68ZM87.9731 38.08L86.2248 37.1087L86.2037 37.1467L86.1843 37.1856L87.9731 38.08ZM87.2531 26.2L85.6531 27.4L85.6719 27.425L85.6914 27.4494L87.2531 26.2ZM82.3331 22.84L81.6789 24.73L81.7117 24.7413L81.745 24.7516L82.3331 22.84ZM69.0131 22.84L69.6013 24.7516L69.6345 24.7413L69.6674 24.73L69.0131 22.84ZM63.6131 25.84L62.2795 24.3495V24.3495L63.6131 25.84ZM60.7331 31V33H62.3852L62.6971 31.3777L60.7331 31ZM46.0931 31L44.1074 30.7617L43.8388 33H46.0931V31ZM49.5731 20.68L51.2585 21.7568H51.2585L49.5731 20.68ZM56.4131 13.6L57.5338 15.2566L57.5442 15.2495L56.4131 13.6ZM65.7731 9.39999L65.2775 7.46239L65.7731 9.39999ZM86.7731 9.27999L86.2992 11.2231L86.3099 11.2256L86.7731 9.27999ZM95.6531 13.24L94.4859 14.864L94.5028 14.8762L94.5201 14.8881L95.6531 13.24ZM101.773 20.2L100.004 21.1335L101.773 20.2ZM102.733 38.2L104.603 38.9093L104.603 38.9093L102.733 38.2ZM98.8931 44.32L97.4464 42.939L97.4296 42.9566L97.4133 42.9746L98.8931 44.32ZM93.0131 48.64L92.1436 46.8389L87.345 49.1555L92.4828 50.5684L93.0131 48.64ZM101.053 52.96L99.6943 54.4275L99.7092 54.4413L99.7244 54.4548L101.053 52.96ZM105.853 59.92L103.985 60.6343L103.994 60.658L104.004 60.6815L105.853 59.92ZM104.653 81.76L102.907 80.7853L102.903 80.7923L102.899 80.7994L104.653 81.76ZM97.2131 89.68L96.1649 87.9767L96.155 87.9828L96.1451 87.989L97.2131 89.68ZM87.1331 93.76L86.7083 91.8056L87.1331 93.76ZM76.2131 92.96C72.6108 92.96 69.0469 92.5386 65.5183 91.6948L64.588 95.5852C68.4194 96.5014 72.2955 96.96 76.2131 96.96V92.96ZM65.5183 91.6948C62.0263 90.8598 58.8607 89.5752 56.0087 87.849L53.9375 91.271C57.1656 93.2248 60.7199 94.6602 64.588 95.5852L65.5183 91.6948ZM56.0411 87.869C53.2373 86.0982 50.8737 83.8113 48.9437 80.9906L45.6425 83.2494C47.8726 86.5087 50.629 89.1818 53.9051 91.251L56.0411 87.869ZM48.964 81.0208C47.1603 78.2793 45.9651 74.9007 45.4365 70.8229L41.4697 71.3371C42.0611 75.8993 43.4259 79.8807 45.6223 83.2192L48.964 81.0208ZM43.4531 73.08H58.3331V69.08H43.4531V73.08ZM56.4124 71.6376C57.2365 74.476 58.7354 76.8093 60.9405 78.535L63.4057 75.385C61.9308 74.2307 60.8698 72.644 60.2538 70.5224L56.4124 71.6376ZM60.9731 78.56C63.1004 80.1554 65.5215 81.3386 68.2155 82.1207L69.3307 78.2793C67.0648 77.6214 65.0859 76.6446 63.3731 75.36L60.9731 78.56ZM68.2734 82.1366C70.9165 82.8187 73.6045 83.16 76.3331 83.16V79.16C73.9418 79.16 71.5897 78.8613 69.2729 78.2634L68.2734 82.1366ZM76.3331 83.16C78.2897 83.16 80.2443 82.9898 82.1958 82.6504L81.5104 78.7096C79.7819 79.0102 78.0565 79.16 76.3331 79.16V83.16ZM82.1958 82.6504C84.2485 82.2934 86.1789 81.6213 87.977 80.6324L86.0493 77.1276C84.6473 77.8987 83.1378 78.4266 81.5104 78.7096L82.1958 82.6504ZM87.977 80.6324C89.8939 79.5781 91.4303 78.0854 92.5681 76.189L89.1381 74.131C88.356 75.4346 87.3323 76.4219 86.0493 77.1276L87.977 80.6324ZM92.5681 76.189C93.7715 74.1833 94.2931 71.713 94.2931 68.92H90.2931C90.2931 71.247 89.8547 72.9367 89.1381 74.131L92.5681 76.189ZM94.2931 68.92C94.2931 66.3577 93.8081 64.065 92.704 62.1579L89.2423 64.1621C89.8982 65.295 90.2931 66.8423 90.2931 68.92H94.2931ZM92.743 62.2285C91.7547 60.3507 90.3024 58.8985 88.4246 57.9102L86.5616 61.4498C87.7239 62.0615 88.5916 62.9292 89.2033 64.0915L92.743 62.2285ZM88.536 57.9734C86.8464 56.9409 84.9165 56.263 82.7819 55.9072L82.1243 59.8528C83.8298 60.137 85.2599 60.6591 86.4502 61.3866L88.536 57.9734ZM82.878 55.9256C80.8848 55.4923 78.7813 55.28 76.5731 55.28V59.28C78.525 59.28 80.3415 59.4677 82.0283 59.8344L82.878 55.9256ZM76.5731 55.28H67.2131V59.28H76.5731V55.28ZM69.2131 57.28V44.44H65.2131V57.28H69.2131ZM67.2131 46.44H73.3331V42.44H67.2131V46.44ZM73.3331 46.44C75.7894 46.44 78.0751 46.1861 80.1782 45.6603L79.2081 41.7797C77.4711 42.2139 75.5169 42.44 73.3331 42.44V46.44ZM80.1782 45.6603C82.2618 45.1394 84.1361 44.3887 85.776 43.3866L83.6902 39.9734C82.4501 40.7313 80.9644 41.3406 79.2081 41.7797L80.1782 45.6603ZM85.8425 43.3441C87.5497 42.206 88.8747 40.749 89.762 38.9744L86.1843 37.1856C85.6316 38.291 84.7966 39.234 83.6237 40.0159L85.8425 43.3441ZM89.7215 39.0513C90.7184 37.2568 91.1731 35.1875 91.1731 32.92H87.1731C87.1731 34.6525 86.8279 36.0232 86.2248 37.1087L89.7215 39.0513ZM91.1731 32.92C91.1731 29.7667 90.474 27.0245 88.8149 24.9506L85.6914 27.4494C86.5922 28.5755 87.1731 30.3133 87.1731 32.92H91.1731ZM88.8531 25C87.3769 23.0317 85.3677 21.6812 82.9213 20.9284L81.745 24.7516C83.4585 25.2788 84.7293 26.1683 85.6531 27.4L88.8531 25ZM82.9874 20.95C80.6721 20.1486 78.1679 19.76 75.4931 19.76V23.76C77.7784 23.76 79.8342 24.0914 81.6789 24.73L82.9874 20.95ZM75.4931 19.76C73.0344 19.76 70.6531 20.1559 68.3589 20.95L69.6674 24.73C71.5332 24.0841 73.4718 23.76 75.4931 23.76V19.76ZM68.4249 20.9284C66.0878 21.6476 64.0289 22.7843 62.2795 24.3495L64.9467 27.3305C66.2373 26.1757 67.7784 25.3124 69.6013 24.7516L68.4249 20.9284ZM62.2795 24.3495C60.42 26.0133 59.2484 28.1301 58.7691 30.6223L62.6971 31.3777C63.0179 29.7099 63.7662 28.3867 64.9467 27.3305L62.2795 24.3495ZM60.7331 29H46.0931V33H60.7331V29ZM48.0789 31.2383C48.5294 27.4838 49.6069 24.342 51.2585 21.7568L47.8877 19.6032C45.8594 22.778 44.6168 26.5162 44.1074 30.7617L48.0789 31.2383ZM51.2585 21.7568C52.9578 19.097 55.0488 16.9376 57.5337 15.2566L55.2925 11.9434C52.3375 13.9424 49.8684 16.503 47.8877 19.6032L51.2585 21.7568ZM57.5442 15.2495C60.1421 13.468 63.0453 12.1622 66.2688 11.3376L65.2775 7.46239C61.6209 8.39778 58.2841 9.89199 55.2821 11.9505L57.5442 15.2495ZM66.2688 11.3376C69.541 10.5005 72.9342 10.08 76.4531 10.08V6.08C72.612 6.08 68.8852 6.53947 65.2775 7.46239L66.2688 11.3376ZM76.4531 10.08C79.904 10.08 83.1842 10.4633 86.2992 11.223L87.247 7.33696C83.802 6.4967 80.2023 6.08 76.4531 6.08V10.08ZM86.3099 11.2256C89.4408 11.9711 92.1568 13.19 94.4859 14.864L96.8204 11.616C94.0295 9.61001 90.8254 8.18892 87.2364 7.33438L86.3099 11.2256ZM94.5201 14.8881C96.8005 16.4559 98.6278 18.5254 100.004 21.1335L103.542 19.2665C101.878 16.1146 99.6257 13.5441 96.7862 11.5919L94.5201 14.8881ZM100.004 21.1335C101.336 23.657 102.053 26.8374 102.053 30.76H106.053C106.053 26.3626 105.25 22.503 103.542 19.2665L100.004 21.1335ZM102.053 30.76C102.053 33.1733 101.652 35.4115 100.863 37.4907L104.603 38.9093C105.574 36.3485 106.053 33.6267 106.053 30.76H102.053ZM100.863 37.4907C100.076 39.5658 98.9381 41.3763 97.4464 42.939L100.34 45.701C102.208 43.7437 103.63 41.4741 104.603 38.9093L100.863 37.4907ZM97.4133 42.9746C95.9995 44.5298 94.2522 45.821 92.1436 46.8389L93.8826 50.4411C96.4141 49.219 98.5868 47.6302 100.373 45.6653L97.4133 42.9746ZM92.4828 50.5684C95.4135 51.3744 97.7981 52.6718 99.6943 54.4275L102.412 51.4925C99.9882 49.2482 97.0127 47.6656 93.5434 46.7116L92.4828 50.5684ZM99.7244 54.4548C101.643 56.16 103.059 58.2116 103.985 60.6343L107.721 59.2057C106.568 56.1884 104.784 53.6 102.382 51.4652L99.7244 54.4548ZM104.004 60.6815C105.013 63.1336 105.533 65.8712 105.533 68.92H109.533C109.533 65.4088 108.933 62.1464 107.702 59.1585L104.004 60.6815ZM105.533 68.92C105.533 73.7982 104.618 77.7194 102.907 80.7853L106.4 82.7347C108.528 78.9206 109.533 74.2818 109.533 68.92H105.533ZM102.899 80.7994C101.218 83.8692 98.9753 86.2472 96.1649 87.9767L98.2613 91.3833C101.691 89.2728 104.408 86.3708 106.407 82.7206L102.899 80.7994ZM96.1451 87.989C93.3118 89.7785 90.1711 91.0529 86.7083 91.8056L87.558 95.7144C91.4552 94.8671 95.0345 93.4215 98.2811 91.371L96.1451 87.989ZM86.7083 91.8056C83.1614 92.5767 79.6639 92.96 76.2131 92.96V96.96C79.9624 96.96 83.7448 96.5433 87.558 95.7144L86.7083 91.8056Z" fill="#DAA261" mask="url(#path-2-outside-1_4114_2512)"/>
</g>
<defs>
<clipPath id="clip0_4114_2512">
<rect width="128" height="97" fill="white"/>
</clipPath>
</defs>
</svg>
