<svg width="128" height="97" viewBox="0 0 128 97" fill="none" xmlns="http://www.w3.org/2000/svg">
<g clip-path="url(#clip0_4114_3705)">
<path d="M13.72 97.96C7.56 97.96 2.32 96.88 -2 94.72C-6.32 92.48 -9.8 89.36 -12.44 85.36C-15.08 81.36 -17.04 76.76 -18.32 71.56C-19.52 66.36 -20.12 60.76 -20.12 54.76C-20.12 48.68 -19.52 43 -18.32 37.72C-17.04 32.44 -15.08 27.84 -12.44 23.92C-9.72 19.92 -6.2 16.8 -1.88 14.56C2.44 12.24 7.68 11.08 13.84 11.08C20.16 11.08 25.48 12.28 29.8 14.68C34.2 17.08 37.68 20.32 40.24 24.4C42.88 28.48 44.76 33.12 45.88 38.32C47.08 43.52 47.68 48.96 47.68 54.64C47.68 60.24 47.08 65.64 45.88 70.84C44.76 76.04 42.88 80.68 40.24 84.76C37.6 88.84 34.08 92.08 29.68 94.48C25.36 96.8 20.04 97.96 13.72 97.96ZM13.72 84.28C17.8 84.28 21.08 83.32 23.56 81.4C26.12 79.48 28.04 77.04 29.32 74.08C30.6 71.04 31.44 67.8 31.84 64.36C32.32 60.92 32.56 57.68 32.56 54.64C32.56 51.6 32.36 48.4 31.96 45.04C31.56 41.6 30.72 38.36 29.44 35.32C28.16 32.28 26.28 29.8 23.8 27.88C21.32 25.96 18 25 13.84 25C9.68 25 6.32 25.96 3.76 27.88C1.28 29.8 -0.599999 32.28 -1.88 35.32C-3.16 38.28 -4.04 41.48 -4.52 44.92C-4.92 48.36 -5.12 51.6 -5.12 54.64C-5.12 57.68 -4.92 60.92 -4.52 64.36C-4.12 67.72 -3.32 70.92 -2.12 73.96C-0.839999 77 1.04 79.48 3.52 81.4C6.08 83.32 9.48 84.28 13.72 84.28ZM90.1731 97.96C86.4131 97.96 82.8531 97.52 79.4931 96.64C76.1331 95.68 73.0931 94.24 70.3731 92.32C67.6531 90.4 65.3731 87.96 63.5331 85C61.7731 81.96 60.5731 78.4 59.9331 74.32H74.6931C75.3331 76.08 76.3731 77.72 77.8131 79.24C79.3331 80.76 81.1331 81.96 83.2131 82.84C85.3731 83.72 87.6931 84.16 90.1731 84.16C93.5331 84.16 96.4131 83.6 98.8131 82.48C101.213 81.28 103.093 79.6 104.453 77.44C105.813 75.2 106.493 72.52 106.493 69.4C106.493 64.76 105.053 61.12 102.173 58.48C99.3731 55.84 95.5331 54.52 90.6531 54.52C87.7731 54.52 85.0931 55.04 82.6131 56.08C80.1331 57.04 77.8131 58.4 75.6531 60.16H62.3331L64.6131 12.16H118.733V25.84H78.4131L76.9731 46.12C79.3731 44.44 82.1331 43.2 85.2531 42.4C88.3731 41.52 91.7731 41.12 95.4531 41.2C100.893 41.28 105.573 42.48 109.493 44.8C113.493 47.04 116.533 50.16 118.613 54.16C120.693 58.16 121.733 62.88 121.733 68.32C121.733 74.64 120.333 80 117.533 84.4C114.813 88.8 111.053 92.16 106.253 94.48C101.533 96.8 96.1731 97.96 90.1731 97.96Z" fill="#F2ECE9"/>
<mask id="path-2-outside-1_4114_3705" maskUnits="userSpaceOnUse" x="-36" y="6" width="147" height="91" fill="black">
<rect fill="white" x="-36" y="6" width="147" height="91"/>
<path d="M0.720004 94.96C-5.44 94.96 -10.68 93.88 -15 91.72C-19.32 89.48 -22.8 86.36 -25.44 82.36C-28.08 78.36 -30.04 73.76 -31.32 68.56C-32.52 63.36 -33.12 57.76 -33.12 51.76C-33.12 45.68 -32.52 40 -31.32 34.72C-30.04 29.44 -28.08 24.84 -25.44 20.92C-22.72 16.92 -19.2 13.8 -14.88 11.56C-10.56 9.24 -5.32 8.08 0.840002 8.08C7.16 8.08 12.48 9.28 16.8 11.68C21.2 14.08 24.68 17.32 27.24 21.4C29.88 25.48 31.76 30.12 32.88 35.32C34.08 40.52 34.68 45.96 34.68 51.64C34.68 57.24 34.08 62.64 32.88 67.84C31.76 73.04 29.88 77.68 27.24 81.76C24.6 85.84 21.08 89.08 16.68 91.48C12.36 93.8 7.04 94.96 0.720004 94.96ZM0.720004 81.28C4.8 81.28 8.08 80.32 10.56 78.4C13.12 76.48 15.04 74.04 16.32 71.08C17.6 68.04 18.44 64.8 18.84 61.36C19.32 57.92 19.56 54.68 19.56 51.64C19.56 48.6 19.36 45.4 18.96 42.04C18.56 38.6 17.72 35.36 16.44 32.32C15.16 29.28 13.28 26.8 10.8 24.88C8.32 22.96 5 22 0.840002 22C-3.32 22 -6.68 22.96 -9.24 24.88C-11.72 26.8 -13.6 29.28 -14.88 32.32C-16.16 35.28 -17.04 38.48 -17.52 41.92C-17.92 45.36 -18.12 48.6 -18.12 51.64C-18.12 54.68 -17.92 57.92 -17.52 61.36C-17.12 64.72 -16.32 67.92 -15.12 70.96C-13.84 74 -11.96 76.48 -9.48 78.4C-6.92 80.32 -3.52 81.28 0.720004 81.28ZM77.1731 94.96C73.4131 94.96 69.8531 94.52 66.4931 93.64C63.1331 92.68 60.0931 91.24 57.3731 89.32C54.6531 87.4 52.3731 84.96 50.5331 82C48.7731 78.96 47.5731 75.4 46.9331 71.32H61.6931C62.3331 73.08 63.3731 74.72 64.8131 76.24C66.3331 77.76 68.1331 78.96 70.2131 79.84C72.3731 80.72 74.6931 81.16 77.1731 81.16C80.5331 81.16 83.4131 80.6 85.8131 79.48C88.2131 78.28 90.0931 76.6 91.4531 74.44C92.8131 72.2 93.4931 69.52 93.4931 66.4C93.4931 61.76 92.0531 58.12 89.1731 55.48C86.3731 52.84 82.5331 51.52 77.6531 51.52C74.7731 51.52 72.0931 52.04 69.6131 53.08C67.1331 54.04 64.8131 55.4 62.6531 57.16H49.3331L51.6131 9.16H105.733V22.84H65.4131L63.9731 43.12C66.3731 41.44 69.1331 40.2 72.2531 39.4C75.3731 38.52 78.7731 38.12 82.4531 38.2C87.8931 38.28 92.5731 39.48 96.4931 41.8C100.493 44.04 103.533 47.16 105.613 51.16C107.693 55.16 108.733 59.88 108.733 65.32C108.733 71.64 107.333 77 104.533 81.4C101.813 85.8 98.0531 89.16 93.2531 91.48C88.5331 93.8 83.1731 94.96 77.1731 94.96Z"/>
</mask>
<path d="M-15 91.72L-15.9206 93.4955L-15.9076 93.5023L-15.8944 93.5089L-15 91.72ZM-25.44 82.36L-27.1092 83.4617H-27.1092L-25.44 82.36ZM-31.32 68.56L-33.2688 69.0097L-33.2655 69.0239L-33.262 69.038L-31.32 68.56ZM-31.32 34.72L-33.2637 34.2488L-33.2671 34.2628L-33.2703 34.2768L-31.32 34.72ZM-25.44 20.92L-27.0939 19.7954L-27.0989 19.8028L-25.44 20.92ZM-14.88 11.56L-13.9594 13.3355L-13.9465 13.3288L-13.9337 13.322L-14.88 11.56ZM16.8 11.68L15.8287 13.4283L15.8355 13.4321L15.8423 13.4358L16.8 11.68ZM27.24 21.4L25.5459 22.463L25.5533 22.4748L25.5609 22.4865L27.24 21.4ZM32.88 35.32L30.9248 35.7411L30.9279 35.7554L30.9312 35.7697L32.88 35.32ZM32.88 67.84L30.9312 67.3903L30.9279 67.4046L30.9248 67.4189L32.88 67.84ZM27.24 81.76L28.9191 82.8465L27.24 81.76ZM16.68 91.48L17.6263 93.242L17.6377 93.2358L16.68 91.48ZM10.56 78.4L9.36 76.8L9.34776 76.8092L9.33566 76.8186L10.56 78.4ZM16.32 71.08L18.1557 71.8738L18.1595 71.865L18.1633 71.8561L16.32 71.08ZM18.84 61.36L16.8592 61.0836L16.856 61.1063L16.8534 61.129L18.84 61.36ZM18.96 42.04L16.9734 42.271L16.974 42.2764L18.96 42.04ZM16.44 32.32L14.5967 33.0961L16.44 32.32ZM10.8 24.88L12.0243 23.2985L10.8 24.88ZM-9.24 24.88L-10.44 23.28L-10.4522 23.2892L-10.4643 23.2985L-9.24 24.88ZM-14.88 32.32L-13.0443 33.1138L-13.0405 33.105L-13.0367 33.0961L-14.88 32.32ZM-17.52 41.92L-19.5008 41.6436L-19.504 41.6663L-19.5066 41.689L-17.52 41.92ZM-17.52 61.36L-19.5066 61.591L-19.506 61.5964L-17.52 61.36ZM-15.12 70.96L-16.9803 71.6943L-16.972 71.7153L-16.9633 71.7361L-15.12 70.96ZM-9.48 78.4L-10.7043 79.9814L-10.6922 79.9908L-10.68 80L-9.48 78.4ZM0.720005 92.96C-5.21249 92.96 -10.129 91.9194 -14.1056 89.9311L-15.8944 93.5089C-11.231 95.8406 -5.6675 96.96 0.720005 96.96V92.96ZM-14.0794 89.9445C-18.1013 87.859 -21.3217 84.969 -23.7708 81.2583L-27.1092 83.4617C-24.2783 87.751 -20.5387 91.101 -15.9206 93.4955L-14.0794 89.9445ZM-23.7708 81.2583C-26.271 77.4701 -28.1462 73.0859 -29.378 68.082L-33.262 69.038C-31.9338 74.4341 -29.889 79.2499 -27.1092 83.4617L-23.7708 81.2583ZM-29.3712 68.1103C-30.5333 63.0747 -31.12 57.627 -31.12 51.76H-35.12C-35.12 57.893 -34.5067 63.6453 -33.2688 69.0097L-29.3712 68.1103ZM-31.12 51.76C-31.12 45.8112 -30.5329 40.2813 -29.3697 35.1632L-33.2703 34.2768C-34.5071 39.7187 -35.12 45.5488 -35.12 51.76H-31.12ZM-29.3763 35.1912C-28.1439 30.1077 -26.2704 25.7334 -23.7811 22.0372L-27.0989 19.8028C-29.8896 23.9466 -31.9361 28.7723 -33.2637 34.2488L-29.3763 35.1912ZM-23.7861 22.0446C-21.2539 18.3208 -17.9866 15.4237 -13.9594 13.3355L-15.8006 9.78448C-20.4134 12.1763 -24.1861 15.5192 -27.0939 19.7954L-23.7861 22.0446ZM-13.9337 13.322C-9.96992 11.1933 -5.07274 10.08 0.840004 10.08V6.08C-5.56725 6.08 -11.1501 7.28673 -15.8263 9.79801L-13.9337 13.322ZM0.840004 10.08C6.91276 10.08 11.8775 11.2332 15.8287 13.4283L17.7713 9.93168C13.0825 7.32681 7.40725 6.08 0.840004 6.08V10.08ZM15.8423 13.4358C19.9542 15.6787 23.1755 18.6852 25.5459 22.463L28.9341 20.337C26.1845 15.9548 22.4458 12.4813 17.7577 9.9242L15.8423 13.4358ZM25.5609 22.4865C28.0574 26.3448 29.851 30.7554 30.9248 35.7411L34.8352 34.8989C33.669 29.4846 31.7026 24.6151 28.9191 20.3135L25.5609 22.4865ZM30.9312 35.7697C32.0951 40.8131 32.68 46.1017 32.68 51.64H36.68C36.68 45.8183 36.0649 40.2269 34.8288 34.8703L30.9312 35.7697ZM32.68 51.64C32.68 57.0961 32.0956 62.3448 30.9312 67.3903L34.8288 68.2897C36.0645 62.9351 36.68 57.3839 36.68 51.64H32.68ZM30.9248 67.4189C29.851 72.4046 28.0574 76.8151 25.5609 80.6735L28.9191 82.8465C31.7026 78.5448 33.669 73.6754 34.8352 68.2611L30.9248 67.4189ZM25.5609 80.6735C23.1077 84.4648 19.8394 87.4785 15.7223 89.7242L17.6377 93.2358C22.3206 90.6815 26.0924 87.2152 28.9191 82.8465L25.5609 80.6735ZM15.7337 89.718C11.7767 91.8431 6.80252 92.96 0.720005 92.96V96.96C7.27748 96.96 12.9433 95.7569 17.6263 93.242L15.7337 89.718ZM0.720005 83.28C5.10915 83.28 8.86087 82.2448 11.7843 79.9814L9.33566 76.8186C7.29913 78.3952 4.49086 79.28 0.720005 79.28V83.28ZM11.76 80C14.6007 77.8695 16.7387 75.1507 18.1557 71.8738L14.4843 70.2862C13.3413 72.9293 11.6393 75.0905 9.36 76.8L11.76 80ZM18.1633 71.8561C19.5201 68.6336 20.4059 65.2092 20.8266 61.591L16.8534 61.129C16.4741 64.3908 15.6799 67.4464 14.4767 70.3039L18.1633 71.8561ZM20.8208 61.6364C21.3118 58.1174 21.56 54.7844 21.56 51.64H17.56C17.56 54.5756 17.3282 57.7225 16.8592 61.0836L20.8208 61.6364ZM21.56 51.64C21.56 48.5127 21.3543 45.2334 20.946 41.8036L16.974 42.2764C17.3657 45.5666 17.56 48.6873 17.56 51.64H21.56ZM20.9466 41.809C20.5259 38.1908 19.6401 34.7664 18.2833 31.5439L14.5967 33.0961C15.7999 35.9536 16.5941 39.0092 16.9734 42.271L20.9466 41.809ZM18.2833 31.5439C16.8769 28.2037 14.7908 25.4403 12.0243 23.2985L9.57566 26.4614C11.7692 28.1597 13.4431 30.3563 14.5967 33.0961L18.2833 31.5439ZM12.0243 23.2985C9.09462 21.0304 5.29875 20 0.840004 20V24C4.70125 24 7.54539 24.8896 9.57566 26.4614L12.0243 23.2985ZM0.840004 20C-3.62268 20 -7.4425 21.0319 -10.44 23.28L-8.04 26.48C-5.9175 24.8881 -3.01731 24 0.840004 24V20ZM-10.4643 23.2985C-13.2308 25.4403 -15.3169 28.2037 -16.7233 31.5439L-13.0367 33.0961C-11.8831 30.3563 -10.2092 28.1597 -8.01565 26.4614L-10.4643 23.2985ZM-16.7157 31.5262C-18.0724 34.6635 -18.9978 38.039 -19.5008 41.6436L-15.5392 42.1964C-15.0822 38.921 -14.2476 35.8965 -13.0443 33.1138L-16.7157 31.5262ZM-19.5066 41.689C-19.9143 45.1953 -20.12 48.5131 -20.12 51.64H-16.12C-16.12 48.6869 -15.9257 45.5247 -15.5334 42.151L-19.5066 41.689ZM-20.12 51.64C-20.12 54.7669 -19.9143 58.0846 -19.5066 61.591L-15.5334 61.129C-15.9257 57.7553 -16.12 54.5931 -16.12 51.64H-20.12ZM-19.506 61.5964C-19.0864 65.1211 -18.2456 68.4889 -16.9803 71.6943L-13.2597 70.2257C-14.3944 67.3511 -15.1536 64.3189 -15.534 61.1236L-19.506 61.5964ZM-16.9633 71.7361C-15.5569 75.0763 -13.4708 77.8397 -10.7043 79.9814L-8.25565 76.8186C-10.4492 75.1203 -12.1231 72.9237 -13.2767 70.1839L-16.9633 71.7361ZM-10.68 80C-7.67645 82.2527 -3.81277 83.28 0.720005 83.28V79.28C-3.22723 79.28 -6.16354 78.3873 -8.28 76.8L-10.68 80ZM66.4931 93.64L65.9437 95.563L65.965 95.5691L65.9864 95.5747L66.4931 93.64ZM57.3731 89.32L56.2198 90.9539L57.3731 89.32ZM50.5331 82L48.8023 83.0021L48.818 83.0292L48.8346 83.0559L50.5331 82ZM46.9331 71.32V69.32H44.5949L44.9573 71.6299L46.9331 71.32ZM61.6931 71.32L63.5727 70.6365L63.094 69.32H61.6931V71.32ZM64.8131 76.24L63.3612 77.6155L63.3798 77.6351L63.3989 77.6542L64.8131 76.24ZM70.2131 79.84L69.4338 81.6819L69.4462 81.6871L69.4585 81.6922L70.2131 79.84ZM85.8131 79.48L86.6589 81.2924L86.6834 81.2809L86.7076 81.2689L85.8131 79.48ZM91.4531 74.44L93.1456 75.5056L93.1543 75.4919L93.1627 75.478L91.4531 74.44ZM89.1731 55.48L87.8011 56.9352L87.8113 56.9448L87.8217 56.9543L89.1731 55.48ZM69.6131 53.08L70.3351 54.9451L70.361 54.9351L70.3866 54.9244L69.6131 53.08ZM62.6531 57.16V59.16H63.3648L63.9165 58.7105L62.6531 57.16ZM49.3331 57.16L47.3354 57.0651L47.2359 59.16H49.3331V57.16ZM51.6131 9.16V7.16H49.7059L49.6154 9.06511L51.6131 9.16ZM105.733 9.16H107.733V7.16H105.733V9.16ZM105.733 22.84V24.84H107.733V22.84H105.733ZM65.4131 22.84V20.84H63.5501L63.4182 22.6983L65.4131 22.84ZM63.9731 43.12L61.9781 42.9783L61.6808 47.1659L65.12 44.7585L63.9731 43.12ZM72.2531 39.4L72.7499 41.3373L72.773 41.3314L72.7961 41.3249L72.2531 39.4ZM82.4531 38.2L82.4097 40.1996L82.4237 40.1998L82.4531 38.2ZM96.4931 41.8L95.4745 43.5211L95.4951 43.5333L95.5159 43.545L96.4931 41.8ZM105.613 51.16L107.388 50.2373L105.613 51.16ZM104.533 81.4L102.846 80.3262L102.839 80.3373L102.832 80.3484L104.533 81.4ZM93.2531 91.48L92.3828 89.6793L92.3709 89.6851L93.2531 91.48ZM77.1731 92.96C73.5701 92.96 70.1814 92.5385 66.9998 91.7053L65.9864 95.5747C69.5248 96.5015 73.2561 96.96 77.1731 96.96V92.96ZM67.0426 91.7169C63.8879 90.8156 61.0539 89.4701 58.5265 87.6861L56.2198 90.9539C59.1324 93.0099 62.3784 94.5444 65.9437 95.563L67.0426 91.7169ZM58.5265 87.6861C56.0352 85.9275 53.9372 83.6878 52.2317 80.9441L48.8346 83.0559C50.8091 86.2322 53.271 88.8725 56.2198 90.9539L58.5265 87.6861ZM52.264 80.9979C50.6473 78.2055 49.5173 74.8882 48.909 71.0101L44.9573 71.6299C45.6289 75.9118 46.8989 79.7145 48.8023 83.0021L52.264 80.9979ZM46.9331 73.32H61.6931V69.32H46.9331V73.32ZM59.8135 72.0035C60.5577 74.0498 61.755 75.9201 63.3612 77.6155L66.265 74.8645C64.9912 73.5199 64.1086 72.1102 63.5727 70.6365L59.8135 72.0035ZM63.3989 77.6542C65.1102 79.3655 67.1288 80.7067 69.4338 81.6819L70.9924 77.9981C69.1374 77.2133 67.5561 76.1545 66.2273 74.8258L63.3989 77.6542ZM69.4585 81.6922C71.873 82.6759 74.451 83.16 77.1731 83.16V79.16C74.9353 79.16 72.8732 78.7641 70.9677 77.9878L69.4585 81.6922ZM77.1731 83.16C80.7494 83.16 83.9329 82.5645 86.6589 81.2924L84.9674 77.6676C82.8933 78.6355 80.3169 79.16 77.1731 79.16V83.16ZM86.7076 81.2689C89.4172 79.914 91.5805 77.9913 93.1456 75.5056L89.7607 73.3744C88.6057 75.2087 87.0091 76.646 84.9187 77.6911L86.7076 81.2689ZM93.1627 75.478C94.7461 72.87 95.4931 69.8157 95.4931 66.4H91.4931C91.4931 69.2243 90.8801 71.53 89.7435 73.402L93.1627 75.478ZM95.4931 66.4C95.4931 61.3139 93.8953 57.0956 90.5246 54.0057L87.8217 56.9543C90.2109 59.1444 91.4931 62.2061 91.4931 66.4H95.4931ZM90.5452 54.0248C87.2819 50.9481 82.9007 49.52 77.6531 49.52V53.52C82.1655 53.52 85.4643 54.7319 87.8011 56.9352L90.5452 54.0248ZM77.6531 49.52C74.5266 49.52 71.5816 50.0858 68.8397 51.2356L70.3866 54.9244C72.6047 53.9942 75.0197 53.52 77.6531 53.52V49.52ZM68.8911 51.2149C66.2061 52.2542 63.7048 53.7232 61.3898 55.6095L63.9165 58.7105C65.9215 57.0768 68.0602 55.8258 70.3351 54.9451L68.8911 51.2149ZM62.6531 55.16H49.3331V59.16H62.6531V55.16ZM51.3309 57.2549L53.6109 9.25489L49.6154 9.06511L47.3354 57.0651L51.3309 57.2549ZM51.6131 11.16H105.733V7.16H51.6131V11.16ZM103.733 9.16V22.84H107.733V9.16H103.733ZM105.733 20.84H65.4131V24.84H105.733V20.84ZM63.4182 22.6983L61.9781 42.9783L65.9681 43.2617L67.4081 22.9816L63.4182 22.6983ZM65.12 44.7585C67.3044 43.2294 69.8397 42.0835 72.7499 41.3373L71.7564 37.4627C68.4266 38.3165 65.4419 39.6506 62.8262 41.4815L65.12 44.7585ZM72.7961 41.3249C75.7015 40.5054 78.9014 40.1233 82.4097 40.1995L82.4966 36.2005C78.6449 36.1167 75.0447 36.5346 71.7102 37.4751L72.7961 41.3249ZM82.4237 40.1998C87.5832 40.2757 91.9078 41.4102 95.4745 43.5211L97.5118 40.0788C93.2385 37.5498 88.2031 36.2843 82.4825 36.2002L82.4237 40.1998ZM95.5159 43.545C99.1818 45.5979 101.942 48.4348 103.839 52.0827L107.388 50.2373C105.124 45.8852 101.804 42.4821 97.4703 40.055L95.5159 43.545ZM103.839 52.0827C105.743 55.7446 106.733 60.1355 106.733 65.32H110.733C110.733 59.6245 109.643 54.5754 107.388 50.2373L103.839 52.0827ZM106.733 65.32C106.733 71.3408 105.402 76.3093 102.846 80.3262L106.22 82.4737C109.264 77.6907 110.733 71.9392 110.733 65.32H106.733ZM102.832 80.3484C100.318 84.4144 96.8513 87.5195 92.3828 89.6793L94.1235 93.2807C99.255 90.8005 103.308 87.1856 106.234 82.4516L102.832 80.3484ZM92.3709 89.6851C87.9617 91.8523 82.9105 92.96 77.1731 92.96V96.96C83.4358 96.96 89.1045 95.7477 94.1354 93.2749L92.3709 89.6851Z" fill="#DAA261" mask="url(#path-2-outside-1_4114_3705)"/>
</g>
<defs>
<clipPath id="clip0_4114_3705">
<rect width="128" height="97" fill="white"/>
</clipPath>
</defs>
</svg>
