<svg width="803" height="3084" viewBox="0 0 803 3084" fill="none" xmlns="http://www.w3.org/2000/svg">
<path fill-rule="evenodd" clip-rule="evenodd" d="M394.405 1.0006C394.405 0.447982 393.957 0 393.405 0C392.854 0 392.406 0.447982 392.406 1.0006V130.579H385.18C382.973 130.579 381.183 132.371 381.183 134.582V209.301C381.183 212.107 382.625 214.575 384.807 216.005C382.246 217.339 380.496 220.02 380.496 223.111V367.45H373.185C370.978 367.45 369.188 369.242 369.188 371.452V575.379H362.791C358.376 575.379 354.796 578.963 354.796 583.384V705.077H349.427C345.012 705.077 341.433 708.661 341.433 713.082V880.066H311.765C307.35 880.066 303.771 883.65 303.771 888.071V927.647C303.771 930.64 305.412 933.249 307.842 934.622C305.412 935.996 303.771 938.605 303.771 941.598V1263.21C303.771 1265.59 304.805 1267.72 306.447 1269.19C302.347 1269.53 299.127 1272.97 299.127 1277.17V1314.68C299.127 1317.68 300.768 1320.29 303.197 1321.66C300.769 1323.03 299.129 1325.64 299.129 1328.63V1446.22H270.272C265.857 1446.22 262.278 1449.8 262.278 1454.22V1771.72C262.278 1774.27 263.471 1776.54 265.328 1778.01C262.049 1779 259.662 1782.06 259.662 1785.67V1827.13C259.662 1830.54 261.79 1833.45 264.79 1834.6C262.654 1836.04 261.249 1838.48 261.249 1841.25V1947.51H228.123C223.708 1947.51 220.129 1951.09 220.129 1955.51V2253.45C220.129 2256.7 222.06 2259.5 224.835 2260.75C222.096 2262.02 220.195 2264.8 220.195 2268.02V2307.8C220.195 2310.61 221.64 2313.08 223.827 2314.51C220.399 2315.41 217.871 2318.54 217.871 2322.25V2400.42H179.808C175.393 2400.42 171.814 2404 171.814 2408.42V2638.43C171.814 2641.65 173.71 2644.42 176.446 2645.69C173.512 2646.88 171.443 2649.76 171.443 2653.12V2692.9C171.443 2696.09 173.3 2698.84 175.988 2700.13C173.3 2701.42 171.443 2704.17 171.443 2707.35V2859.51H135.605C131.19 2859.51 127.61 2863.09 127.61 2867.52V2892.45H95.5127C91.0977 2892.45 87.5186 2896.03 87.5186 2900.46V2950.09H2.99418C-1.42088 2950.09 -5 2953.68 -5 2958.1V3052H803V2958.1C803 2953.68 799.421 2950.09 795.006 2950.09H710.481V2900.46C710.481 2896.03 706.902 2892.45 702.487 2892.45H670.39V2867.52C670.39 2863.09 666.81 2859.51 662.395 2859.51H626.477V2707.35C626.477 2704.17 624.62 2701.42 621.932 2700.13C624.62 2698.84 626.477 2696.09 626.477 2692.9V2653.12C626.477 2649.93 624.617 2647.18 621.924 2645.89C624.615 2644.6 626.473 2641.85 626.473 2638.67V2519.85C626.473 2515.43 622.894 2511.84 618.479 2511.84H577.718V2322.25C577.718 2319.44 576.273 2316.97 574.086 2315.54C577.514 2314.64 580.042 2311.52 580.042 2307.8V2268.02C580.042 2264.3 577.504 2261.17 574.065 2260.27C576.348 2258.86 577.87 2256.34 577.87 2253.45V2097.56C577.87 2093.14 574.29 2089.56 569.875 2089.56H536.75V1841.25C536.75 1838.47 535.331 1836.02 533.178 1834.58C536.149 1833.41 538.253 1830.52 538.253 1827.13V1785.67C538.253 1782.57 536.501 1779.89 533.937 1778.56C536.241 1777.15 537.779 1774.61 537.779 1771.72V1611.71C537.779 1607.29 534.2 1603.71 529.785 1603.71H498.787V1328.63C498.787 1325.64 497.147 1323.03 494.717 1321.66C497.146 1320.28 498.785 1317.68 498.785 1314.68V1277.17C498.785 1273.68 496.563 1270.72 493.462 1269.62C495.404 1268.16 496.66 1265.83 496.66 1263.22V1090.57C496.66 1086.15 493.081 1082.57 488.665 1082.57H463.962V941.598C463.962 938.065 461.676 935.066 458.504 934.004C460.411 932.541 461.64 930.238 461.64 927.647V888.071C461.64 885.093 460.016 882.494 457.605 881.116C460.053 879.747 461.708 877.128 461.708 874.121V823.223C461.708 818.802 458.129 815.218 453.714 815.218H445.261V748.081C445.261 745.087 443.62 742.478 441.19 741.104C443.619 739.731 445.26 737.122 445.26 734.129V634.851C445.26 631.488 443.189 628.61 440.255 627.424C440.813 626.736 441.147 625.859 441.147 624.903V488.798C441.147 486.588 439.358 484.796 437.15 484.796H426.756V323.073C426.756 320.862 424.966 319.07 422.758 319.07H417.504V223.111C417.504 219.593 415.239 216.606 412.09 215.532C412.517 214.895 412.766 214.128 412.766 213.303V161.11C412.766 158.899 410.976 157.107 408.769 157.107H405.634V134.582C405.634 132.371 403.845 130.579 401.637 130.579H394.405V1.0006ZM385.18 132.58H401.637C402.741 132.58 403.636 133.476 403.636 134.582V157.107H391.293C389.085 157.107 387.296 158.899 387.296 161.11V213.303C387.296 213.961 387.454 214.582 387.735 215.13C385.12 214.483 383.182 212.119 383.182 209.301V134.582C383.182 133.476 384.076 132.58 385.18 132.58ZM391.293 159.108H403.636V215.106H390.424C389.755 214.782 389.294 214.097 389.294 213.303V161.11C389.294 160.004 390.189 159.108 391.293 159.108ZM409.51 215.106C409.552 215.106 409.594 215.106 409.636 215.107C410.306 214.783 410.767 214.097 410.767 213.303V161.11C410.767 160.004 409.873 159.108 408.769 159.108H405.634V215.106H409.51ZM389.177 217.306L408.769 217.306C409.185 217.306 409.586 217.242 409.963 217.124C413.063 217.356 415.506 219.948 415.506 223.111V319.07H410.193C407.985 319.07 406.196 320.862 406.196 323.073V367.45H382.495V223.111C382.495 220.075 384.745 217.565 387.667 217.163C388.156 217.257 388.661 217.306 389.177 217.306ZM380.496 369.509V369.451H373.185C372.081 369.451 371.187 370.347 371.187 371.452V575.379H406.196V369.509H380.496ZM422.758 321.072H417.504V361.504C417.504 365.925 413.925 369.509 409.51 369.509H408.252L408.252 485.299C408.827 484.978 409.488 484.796 410.193 484.796H424.757V323.073C424.757 321.967 423.862 321.072 422.758 321.072ZM415.506 361.504V321.072H410.193C409.089 321.072 408.194 321.967 408.194 323.073V367.45H408.252V367.507H409.51C412.821 367.507 415.506 364.819 415.506 361.504ZM426.756 486.797H437.15C438.254 486.797 439.149 487.693 439.149 488.798V624.903C439.149 625.853 438.487 626.648 437.601 626.853C437.489 626.848 437.378 626.846 437.266 626.846H408.252V577.438H418.761C423.176 577.438 426.756 573.854 426.756 569.433V486.797ZM424.757 486.797V569.433C424.757 572.748 422.073 575.436 418.761 575.436H408.252L408.252 488.32C408.466 487.446 409.254 486.797 410.193 486.797H424.757ZM406.196 577.438V626.846H386.435C382.019 626.846 378.44 630.43 378.44 634.851V705.077H356.795V583.384C356.795 580.068 359.479 577.38 362.791 577.38H369.188V577.438H406.196ZM437.15 628.905H408.252V705.077H418.762C423.177 705.077 426.756 708.661 426.756 713.082V740.076H437.267C437.477 740.076 437.685 740.084 437.892 740.1C440.909 739.786 443.261 737.233 443.261 734.129V634.851C443.261 631.689 440.82 629.098 437.723 628.864C437.536 628.891 437.345 628.905 437.15 628.905ZM406.196 628.905V628.847H386.435C383.123 628.847 380.439 631.535 380.439 634.851V705.077H406.253V628.905H406.196ZM354.796 707.136H378.44V740.076H377.184C372.769 740.076 369.189 743.66 369.189 748.081V880.066H343.432V713.082C343.432 709.766 346.116 707.079 349.427 707.079H354.796V707.136ZM380.439 707.136V740.076H424.758V713.082C424.758 709.766 422.074 707.079 418.762 707.079H408.252V707.136H380.439ZM377.184 742.077H378.44V742.133H424.758V822.261C424.72 822.577 424.701 822.898 424.701 823.223V880.066H371.188V748.081C371.188 744.765 373.872 742.077 377.184 742.077ZM426.756 817.864V742.133H437.266C437.307 742.133 437.349 742.133 437.391 742.133C437.48 742.131 437.568 742.128 437.656 742.124C437.699 742.122 437.742 742.12 437.785 742.117C437.821 742.115 437.857 742.112 437.892 742.109C440.909 742.422 443.262 744.976 443.262 748.081V815.218H432.695C430.338 815.218 428.22 816.24 426.756 817.864ZM389.351 882.126C390.973 883.591 391.992 885.712 391.992 888.071V927.647C391.992 930.007 390.972 932.128 389.349 933.593H454.476C457.395 933.188 459.642 930.68 459.642 927.647V888.071C459.642 884.981 457.309 882.435 454.311 882.104C454.114 882.119 453.915 882.126 453.714 882.126L389.351 882.126ZM384.839 882.126H380.572C377.659 882.536 375.418 885.042 375.418 888.071V927.647C375.418 930.68 377.665 933.188 380.583 933.593H384.828C387.746 933.188 389.993 930.68 389.993 927.647V888.071C389.993 885.042 387.752 882.536 384.839 882.126ZM376.06 882.126L341.433 882.126V882.068H311.765C308.454 882.068 305.77 884.755 305.77 888.071V927.647C305.77 930.75 308.121 933.303 311.137 933.618C311.184 933.614 311.231 933.611 311.278 933.608C311.326 933.605 311.374 933.603 311.422 933.601C311.536 933.596 311.65 933.593 311.766 933.593H376.062C374.44 932.128 373.42 930.007 373.42 927.647V888.071C373.42 885.712 374.439 883.591 376.06 882.126ZM445.261 817.219V880.066H453.646C453.873 880.066 454.098 880.076 454.321 880.095C457.347 879.79 459.71 877.232 459.71 874.121V823.223C459.71 819.907 457.026 817.219 453.714 817.219H445.261ZM443.262 880.066V817.219H432.695C429.666 817.219 427.161 819.469 426.756 822.391V880.066H443.262ZM453.646 935.651C453.84 935.651 454.032 935.644 454.223 935.631C454.351 935.622 454.479 935.609 454.606 935.594H455.968C459.279 935.594 461.964 938.282 461.964 941.598V1082.57H402.883C400.354 1082.57 398.1 1083.75 396.635 1085.58V941.598C396.635 939.238 395.615 937.116 393.993 935.651H453.646ZM389.47 935.651C392.389 936.056 394.637 938.564 394.637 941.598V1263.21C394.637 1266.25 392.384 1268.76 389.461 1269.16H375.953C373.029 1268.76 370.775 1266.25 370.775 1263.21V941.598C370.775 938.564 373.022 936.056 375.941 935.651H389.47ZM311.765 935.651C311.554 935.651 311.345 935.643 311.137 935.627C308.121 935.941 305.77 938.495 305.77 941.598V1263.21C305.77 1266.25 308.021 1268.76 310.944 1269.16H371.421C369.797 1267.7 368.777 1265.58 368.777 1263.21V941.598C368.777 939.238 369.797 937.116 371.419 935.651H311.765ZM402.883 1084.57C399.572 1084.57 396.887 1087.26 396.887 1090.57V1263.22C396.887 1266.25 399.137 1268.76 402.058 1269.16H423.139L423.202 1269.16H456.788C459.711 1268.76 461.964 1266.25 461.964 1263.21V1084.57H402.883ZM489.492 1269.16H461.318C462.942 1267.7 463.962 1265.58 463.962 1263.21V1084.57H488.665C491.977 1084.57 494.661 1087.26 494.661 1090.57V1263.22C494.661 1266.25 492.412 1268.76 489.492 1269.16ZM397.532 1269.16C396.811 1268.51 396.208 1267.73 395.762 1266.86C395.315 1267.73 394.713 1268.51 393.991 1269.16H397.532ZM438.1 1271.22H488.665L488.728 1271.22L488.789 1271.22C488.82 1271.22 488.852 1271.22 488.883 1271.22C489.004 1271.21 489.124 1271.21 489.244 1271.2C489.37 1271.19 489.496 1271.18 489.621 1271.16H490.791C494.102 1271.16 496.787 1273.85 496.787 1277.17V1314.68C496.787 1317.78 494.44 1320.34 491.428 1320.65C491.342 1320.65 491.255 1320.64 491.168 1320.64C491.044 1320.63 490.919 1320.63 490.793 1320.63H438.103C439.724 1319.16 440.743 1317.04 440.743 1314.68V1277.17C440.743 1274.81 439.723 1272.69 438.1 1271.22ZM433.574 1271.22C436.495 1271.62 438.745 1274.13 438.745 1277.17V1314.68C438.745 1317.71 436.503 1320.22 433.59 1320.63H422.362C419.449 1320.22 417.206 1317.71 417.206 1314.68V1277.17C417.206 1274.13 419.455 1271.62 422.376 1271.22H433.574ZM402.765 1271.22C402.804 1271.22 402.843 1271.22 402.883 1271.22H417.851C416.228 1272.69 415.208 1274.81 415.208 1277.17V1314.68C415.208 1317.04 416.227 1319.16 417.849 1320.63H405.923V1320.64H391.993V1320.63H380.064C381.685 1319.16 382.705 1317.04 382.705 1314.68V1277.17C382.705 1274.81 381.684 1272.68 380.061 1271.22H388.641L388.704 1271.22H402.765ZM310.816 1271.16H307.121C303.81 1271.16 301.126 1273.85 301.126 1277.17V1314.68C301.126 1317.78 303.473 1320.34 306.486 1320.65C306.696 1320.64 306.909 1320.63 307.123 1320.63H359.807C358.185 1319.16 357.166 1317.04 357.166 1314.68V1277.17C357.166 1274.81 358.187 1272.68 359.81 1271.22H311.766C311.444 1271.22 311.127 1271.2 310.816 1271.16ZM364.34 1271.22C361.417 1271.62 359.165 1274.13 359.165 1277.17V1314.68C359.165 1317.71 361.406 1320.22 364.319 1320.63H375.55C378.464 1320.22 380.706 1317.71 380.706 1314.68V1277.17C380.706 1274.13 378.455 1271.62 375.532 1271.22H364.34ZM490.791 1322.69H445.26V1606.35C446.724 1604.73 448.842 1603.71 451.198 1603.71H496.789V1328.63C496.789 1325.53 494.441 1322.98 491.428 1322.66C491.218 1322.68 491.006 1322.69 490.791 1322.69ZM443.262 1610.74V1322.69H432.812L432.749 1322.69H407.922V1777.66H443.204V1611.71C443.204 1611.38 443.224 1611.06 443.262 1610.74ZM391.993 1322.69H405.923V1777.66H391.993V1322.69ZM365.097 1322.69L365.16 1322.69H389.994V1777.66H354.797V1454.22C354.797 1453.9 354.778 1453.58 354.74 1453.26V1322.69H365.097ZM307.121 1322.69C306.908 1322.69 306.696 1322.68 306.486 1322.66C303.474 1322.98 301.128 1325.53 301.128 1328.63V1446.22H346.803C349.16 1446.22 351.278 1447.24 352.741 1448.87V1322.69H307.121ZM354.797 1779.72H342.919C344.541 1781.19 345.561 1783.31 345.561 1785.67V1827.13C345.561 1829.52 344.514 1831.66 342.854 1833.13H392.378C390.718 1831.66 389.671 1829.52 389.671 1827.13V1785.67C389.671 1783.31 390.692 1781.18 392.315 1779.72H354.797V1779.72ZM338.399 1779.72H331.829C328.911 1780.13 326.666 1782.63 326.666 1785.67V1827.13C326.666 1830.44 329.35 1833.13 332.661 1833.13H337.567C340.878 1833.13 343.562 1830.44 343.562 1827.13V1785.67C343.562 1782.63 341.316 1780.13 338.399 1779.72ZM270.272 1779.72C269.947 1779.72 269.625 1779.7 269.31 1779.66H267.656C264.345 1779.66 261.66 1782.35 261.66 1785.67V1827.13C261.66 1830.44 264.345 1833.13 267.656 1833.13H327.373C325.714 1831.66 324.667 1829.52 324.667 1827.13V1785.67C324.667 1783.31 325.687 1781.19 327.309 1779.72H270.272ZM470.607 1779.72H529.785C530.074 1779.72 530.36 1779.71 530.642 1779.68C533.774 1779.87 536.254 1782.48 536.254 1785.67V1827.13C536.254 1830.44 533.57 1833.13 530.259 1833.13H470.542C472.202 1831.66 473.249 1829.52 473.249 1827.13V1785.67C473.249 1783.31 472.229 1781.19 470.607 1779.72ZM459.514 1779.72H466.088C469.005 1780.13 471.25 1782.63 471.25 1785.67V1827.13C471.25 1830.44 468.566 1833.13 465.255 1833.13H460.348C457.036 1833.13 454.352 1830.44 454.352 1827.13V1785.67C454.352 1782.63 456.598 1780.13 459.514 1779.72ZM443.204 1779.72V1779.72H454.996C453.373 1781.19 452.354 1783.31 452.354 1785.67V1827.13C452.354 1829.52 453.4 1831.66 455.06 1833.13H407.86C409.519 1831.66 410.566 1829.52 410.566 1827.13V1785.67C410.566 1783.31 409.546 1781.18 407.923 1779.72H443.204ZM530.573 1777.67C533.512 1777.28 535.78 1774.76 535.78 1771.72V1611.71C535.78 1608.4 533.096 1605.71 529.785 1605.71H498.787V1777.66H530.259C530.364 1777.66 530.469 1777.66 530.573 1777.67ZM496.789 1605.71V1777.66H445.26V1610.87C445.668 1607.95 448.171 1605.71 451.198 1605.71H496.789ZM346.803 1448.22C349.832 1448.22 352.337 1450.47 352.741 1453.39V1777.66H301.128V1448.22H346.803ZM299.129 1777.66V1448.22H270.272C266.961 1448.22 264.277 1450.91 264.277 1454.22V1771.72C264.277 1774.75 266.522 1777.26 269.44 1777.66H299.129ZM403.396 1779.72H396.841C393.92 1780.12 391.67 1782.63 391.67 1785.67V1827.13C391.67 1830.44 394.354 1833.13 397.666 1833.13H402.572C405.883 1833.13 408.568 1830.44 408.568 1827.13V1785.67C408.568 1782.63 406.318 1780.12 403.396 1779.72ZM306.48 1835.25H269.243C265.931 1835.25 263.247 1837.94 263.247 1841.25V1947.51H300.542C302.899 1947.51 305.017 1948.53 306.48 1950.15V1835.25ZM308.536 2259.46V1955.51C308.536 1955.18 308.517 1954.86 308.479 1954.55V1835.25H350.684V2259.46H308.536ZM489.462 2097.56C489.462 2097.24 489.482 2096.92 489.519 2096.6V1835.25H445.259V2259.46H489.462V2097.56ZM569.875 2259.46H536.75V2091.56H569.875C573.187 2091.56 575.871 2094.24 575.871 2097.56V2253.45C575.871 2256.77 573.187 2259.46 569.875 2259.46ZM534.751 2259.46V2091.56H497.457C494.426 2091.56 491.921 2093.81 491.518 2096.73V2259.46H534.751ZM497.457 2089.56H534.751V1841.25C534.751 1837.94 532.067 1835.25 528.756 1835.25H491.518V2092.2C492.981 2090.58 495.1 2089.56 497.457 2089.56ZM306.48 1954.68C306.075 1951.76 303.571 1949.51 300.542 1949.51H263.247V2259.46H306.48V1954.68ZM261.249 1949.51V2259.46H228.123C224.812 2259.46 222.128 2256.77 222.128 2253.45V1955.51C222.128 1952.19 224.812 1949.51 228.123 1949.51H261.249ZM398.999 1835.25H443.203V2259.46H398.999V1835.25ZM396.943 1835.25V2259.46H352.74V1835.25H396.943ZM228.19 2313.81H267.012C265.353 2312.34 264.306 2310.19 264.306 2307.8V2268.02C264.306 2265.63 265.353 2263.48 267.012 2262.02H228.19C224.878 2262.02 222.194 2264.7 222.194 2268.02V2307.8C222.194 2311.12 224.878 2313.81 228.19 2313.81ZM301.774 2268.02V2307.8C301.774 2311.12 299.09 2313.81 295.779 2313.81H272.3C268.989 2313.81 266.304 2311.12 266.304 2307.8V2268.02C266.304 2264.7 268.989 2262.02 272.3 2262.02H295.779C299.09 2262.02 301.774 2264.7 301.774 2268.02ZM303.773 2268.02C303.773 2265.63 302.726 2263.48 301.066 2262.02H313.442C311.783 2263.48 310.736 2265.63 310.736 2268.02V2307.8C310.736 2310.19 311.783 2312.34 313.442 2313.81H301.067C302.726 2312.34 303.773 2310.19 303.773 2307.8V2268.02ZM318.73 2313.81H342.211C345.522 2313.81 348.206 2311.12 348.206 2307.8V2268.02C348.206 2264.7 345.522 2262.02 342.211 2262.02H318.73C315.419 2262.02 312.734 2264.7 312.734 2268.02V2307.8C312.734 2311.12 315.419 2313.81 318.73 2313.81ZM347.499 2262.02C349.158 2263.48 350.205 2265.63 350.205 2268.02V2307.8C350.205 2310.19 349.158 2312.34 347.498 2313.81H359.875C358.216 2312.34 357.169 2310.19 357.169 2307.8V2268.02C357.169 2265.63 358.216 2263.48 359.875 2262.02H347.499ZM359.168 2307.8V2268.02C359.168 2264.7 361.852 2262.02 365.163 2262.02H388.641C391.952 2262.02 394.636 2264.7 394.636 2268.02V2307.8C394.636 2311.12 391.952 2313.81 388.641 2313.81H365.163C361.852 2313.81 359.168 2311.12 359.168 2307.8ZM396.635 2268.02C396.635 2265.63 395.588 2263.48 393.928 2262.02H406.307C404.648 2263.48 403.601 2265.63 403.601 2268.02V2307.8C403.601 2310.19 404.648 2312.34 406.307 2313.81H393.929C395.588 2312.34 396.635 2310.19 396.635 2307.8V2268.02ZM405.599 2268.02V2307.8C405.599 2311.12 408.284 2313.81 411.595 2313.81H432.752C436.064 2313.81 438.748 2311.12 438.748 2307.8V2268.02C438.748 2264.7 436.064 2262.02 432.752 2262.02H411.595C408.284 2262.02 405.599 2264.7 405.599 2268.02ZM438.04 2262.02C439.7 2263.48 440.746 2265.63 440.746 2268.02V2307.8C440.746 2310.19 439.7 2312.34 438.04 2313.81H450.416C448.756 2312.34 447.709 2310.19 447.709 2307.8V2268.02C447.709 2265.63 448.756 2263.48 450.416 2262.02H438.04ZM479.184 2313.81H455.704C452.392 2313.81 449.708 2311.12 449.708 2307.8V2268.02C449.708 2264.7 452.392 2262.02 455.704 2262.02H479.184C482.495 2262.02 485.18 2264.7 485.18 2268.02V2307.8C485.18 2311.12 482.495 2313.81 479.184 2313.81ZM487.178 2268.02C487.178 2265.63 486.132 2263.48 484.472 2262.02H496.85C495.19 2263.48 494.143 2265.63 494.143 2268.02V2307.8C494.143 2310.19 495.19 2312.34 496.85 2313.81H484.472C486.132 2312.34 487.178 2310.19 487.178 2307.8V2268.02ZM531.61 2307.8V2268.02C531.61 2264.7 528.926 2262.02 525.614 2262.02H502.138C498.826 2262.02 496.142 2264.7 496.142 2268.02V2307.8C496.142 2311.12 498.826 2313.81 502.138 2313.81H525.614C528.926 2313.81 531.61 2311.12 531.61 2307.8ZM530.902 2262.02C532.562 2263.48 533.608 2265.63 533.608 2268.02V2307.8C533.608 2310.19 532.562 2312.34 530.902 2313.81H572.048C575.36 2313.81 578.044 2311.12 578.044 2307.8V2268.02C578.044 2264.7 575.36 2262.02 572.048 2262.02H530.902ZM264.302 2316.25H225.865C222.554 2316.25 219.869 2318.94 219.869 2322.25V2400.42H247.087C251.502 2400.42 255.081 2404 255.081 2408.42V2644.68H264.302V2316.25ZM618.479 2644.67H577.718V2513.84H618.479C621.791 2513.84 624.475 2516.53 624.475 2519.85V2638.67C624.475 2641.98 621.791 2644.67 618.479 2644.67ZM575.719 2644.67V2513.84H548.569C545.257 2513.84 542.573 2516.53 542.573 2519.85V2644.67H575.719ZM548.569 2511.84H575.719V2322.25C575.719 2318.94 573.035 2316.25 569.724 2316.25H531.287V2644.68H540.574V2519.85C540.574 2515.43 544.154 2511.84 548.569 2511.84ZM219.869 2644.43H253.082V2408.42C253.082 2405.11 250.398 2402.42 247.087 2402.42H219.869V2644.43ZM217.871 2402.42V2644.43H179.808C176.497 2644.43 173.812 2641.75 173.812 2638.43V2408.42C173.812 2405.11 176.497 2402.42 179.808 2402.42H217.871ZM487.175 2316.25H494.14V2644.68H487.175V2316.25ZM529.288 2644.68H496.139V2316.25H529.288V2644.68ZM449.708 2644.68H485.177V2316.25H449.708V2644.68ZM447.709 2316.25V2644.68H440.743V2316.25H447.709ZM394.312 2316.25H401.276V2644.68H394.312V2316.25ZM438.745 2644.68H403.275V2316.25H438.745V2644.68ZM356.843 2644.68H392.314V2316.25H356.843V2644.68ZM354.844 2316.25V2644.68H347.88V2316.25H354.844ZM303.77 2316.25H310.735V2644.68H303.77V2316.25ZM345.881 2644.68H312.733V2316.25H345.881V2644.68ZM301.771 2316.25H266.301V2644.68H301.771V2316.25ZM179.437 2698.91H220.58C218.921 2697.44 217.874 2695.29 217.874 2692.9V2653.12C217.874 2650.73 218.921 2648.58 220.58 2647.12H179.437C176.126 2647.12 173.441 2649.8 173.441 2653.12V2692.9C173.441 2696.22 176.126 2698.91 179.437 2698.91ZM249.348 2698.91H225.868C222.557 2698.91 219.873 2696.22 219.873 2692.9V2653.12C219.873 2649.8 222.557 2647.12 225.868 2647.12H249.348C252.659 2647.12 255.343 2649.8 255.343 2653.12V2692.9C255.343 2696.22 252.659 2698.91 249.348 2698.91ZM257.342 2653.12C257.342 2650.73 256.295 2648.58 254.635 2647.12H267.013C265.354 2648.58 264.307 2650.73 264.307 2653.12V2692.9C264.307 2695.29 265.354 2697.44 267.013 2698.91H254.636C256.295 2697.44 257.342 2695.29 257.342 2692.9V2653.12ZM266.305 2653.12V2692.9C266.305 2696.22 268.99 2698.91 272.301 2698.91H293.457C296.769 2698.91 299.453 2696.22 299.453 2692.9V2653.12C299.453 2649.8 296.769 2647.12 293.457 2647.12H272.301C268.99 2647.12 266.305 2649.8 266.305 2653.12ZM298.745 2647.12C300.405 2648.58 301.451 2650.73 301.451 2653.12V2692.9C301.451 2695.29 300.405 2697.44 298.745 2698.91H313.444C311.785 2697.44 310.738 2695.29 310.738 2692.9V2653.12C310.738 2650.73 311.785 2648.58 313.444 2647.12H298.745ZM339.89 2698.91H318.732C315.421 2698.91 312.736 2696.22 312.736 2692.9V2653.12C312.736 2649.8 315.421 2647.12 318.732 2647.12H339.89C343.201 2647.12 345.886 2649.8 345.886 2653.12V2692.9C345.886 2696.22 343.201 2698.91 339.89 2698.91ZM347.884 2653.12C347.884 2650.73 346.838 2648.58 345.178 2647.12H359.877C358.217 2648.58 357.171 2650.73 357.171 2653.12V2692.9C357.171 2695.29 358.217 2697.44 359.877 2698.91H345.178C346.838 2697.44 347.884 2695.29 347.884 2692.9V2653.12ZM392.317 2692.9V2653.12C392.317 2649.8 389.632 2647.12 386.321 2647.12H365.165C361.854 2647.12 359.169 2649.8 359.169 2653.12V2692.9C359.169 2696.22 361.854 2698.91 365.165 2698.91H386.321C389.632 2698.91 392.317 2696.22 392.317 2692.9ZM391.609 2647.12C393.269 2648.58 394.315 2650.73 394.315 2653.12V2692.9C394.315 2695.29 393.269 2697.44 391.609 2698.91H406.308C404.649 2697.44 403.602 2695.29 403.602 2692.9V2653.12C403.602 2650.73 404.649 2648.58 406.308 2647.12H391.609ZM438.75 2653.12V2692.9C438.75 2696.22 436.065 2698.91 432.754 2698.91H411.596C408.285 2698.91 405.6 2696.22 405.6 2692.9V2653.12C405.6 2649.8 408.285 2647.12 411.596 2647.12H432.754C436.065 2647.12 438.75 2649.8 438.75 2653.12ZM440.748 2653.12C440.748 2650.73 439.701 2648.58 438.042 2647.12H450.419C448.759 2648.58 447.712 2650.73 447.712 2653.12V2692.9C447.712 2695.29 448.759 2697.44 450.419 2698.91H438.042C439.701 2697.44 440.748 2695.29 440.748 2692.9V2653.12ZM455.707 2698.91H479.185C482.496 2698.91 485.181 2696.22 485.181 2692.9V2653.12C485.181 2649.8 482.496 2647.12 479.185 2647.12H455.707C452.395 2647.12 449.711 2649.8 449.711 2653.12V2692.9C449.711 2696.22 452.395 2698.91 455.707 2698.91ZM484.473 2647.12C486.133 2648.58 487.179 2650.73 487.179 2653.12V2692.9C487.179 2695.29 486.133 2697.44 484.473 2698.91H496.85C495.19 2697.44 494.143 2695.29 494.143 2692.9V2653.12C494.143 2650.73 495.19 2648.58 496.85 2647.12H484.473ZM496.142 2692.9V2653.12C496.142 2649.8 498.826 2647.12 502.137 2647.12H525.617C528.929 2647.12 531.613 2649.8 531.613 2653.12V2692.9C531.613 2696.22 528.929 2698.91 525.617 2698.91H502.137C498.826 2698.91 496.142 2696.22 496.142 2692.9ZM533.611 2653.12C533.611 2650.73 532.565 2648.58 530.905 2647.12H543.284C541.624 2648.58 540.577 2650.73 540.577 2653.12V2692.9C540.577 2695.29 541.624 2697.44 543.284 2698.91H530.905C532.565 2697.44 533.611 2695.29 533.611 2692.9V2653.12ZM548.572 2698.91H572.048C575.359 2698.91 578.044 2696.22 578.044 2692.9V2653.12C578.044 2649.8 575.359 2647.12 572.048 2647.12H548.572C545.26 2647.12 542.576 2649.8 542.576 2653.12V2692.9C542.576 2696.22 545.26 2698.91 548.572 2698.91ZM577.336 2647.12C578.996 2648.58 580.042 2650.73 580.042 2653.12V2692.9C580.042 2695.29 578.996 2697.44 577.336 2698.91H618.482C621.794 2698.91 624.478 2696.22 624.478 2692.9V2653.12C624.478 2649.8 621.794 2647.12 618.482 2647.12H577.336ZM391.609 2701.35C393.268 2702.81 394.315 2704.96 394.315 2707.35V2892.62H403.602V2707.35C403.602 2704.96 404.649 2702.81 406.308 2701.35H391.609ZM624.478 2707.35V2859.51H585.865C583.57 2859.51 581.5 2860.48 580.042 2862.03V2707.35C580.042 2704.96 578.996 2702.81 577.336 2701.35H618.482C621.794 2701.35 624.478 2704.03 624.478 2707.35ZM548.572 2701.35H572.048C575.359 2701.35 578.044 2704.03 578.044 2707.35V2865.85C577.93 2866.39 577.87 2866.94 577.87 2867.52V2892.45H542.576V2707.35C542.576 2704.03 545.26 2701.35 548.572 2701.35ZM580.042 2892.45H624.478V2861.51H585.865C583.049 2861.51 580.686 2863.46 580.042 2866.08V2892.45ZM626.477 2861.51V2892.45H668.391V2867.52C668.391 2864.2 665.707 2861.51 662.395 2861.51H626.477ZM668.391 2894.45H626.477V2894.62H579.869V2950.09H668.391V2894.45ZM577.87 2894.62V2950.09H487.407V2936.48C487.407 2936.3 487.401 2936.12 487.389 2935.94C487.379 2935.8 487.366 2935.66 487.349 2935.52V2900.46C487.349 2897.62 489.306 2895.25 491.94 2894.62L577.87 2894.62ZM540.577 2707.35V2892.45H533.611V2707.35C533.611 2704.96 532.565 2702.81 530.905 2701.35H543.284C541.624 2702.81 540.577 2704.96 540.577 2707.35ZM496.849 2701.35H484.473C486.133 2702.81 487.179 2704.96 487.179 2707.35V2892.62H491.718C492.244 2892.51 492.788 2892.45 493.345 2892.45H494.143V2707.35C494.143 2704.96 495.19 2702.81 496.849 2701.35ZM525.617 2701.35L502.137 2701.35L502.083 2701.35C498.797 2701.38 496.142 2704.05 496.142 2707.35V2892.45H531.613V2707.35C531.613 2704.03 528.929 2701.35 525.617 2701.35ZM479.185 2701.35L479.24 2701.35C482.526 2701.38 485.181 2704.05 485.181 2707.35V2892.62L449.711 2892.62V2707.35C449.711 2704.03 452.395 2701.35 455.707 2701.35L479.185 2701.35ZM447.712 2707.35V2892.62H440.747V2707.35C440.747 2704.96 439.7 2702.81 438.041 2701.35H450.419C448.759 2702.81 447.712 2704.96 447.712 2707.35ZM487.875 2894.62H310.124C311.678 2896.08 312.648 2898.15 312.648 2900.46L312.649 2931.12C314.112 2929.5 316.23 2928.48 318.587 2928.48H479.413C481.769 2928.48 483.888 2929.5 485.351 2931.12V2900.46C485.351 2898.15 486.322 2896.08 487.875 2894.62ZM432.753 2701.35H411.596C408.285 2701.35 405.6 2704.03 405.6 2707.35V2892.62H438.749V2707.35C438.749 2704.03 436.064 2701.35 432.753 2701.35ZM365.164 2701.35L386.321 2701.35C389.632 2701.35 392.317 2704.03 392.317 2707.35V2892.62L359.168 2892.62V2707.35C359.168 2704.05 361.823 2701.38 365.109 2701.35L365.164 2701.35ZM357.17 2707.35V2892.62H347.884V2707.35C347.884 2704.96 346.838 2702.81 345.178 2701.35H359.876C358.216 2702.81 357.17 2704.96 357.17 2707.35ZM298.745 2701.35H313.444C311.785 2702.81 310.738 2704.96 310.738 2707.35V2892.62H306.281C305.756 2892.51 305.212 2892.45 304.654 2892.45H301.451V2707.35C301.451 2704.96 300.405 2702.81 298.745 2701.35ZM345.886 2892.62H312.736V2707.35C312.736 2704.03 315.421 2701.35 318.732 2701.35H339.89C343.201 2701.35 345.886 2704.03 345.886 2707.35V2892.62ZM171.443 2861.51H135.605C132.293 2861.51 129.609 2864.2 129.609 2867.52V2892.45H171.443V2861.51ZM267.013 2701.35H254.635C256.295 2702.81 257.342 2704.96 257.342 2707.35V2892.45H264.307V2707.35C264.307 2704.96 265.354 2702.81 267.013 2701.35ZM293.512 2701.35C296.798 2701.38 299.453 2704.05 299.453 2707.35V2892.45H266.305V2707.35C266.305 2704.03 268.99 2701.35 272.301 2701.35L293.457 2701.35L293.512 2701.35ZM306.06 2894.62C308.693 2895.25 310.65 2897.62 310.65 2900.46V2935.52C310.612 2935.83 310.592 2936.16 310.592 2936.48V2950.09H220.13V2894.62H306.06ZM218.131 2894.62V2950.09H129.609V2894.45H171.443V2894.62H218.131ZM217.874 2892.45V2865.77C217.128 2863.31 214.841 2861.51 212.135 2861.51H173.441V2892.45H217.874ZM225.868 2701.35L249.348 2701.35C252.659 2701.35 255.343 2704.03 255.343 2707.35V2892.45H220.13V2867.52C220.13 2866.82 220.04 2866.14 219.873 2865.49V2707.35C219.873 2704.05 222.527 2701.38 225.814 2701.35L225.868 2701.35ZM217.874 2707.35C217.874 2704.96 218.921 2702.81 220.58 2701.35H179.437C176.126 2701.35 173.441 2704.03 173.441 2707.35V2859.51H212.135C214.387 2859.51 216.421 2860.44 217.874 2861.94V2707.35ZM312.649 3050L312.649 2935.65C313.055 2932.73 315.559 2930.48 318.587 2930.48H479.413C482.442 2930.48 484.946 2932.73 485.351 2935.65L485.351 3050H312.649ZM310.592 2952.15H87.5186V2952.1H2.99418C-0.317122 2952.1 -3.00146 2954.78 -3.00146 2958.1V3050H310.592V2952.15ZM487.407 3050V2952.15H710.481V2952.1H795.006C798.317 2952.1 801.001 2954.78 801.001 2958.1V3050H487.407ZM89.5171 2950.09H127.61V2894.45H95.5127C92.2014 2894.45 89.5171 2897.14 89.5171 2900.46V2950.09ZM708.482 2950.09V2900.46C708.482 2897.14 705.798 2894.45 702.487 2894.45H670.39V2950.09H708.482Z" fill="#88817D"/>
<path d="M388.834 132C389.385 132 389.832 132.448 389.832 133.001V258.932H396.71C398.914 258.932 400.7 260.724 400.7 262.934V284.714H403.631C405.835 284.714 407.621 286.506 407.621 288.716V339.216C407.621 340.094 407.339 340.906 406.861 341.566C410.164 342.546 412.574 345.612 412.574 349.243V442.378H416.493C418.697 442.378 420.483 444.17 420.483 446.38V602.028H431.319C433.523 602.028 435.309 603.82 435.309 606.03V739.823C435.309 740.7 435.028 741.511 434.551 742.171C437.849 743.154 440.254 746.217 440.254 749.844V844.894C440.254 848.369 438.046 851.326 434.962 852.433C436.966 853.887 438.271 856.252 438.271 858.923V926.283H447.093C451.5 926.283 455.073 929.866 455.073 934.287V982.732C455.073 987.152 451.5 990.736 447.093 990.736H444.921V991.638H473.629C478.037 991.638 481.61 995.222 481.61 999.642V1356.46C481.61 1360.82 478.147 1364.36 473.833 1364.46H498.412C502.82 1364.46 506.393 1368.05 506.393 1372.47V1851.31C506.393 1855.26 503.54 1858.54 499.787 1859.19V1859.31H541.216C545.624 1859.31 549.197 1862.9 549.197 1867.32V2314.52C549.197 2318.94 545.624 2322.53 541.216 2322.53H568.25C572.657 2322.53 576.23 2326.11 576.23 2330.53V2682.83C576.23 2687.13 572.855 2690.63 568.619 2690.83V2690.84H597.537C601.944 2690.84 605.517 2694.42 605.517 2698.84V2898.72H651.607C656.015 2898.72 659.588 2902.3 659.588 2906.72V2932.61H689.906C694.314 2932.61 697.887 2936.19 697.887 2940.61V2984.58H780.02C784.427 2984.58 788 2988.16 788 2992.58V3084H4V2992.58C4 2988.16 7.57299 2984.58 11.9805 2984.58H94.1165V2940.61C94.1165 2936.19 97.6895 2932.61 102.097 2932.61H132.415V2906.72C132.415 2902.3 135.988 2898.72 140.396 2898.72H188.736V2698.84C188.736 2694.42 192.309 2690.84 196.716 2690.84H224.461V2690.69C220.792 2689.97 218.023 2686.72 218.023 2682.83V2330.53C218.023 2326.11 221.596 2322.53 226.004 2322.53H253.039C248.632 2322.53 245.059 2318.94 245.059 2314.52V1867.32C245.059 1862.9 248.632 1859.31 253.039 1859.31H295.287V1859.29C291.14 1859.01 287.864 1855.54 287.864 1851.31V1372.47C287.864 1368.05 291.437 1364.46 295.845 1364.46H320.421C316.108 1364.36 312.644 1360.82 312.644 1356.46V999.642C312.644 995.222 316.217 991.638 320.625 991.638H337.425V825.213C337.425 820.792 340.998 817.209 345.405 817.209H352.264V699.273C352.264 694.852 355.837 691.268 360.245 691.268H364.13V494.969C364.13 492.758 365.916 490.966 368.12 490.966H376.982V349.243C376.982 346.223 378.65 343.594 381.111 342.231C378.644 340.869 376.972 338.237 376.972 335.213V262.934C376.972 260.724 378.759 258.932 380.963 258.932H387.837V133.001C387.837 132.448 388.283 132 388.834 132Z" fill="#F2ECE9"/>
<mask id="mask0_2112_5791" style="mask-type:alpha" maskUnits="userSpaceOnUse" x="4" y="132" width="784" height="2952">
<path d="M388.834 132C389.385 132 389.832 132.448 389.832 133.001V258.932H396.71C398.914 258.932 400.7 260.724 400.7 262.934V284.714H403.631C405.835 284.714 407.621 286.506 407.621 288.716V339.216C407.621 340.094 407.339 340.906 406.861 341.566C410.164 342.546 412.574 345.612 412.574 349.243V442.378H416.493C418.697 442.378 420.483 444.17 420.483 446.38V602.028H431.319C433.523 602.028 435.309 603.82 435.309 606.03V739.823C435.309 740.7 435.028 741.511 434.551 742.171C437.849 743.154 440.254 746.217 440.254 749.844V844.894C440.254 848.369 438.046 851.326 434.962 852.433C436.966 853.887 438.271 856.252 438.271 858.923V926.283H447.093C451.5 926.283 455.073 929.866 455.073 934.287V982.732C455.073 987.152 451.5 990.736 447.093 990.736H444.921V991.638H473.629C478.037 991.638 481.61 995.222 481.61 999.642V1356.46C481.61 1360.82 478.147 1364.36 473.833 1364.46H498.412C502.82 1364.46 506.393 1368.05 506.393 1372.47V1851.31C506.393 1855.26 503.54 1858.54 499.787 1859.19V1859.31H541.216C545.624 1859.31 549.197 1862.9 549.197 1867.32V2314.52C549.197 2318.94 545.624 2322.53 541.216 2322.53H568.25C572.657 2322.53 576.23 2326.11 576.23 2330.53V2682.83C576.23 2687.13 572.855 2690.63 568.619 2690.83V2690.84H597.537C601.944 2690.84 605.517 2694.42 605.517 2698.84V2898.72H651.607C656.015 2898.72 659.588 2902.3 659.588 2906.72V2932.61H689.906C694.314 2932.61 697.887 2936.19 697.887 2940.61V2984.58H780.02C784.427 2984.58 788 2988.16 788 2992.58V3084H4V2992.58C4 2988.16 7.57299 2984.58 11.9805 2984.58H94.1165V2940.61C94.1165 2936.19 97.6895 2932.61 102.097 2932.61H132.415V2906.72C132.415 2902.3 135.988 2898.72 140.396 2898.72H188.736V2698.84C188.736 2694.42 192.309 2690.84 196.716 2690.84H224.461V2690.69C220.792 2689.97 218.023 2686.72 218.023 2682.83V2330.53C218.023 2326.11 221.596 2322.53 226.004 2322.53H253.039C248.632 2322.53 245.059 2318.94 245.059 2314.52V1867.32C245.059 1862.9 248.632 1859.31 253.039 1859.31H295.287V1859.29C291.14 1859.01 287.864 1855.54 287.864 1851.31V1372.47C287.864 1368.05 291.437 1364.46 295.845 1364.46H320.421C316.108 1364.36 312.644 1360.82 312.644 1356.46V999.642C312.644 995.222 316.217 991.638 320.625 991.638H337.425V825.213C337.425 820.792 340.998 817.209 345.405 817.209H352.264V699.273C352.264 694.852 355.837 691.268 360.245 691.268H364.13V494.969C364.13 492.758 365.916 490.966 368.12 490.966H376.982V349.243C376.982 346.223 378.65 343.594 381.111 342.231C378.644 340.869 376.972 338.237 376.972 335.213V262.934C376.972 260.724 378.759 258.932 380.963 258.932H387.837V133.001C387.837 132.448 388.283 132 388.834 132Z" fill="#F6EDE3"/>
</mask>
<g mask="url(#mask0_2112_5791)">
<path fill-rule="evenodd" clip-rule="evenodd" d="M394.405 1.0006C394.405 0.447982 393.957 0 393.405 0C392.854 0 392.406 0.447982 392.406 1.0006V130.579H385.18C382.973 130.579 381.183 132.371 381.183 134.582V209.301C381.183 212.107 382.625 214.575 384.807 216.005C382.246 217.339 380.496 220.02 380.496 223.111V367.45H373.185C370.978 367.45 369.188 369.242 369.188 371.452V575.379H362.791C358.376 575.379 354.796 578.963 354.796 583.384V705.077H349.427C345.012 705.077 341.433 708.661 341.433 713.082V880.066H311.765C307.35 880.066 303.771 883.65 303.771 888.071V927.647C303.771 930.64 305.412 933.249 307.842 934.622C305.412 935.996 303.771 938.605 303.771 941.598V1263.21C303.771 1265.59 304.805 1267.72 306.447 1269.19C302.347 1269.53 299.127 1272.97 299.127 1277.17V1314.68C299.127 1317.68 300.768 1320.29 303.197 1321.66C300.769 1323.03 299.129 1325.64 299.129 1328.63V1446.22H270.272C265.857 1446.22 262.278 1449.8 262.278 1454.22V1771.72C262.278 1774.27 263.471 1776.54 265.328 1778.01C262.049 1779 259.662 1782.06 259.662 1785.67V1827.13C259.662 1830.54 261.79 1833.45 264.79 1834.6C262.654 1836.04 261.249 1838.48 261.249 1841.25V1947.51H228.123C223.708 1947.51 220.129 1951.09 220.129 1955.51V2253.45C220.129 2256.7 222.06 2259.5 224.835 2260.75C222.096 2262.02 220.195 2264.8 220.195 2268.02V2307.8C220.195 2310.61 221.64 2313.08 223.827 2314.51C220.399 2315.41 217.871 2318.54 217.871 2322.25V2400.42H179.808C175.393 2400.42 171.814 2404 171.814 2408.42V2638.43C171.814 2641.65 173.71 2644.42 176.446 2645.69C173.512 2646.88 171.443 2649.76 171.443 2653.12V2692.9C171.443 2696.09 173.3 2698.84 175.988 2700.13C173.3 2701.42 171.443 2704.17 171.443 2707.35V2859.51H135.605C131.19 2859.51 127.61 2863.09 127.61 2867.52V2892.45H95.5127C91.0977 2892.45 87.5186 2896.03 87.5186 2900.46V2950.09H2.99418C-1.42088 2950.09 -5 2953.68 -5 2958.1V3052H803V2958.1C803 2953.68 799.421 2950.09 795.006 2950.09H710.481V2900.46C710.481 2896.03 706.902 2892.45 702.487 2892.45H670.39V2867.52C670.39 2863.09 666.81 2859.51 662.395 2859.51H626.477V2707.35C626.477 2704.17 624.62 2701.42 621.932 2700.13C624.62 2698.84 626.477 2696.09 626.477 2692.9V2653.12C626.477 2649.93 624.617 2647.18 621.924 2645.89C624.615 2644.6 626.473 2641.85 626.473 2638.67V2519.85C626.473 2515.43 622.894 2511.84 618.479 2511.84H577.718V2322.25C577.718 2319.44 576.273 2316.97 574.086 2315.54C577.514 2314.64 580.042 2311.52 580.042 2307.8V2268.02C580.042 2264.3 577.504 2261.17 574.065 2260.27C576.348 2258.86 577.87 2256.34 577.87 2253.45V2097.56C577.87 2093.14 574.29 2089.56 569.875 2089.56H536.75V1841.25C536.75 1838.47 535.331 1836.02 533.178 1834.58C536.149 1833.41 538.253 1830.52 538.253 1827.13V1785.67C538.253 1782.57 536.501 1779.89 533.937 1778.56C536.241 1777.15 537.779 1774.61 537.779 1771.72V1611.71C537.779 1607.29 534.2 1603.71 529.785 1603.71H498.787V1328.63C498.787 1325.64 497.147 1323.03 494.717 1321.66C497.146 1320.28 498.785 1317.68 498.785 1314.68V1277.17C498.785 1273.68 496.563 1270.72 493.462 1269.62C495.404 1268.16 496.66 1265.83 496.66 1263.22V1090.57C496.66 1086.15 493.081 1082.57 488.665 1082.57H463.962V941.598C463.962 938.065 461.676 935.066 458.504 934.004C460.411 932.541 461.64 930.238 461.64 927.647V888.071C461.64 885.093 460.016 882.494 457.605 881.116C460.053 879.747 461.708 877.128 461.708 874.121V823.223C461.708 818.802 458.129 815.218 453.714 815.218H445.261V748.081C445.261 745.087 443.62 742.478 441.19 741.104C443.619 739.731 445.26 737.122 445.26 734.129V634.851C445.26 631.488 443.189 628.61 440.255 627.424C440.813 626.736 441.147 625.859 441.147 624.903V488.798C441.147 486.588 439.358 484.796 437.15 484.796H426.756V323.073C426.756 320.862 424.966 319.07 422.758 319.07H417.504V223.111C417.504 219.593 415.239 216.606 412.09 215.532C412.517 214.895 412.766 214.128 412.766 213.303V161.11C412.766 158.899 410.976 157.107 408.769 157.107H405.634V134.582C405.634 132.371 403.845 130.579 401.637 130.579H394.405V1.0006ZM385.18 132.58H401.637C402.741 132.58 403.636 133.476 403.636 134.582V157.107H391.293C389.085 157.107 387.296 158.899 387.296 161.11V213.303C387.296 213.961 387.454 214.582 387.735 215.13C385.12 214.483 383.182 212.119 383.182 209.301V134.582C383.182 133.476 384.076 132.58 385.18 132.58ZM391.293 159.108H403.636V215.106H390.424C389.755 214.782 389.294 214.097 389.294 213.303V161.11C389.294 160.004 390.189 159.108 391.293 159.108ZM409.51 215.106C409.552 215.106 409.594 215.106 409.636 215.107C410.306 214.783 410.767 214.097 410.767 213.303V161.11C410.767 160.004 409.873 159.108 408.769 159.108H405.634V215.106H409.51ZM389.177 217.306L408.769 217.306C409.185 217.306 409.586 217.242 409.963 217.124C413.063 217.356 415.506 219.948 415.506 223.111V319.07H410.193C407.985 319.07 406.196 320.862 406.196 323.073V367.45H382.495V223.111C382.495 220.075 384.745 217.565 387.667 217.163C388.156 217.257 388.661 217.306 389.177 217.306ZM380.496 369.509V369.451H373.185C372.081 369.451 371.187 370.347 371.187 371.452V575.379H406.196V369.509H380.496ZM422.758 321.072H417.504V361.504C417.504 365.925 413.925 369.509 409.51 369.509H408.252L408.252 485.299C408.827 484.978 409.488 484.796 410.193 484.796H424.757V323.073C424.757 321.967 423.862 321.072 422.758 321.072ZM415.506 361.504V321.072H410.193C409.089 321.072 408.194 321.967 408.194 323.073V367.45H408.252V367.507H409.51C412.821 367.507 415.506 364.819 415.506 361.504ZM426.756 486.797H437.15C438.254 486.797 439.149 487.693 439.149 488.798V624.903C439.149 625.853 438.487 626.648 437.601 626.853C437.489 626.848 437.378 626.846 437.266 626.846H408.252V577.438H418.761C423.176 577.438 426.756 573.854 426.756 569.433V486.797ZM424.757 486.797V569.433C424.757 572.748 422.073 575.436 418.761 575.436H408.252L408.252 488.32C408.466 487.446 409.254 486.797 410.193 486.797H424.757ZM406.196 577.438V626.846H386.435C382.019 626.846 378.44 630.43 378.44 634.851V705.077H356.795V583.384C356.795 580.068 359.479 577.38 362.791 577.38H369.188V577.438H406.196ZM437.15 628.905H408.252V705.077H418.762C423.177 705.077 426.756 708.661 426.756 713.082V740.076H437.267C437.477 740.076 437.685 740.084 437.892 740.1C440.909 739.786 443.261 737.233 443.261 734.129V634.851C443.261 631.689 440.82 629.098 437.723 628.864C437.536 628.891 437.345 628.905 437.15 628.905ZM406.196 628.905V628.847H386.435C383.123 628.847 380.439 631.535 380.439 634.851V705.077H406.253V628.905H406.196ZM354.796 707.136H378.44V740.076H377.184C372.769 740.076 369.189 743.66 369.189 748.081V880.066H343.432V713.082C343.432 709.766 346.116 707.079 349.427 707.079H354.796V707.136ZM380.439 707.136V740.076H424.758V713.082C424.758 709.766 422.074 707.079 418.762 707.079H408.252V707.136H380.439ZM377.184 742.077H378.44V742.133H424.758V822.261C424.72 822.577 424.701 822.898 424.701 823.223V880.066H371.188V748.081C371.188 744.765 373.872 742.077 377.184 742.077ZM426.756 817.864V742.133H437.266C437.307 742.133 437.349 742.133 437.391 742.133C437.48 742.131 437.568 742.128 437.656 742.124C437.699 742.122 437.742 742.12 437.785 742.117C437.821 742.115 437.857 742.112 437.892 742.109C440.909 742.422 443.262 744.976 443.262 748.081V815.218H432.695C430.338 815.218 428.22 816.24 426.756 817.864ZM389.351 882.126C390.973 883.591 391.992 885.712 391.992 888.071V927.647C391.992 930.007 390.972 932.128 389.349 933.593H454.476C457.395 933.188 459.642 930.68 459.642 927.647V888.071C459.642 884.981 457.309 882.435 454.311 882.104C454.114 882.119 453.915 882.126 453.714 882.126L389.351 882.126ZM384.839 882.126H380.572C377.659 882.536 375.418 885.042 375.418 888.071V927.647C375.418 930.68 377.665 933.188 380.583 933.593H384.828C387.746 933.188 389.993 930.68 389.993 927.647V888.071C389.993 885.042 387.752 882.536 384.839 882.126ZM376.06 882.126L341.433 882.126V882.068H311.765C308.454 882.068 305.77 884.755 305.77 888.071V927.647C305.77 930.75 308.121 933.303 311.137 933.618C311.184 933.614 311.231 933.611 311.278 933.608C311.326 933.605 311.374 933.603 311.422 933.601C311.536 933.596 311.65 933.593 311.766 933.593H376.062C374.44 932.128 373.42 930.007 373.42 927.647V888.071C373.42 885.712 374.439 883.591 376.06 882.126ZM445.261 817.219V880.066H453.646C453.873 880.066 454.098 880.076 454.321 880.095C457.347 879.79 459.71 877.232 459.71 874.121V823.223C459.71 819.907 457.026 817.219 453.714 817.219H445.261ZM443.262 880.066V817.219H432.695C429.666 817.219 427.161 819.469 426.756 822.391V880.066H443.262ZM453.646 935.651C453.84 935.651 454.032 935.644 454.223 935.631C454.351 935.622 454.479 935.609 454.606 935.594H455.968C459.279 935.594 461.964 938.282 461.964 941.598V1082.57H402.883C400.354 1082.57 398.1 1083.75 396.635 1085.58V941.598C396.635 939.238 395.615 937.116 393.993 935.651H453.646ZM389.47 935.651C392.389 936.056 394.637 938.564 394.637 941.598V1263.21C394.637 1266.25 392.384 1268.76 389.461 1269.16H375.953C373.029 1268.76 370.775 1266.25 370.775 1263.21V941.598C370.775 938.564 373.022 936.056 375.941 935.651H389.47ZM311.765 935.651C311.554 935.651 311.345 935.643 311.137 935.627C308.121 935.941 305.77 938.495 305.77 941.598V1263.21C305.77 1266.25 308.021 1268.76 310.944 1269.16H371.421C369.797 1267.7 368.777 1265.58 368.777 1263.21V941.598C368.777 939.238 369.797 937.116 371.419 935.651H311.765ZM402.883 1084.57C399.572 1084.57 396.887 1087.26 396.887 1090.57V1263.22C396.887 1266.25 399.137 1268.76 402.058 1269.16H423.139L423.202 1269.16H456.788C459.711 1268.76 461.964 1266.25 461.964 1263.21V1084.57H402.883ZM489.492 1269.16H461.318C462.942 1267.7 463.962 1265.58 463.962 1263.21V1084.57H488.665C491.977 1084.57 494.661 1087.26 494.661 1090.57V1263.22C494.661 1266.25 492.412 1268.76 489.492 1269.16ZM397.532 1269.16C396.811 1268.51 396.208 1267.73 395.762 1266.86C395.315 1267.73 394.713 1268.51 393.991 1269.16H397.532ZM438.1 1271.22H488.665L488.728 1271.22L488.789 1271.22C488.82 1271.22 488.852 1271.22 488.883 1271.22C489.004 1271.21 489.124 1271.21 489.244 1271.2C489.37 1271.19 489.496 1271.18 489.621 1271.16H490.791C494.102 1271.16 496.787 1273.85 496.787 1277.17V1314.68C496.787 1317.78 494.44 1320.34 491.428 1320.65C491.342 1320.65 491.255 1320.64 491.168 1320.64C491.044 1320.63 490.919 1320.63 490.793 1320.63H438.103C439.724 1319.16 440.743 1317.04 440.743 1314.68V1277.17C440.743 1274.81 439.723 1272.69 438.1 1271.22ZM433.574 1271.22C436.495 1271.62 438.745 1274.13 438.745 1277.17V1314.68C438.745 1317.71 436.503 1320.22 433.59 1320.63H422.362C419.449 1320.22 417.206 1317.71 417.206 1314.68V1277.17C417.206 1274.13 419.455 1271.62 422.376 1271.22H433.574ZM402.765 1271.22C402.804 1271.22 402.843 1271.22 402.883 1271.22H417.851C416.228 1272.69 415.208 1274.81 415.208 1277.17V1314.68C415.208 1317.04 416.227 1319.16 417.849 1320.63H405.923V1320.64H391.993V1320.63H380.064C381.685 1319.16 382.705 1317.04 382.705 1314.68V1277.17C382.705 1274.81 381.684 1272.68 380.061 1271.22H388.641L388.704 1271.22H402.765ZM310.816 1271.16H307.121C303.81 1271.16 301.126 1273.85 301.126 1277.17V1314.68C301.126 1317.78 303.473 1320.34 306.486 1320.65C306.696 1320.64 306.909 1320.63 307.123 1320.63H359.807C358.185 1319.16 357.166 1317.04 357.166 1314.68V1277.17C357.166 1274.81 358.187 1272.68 359.81 1271.22H311.766C311.444 1271.22 311.127 1271.2 310.816 1271.16ZM364.34 1271.22C361.417 1271.62 359.165 1274.13 359.165 1277.17V1314.68C359.165 1317.71 361.406 1320.22 364.319 1320.63H375.55C378.464 1320.22 380.706 1317.71 380.706 1314.68V1277.17C380.706 1274.13 378.455 1271.62 375.532 1271.22H364.34ZM490.791 1322.69H445.26V1606.35C446.724 1604.73 448.842 1603.71 451.198 1603.71H496.789V1328.63C496.789 1325.53 494.441 1322.98 491.428 1322.66C491.218 1322.68 491.006 1322.69 490.791 1322.69ZM443.262 1610.74V1322.69H432.812L432.749 1322.69H407.922V1777.66H443.204V1611.71C443.204 1611.38 443.224 1611.06 443.262 1610.74ZM391.993 1322.69H405.923V1777.66H391.993V1322.69ZM365.097 1322.69L365.16 1322.69H389.994V1777.66H354.797V1454.22C354.797 1453.9 354.778 1453.58 354.74 1453.26V1322.69H365.097ZM307.121 1322.69C306.908 1322.69 306.696 1322.68 306.486 1322.66C303.474 1322.98 301.128 1325.53 301.128 1328.63V1446.22H346.803C349.16 1446.22 351.278 1447.24 352.741 1448.87V1322.69H307.121ZM354.797 1779.72H342.919C344.541 1781.19 345.561 1783.31 345.561 1785.67V1827.13C345.561 1829.52 344.514 1831.66 342.854 1833.13H392.378C390.718 1831.66 389.671 1829.52 389.671 1827.13V1785.67C389.671 1783.31 390.692 1781.18 392.315 1779.72H354.797V1779.72ZM338.399 1779.72H331.829C328.911 1780.13 326.666 1782.63 326.666 1785.67V1827.13C326.666 1830.44 329.35 1833.13 332.661 1833.13H337.567C340.878 1833.13 343.562 1830.44 343.562 1827.13V1785.67C343.562 1782.63 341.316 1780.13 338.399 1779.72ZM270.272 1779.72C269.947 1779.72 269.625 1779.7 269.31 1779.66H267.656C264.345 1779.66 261.66 1782.35 261.66 1785.67V1827.13C261.66 1830.44 264.345 1833.13 267.656 1833.13H327.373C325.714 1831.66 324.667 1829.52 324.667 1827.13V1785.67C324.667 1783.31 325.687 1781.19 327.309 1779.72H270.272ZM470.607 1779.72H529.785C530.074 1779.72 530.36 1779.71 530.642 1779.68C533.774 1779.87 536.254 1782.48 536.254 1785.67V1827.13C536.254 1830.44 533.57 1833.13 530.259 1833.13H470.542C472.202 1831.66 473.249 1829.52 473.249 1827.13V1785.67C473.249 1783.31 472.229 1781.19 470.607 1779.72ZM459.514 1779.72H466.088C469.005 1780.13 471.25 1782.63 471.25 1785.67V1827.13C471.25 1830.44 468.566 1833.13 465.255 1833.13H460.348C457.036 1833.13 454.352 1830.44 454.352 1827.13V1785.67C454.352 1782.63 456.598 1780.13 459.514 1779.72ZM443.204 1779.72V1779.72H454.996C453.373 1781.19 452.354 1783.31 452.354 1785.67V1827.13C452.354 1829.52 453.4 1831.66 455.06 1833.13H407.86C409.519 1831.66 410.566 1829.52 410.566 1827.13V1785.67C410.566 1783.31 409.546 1781.18 407.923 1779.72H443.204ZM530.573 1777.67C533.512 1777.28 535.78 1774.76 535.78 1771.72V1611.71C535.78 1608.4 533.096 1605.71 529.785 1605.71H498.787V1777.66H530.259C530.364 1777.66 530.469 1777.66 530.573 1777.67ZM496.789 1605.71V1777.66H445.26V1610.87C445.668 1607.95 448.171 1605.71 451.198 1605.71H496.789ZM346.803 1448.22C349.832 1448.22 352.337 1450.47 352.741 1453.39V1777.66H301.128V1448.22H346.803ZM299.129 1777.66V1448.22H270.272C266.961 1448.22 264.277 1450.91 264.277 1454.22V1771.72C264.277 1774.75 266.522 1777.26 269.44 1777.66H299.129ZM403.396 1779.72H396.841C393.92 1780.12 391.67 1782.63 391.67 1785.67V1827.13C391.67 1830.44 394.354 1833.13 397.666 1833.13H402.572C405.883 1833.13 408.568 1830.44 408.568 1827.13V1785.67C408.568 1782.63 406.318 1780.12 403.396 1779.72ZM306.48 1835.25H269.243C265.931 1835.25 263.247 1837.94 263.247 1841.25V1947.51H300.542C302.899 1947.51 305.017 1948.53 306.48 1950.15V1835.25ZM308.536 2259.46V1955.51C308.536 1955.18 308.517 1954.86 308.479 1954.55V1835.25H350.684V2259.46H308.536ZM489.462 2097.56C489.462 2097.24 489.482 2096.92 489.519 2096.6V1835.25H445.259V2259.46H489.462V2097.56ZM569.875 2259.46H536.75V2091.56H569.875C573.187 2091.56 575.871 2094.24 575.871 2097.56V2253.45C575.871 2256.77 573.187 2259.46 569.875 2259.46ZM534.751 2259.46V2091.56H497.457C494.426 2091.56 491.921 2093.81 491.518 2096.73V2259.46H534.751ZM497.457 2089.56H534.751V1841.25C534.751 1837.94 532.067 1835.25 528.756 1835.25H491.518V2092.2C492.981 2090.58 495.1 2089.56 497.457 2089.56ZM306.48 1954.68C306.075 1951.76 303.571 1949.51 300.542 1949.51H263.247V2259.46H306.48V1954.68ZM261.249 1949.51V2259.46H228.123C224.812 2259.46 222.128 2256.77 222.128 2253.45V1955.51C222.128 1952.19 224.812 1949.51 228.123 1949.51H261.249ZM398.999 1835.25H443.203V2259.46H398.999V1835.25ZM396.943 1835.25V2259.46H352.74V1835.25H396.943ZM228.19 2313.81H267.012C265.353 2312.34 264.306 2310.19 264.306 2307.8V2268.02C264.306 2265.63 265.353 2263.48 267.012 2262.02H228.19C224.878 2262.02 222.194 2264.7 222.194 2268.02V2307.8C222.194 2311.12 224.878 2313.81 228.19 2313.81ZM301.774 2268.02V2307.8C301.774 2311.12 299.09 2313.81 295.779 2313.81H272.3C268.989 2313.81 266.304 2311.12 266.304 2307.8V2268.02C266.304 2264.7 268.989 2262.02 272.3 2262.02H295.779C299.09 2262.02 301.774 2264.7 301.774 2268.02ZM303.773 2268.02C303.773 2265.63 302.726 2263.48 301.066 2262.02H313.442C311.783 2263.48 310.736 2265.63 310.736 2268.02V2307.8C310.736 2310.19 311.783 2312.34 313.442 2313.81H301.067C302.726 2312.34 303.773 2310.19 303.773 2307.8V2268.02ZM318.73 2313.81H342.211C345.522 2313.81 348.206 2311.12 348.206 2307.8V2268.02C348.206 2264.7 345.522 2262.02 342.211 2262.02H318.73C315.419 2262.02 312.734 2264.7 312.734 2268.02V2307.8C312.734 2311.12 315.419 2313.81 318.73 2313.81ZM347.499 2262.02C349.158 2263.48 350.205 2265.63 350.205 2268.02V2307.8C350.205 2310.19 349.158 2312.34 347.498 2313.81H359.875C358.216 2312.34 357.169 2310.19 357.169 2307.8V2268.02C357.169 2265.63 358.216 2263.48 359.875 2262.02H347.499ZM359.168 2307.8V2268.02C359.168 2264.7 361.852 2262.02 365.163 2262.02H388.641C391.952 2262.02 394.636 2264.7 394.636 2268.02V2307.8C394.636 2311.12 391.952 2313.81 388.641 2313.81H365.163C361.852 2313.81 359.168 2311.12 359.168 2307.8ZM396.635 2268.02C396.635 2265.63 395.588 2263.48 393.928 2262.02H406.307C404.648 2263.48 403.601 2265.63 403.601 2268.02V2307.8C403.601 2310.19 404.648 2312.34 406.307 2313.81H393.929C395.588 2312.34 396.635 2310.19 396.635 2307.8V2268.02ZM405.599 2268.02V2307.8C405.599 2311.12 408.284 2313.81 411.595 2313.81H432.752C436.064 2313.81 438.748 2311.12 438.748 2307.8V2268.02C438.748 2264.7 436.064 2262.02 432.752 2262.02H411.595C408.284 2262.02 405.599 2264.7 405.599 2268.02ZM438.04 2262.02C439.7 2263.48 440.746 2265.63 440.746 2268.02V2307.8C440.746 2310.19 439.7 2312.34 438.04 2313.81H450.416C448.756 2312.34 447.709 2310.19 447.709 2307.8V2268.02C447.709 2265.63 448.756 2263.48 450.416 2262.02H438.04ZM479.184 2313.81H455.704C452.392 2313.81 449.708 2311.12 449.708 2307.8V2268.02C449.708 2264.7 452.392 2262.02 455.704 2262.02H479.184C482.495 2262.02 485.18 2264.7 485.18 2268.02V2307.8C485.18 2311.12 482.495 2313.81 479.184 2313.81ZM487.178 2268.02C487.178 2265.63 486.132 2263.48 484.472 2262.02H496.85C495.19 2263.48 494.143 2265.63 494.143 2268.02V2307.8C494.143 2310.19 495.19 2312.34 496.85 2313.81H484.472C486.132 2312.34 487.178 2310.19 487.178 2307.8V2268.02ZM531.61 2307.8V2268.02C531.61 2264.7 528.926 2262.02 525.614 2262.02H502.138C498.826 2262.02 496.142 2264.7 496.142 2268.02V2307.8C496.142 2311.12 498.826 2313.81 502.138 2313.81H525.614C528.926 2313.81 531.61 2311.12 531.61 2307.8ZM530.902 2262.02C532.562 2263.48 533.608 2265.63 533.608 2268.02V2307.8C533.608 2310.19 532.562 2312.34 530.902 2313.81H572.048C575.36 2313.81 578.044 2311.12 578.044 2307.8V2268.02C578.044 2264.7 575.36 2262.02 572.048 2262.02H530.902ZM264.302 2316.25H225.865C222.554 2316.25 219.869 2318.94 219.869 2322.25V2400.42H247.087C251.502 2400.42 255.081 2404 255.081 2408.42V2644.68H264.302V2316.25ZM618.479 2644.67H577.718V2513.84H618.479C621.791 2513.84 624.475 2516.53 624.475 2519.85V2638.67C624.475 2641.98 621.791 2644.67 618.479 2644.67ZM575.719 2644.67V2513.84H548.569C545.257 2513.84 542.573 2516.53 542.573 2519.85V2644.67H575.719ZM548.569 2511.84H575.719V2322.25C575.719 2318.94 573.035 2316.25 569.724 2316.25H531.287V2644.68H540.574V2519.85C540.574 2515.43 544.154 2511.84 548.569 2511.84ZM219.869 2644.43H253.082V2408.42C253.082 2405.11 250.398 2402.42 247.087 2402.42H219.869V2644.43ZM217.871 2402.42V2644.43H179.808C176.497 2644.43 173.812 2641.75 173.812 2638.43V2408.42C173.812 2405.11 176.497 2402.42 179.808 2402.42H217.871ZM487.175 2316.25H494.14V2644.68H487.175V2316.25ZM529.288 2644.68H496.139V2316.25H529.288V2644.68ZM449.708 2644.68H485.177V2316.25H449.708V2644.68ZM447.709 2316.25V2644.68H440.743V2316.25H447.709ZM394.312 2316.25H401.276V2644.68H394.312V2316.25ZM438.745 2644.68H403.275V2316.25H438.745V2644.68ZM356.843 2644.68H392.314V2316.25H356.843V2644.68ZM354.844 2316.25V2644.68H347.88V2316.25H354.844ZM303.77 2316.25H310.735V2644.68H303.77V2316.25ZM345.881 2644.68H312.733V2316.25H345.881V2644.68ZM301.771 2316.25H266.301V2644.68H301.771V2316.25ZM179.437 2698.91H220.58C218.921 2697.44 217.874 2695.29 217.874 2692.9V2653.12C217.874 2650.73 218.921 2648.58 220.58 2647.12H179.437C176.126 2647.12 173.441 2649.8 173.441 2653.12V2692.9C173.441 2696.22 176.126 2698.91 179.437 2698.91ZM249.348 2698.91H225.868C222.557 2698.91 219.873 2696.22 219.873 2692.9V2653.12C219.873 2649.8 222.557 2647.12 225.868 2647.12H249.348C252.659 2647.12 255.343 2649.8 255.343 2653.12V2692.9C255.343 2696.22 252.659 2698.91 249.348 2698.91ZM257.342 2653.12C257.342 2650.73 256.295 2648.58 254.635 2647.12H267.013C265.354 2648.58 264.307 2650.73 264.307 2653.12V2692.9C264.307 2695.29 265.354 2697.44 267.013 2698.91H254.636C256.295 2697.44 257.342 2695.29 257.342 2692.9V2653.12ZM266.305 2653.12V2692.9C266.305 2696.22 268.99 2698.91 272.301 2698.91H293.457C296.769 2698.91 299.453 2696.22 299.453 2692.9V2653.12C299.453 2649.8 296.769 2647.12 293.457 2647.12H272.301C268.99 2647.12 266.305 2649.8 266.305 2653.12ZM298.745 2647.12C300.405 2648.58 301.451 2650.73 301.451 2653.12V2692.9C301.451 2695.29 300.405 2697.44 298.745 2698.91H313.444C311.785 2697.44 310.738 2695.29 310.738 2692.9V2653.12C310.738 2650.73 311.785 2648.58 313.444 2647.12H298.745ZM339.89 2698.91H318.732C315.421 2698.91 312.736 2696.22 312.736 2692.9V2653.12C312.736 2649.8 315.421 2647.12 318.732 2647.12H339.89C343.201 2647.12 345.886 2649.8 345.886 2653.12V2692.9C345.886 2696.22 343.201 2698.91 339.89 2698.91ZM347.884 2653.12C347.884 2650.73 346.838 2648.58 345.178 2647.12H359.877C358.217 2648.58 357.171 2650.73 357.171 2653.12V2692.9C357.171 2695.29 358.217 2697.44 359.877 2698.91H345.178C346.838 2697.44 347.884 2695.29 347.884 2692.9V2653.12ZM392.317 2692.9V2653.12C392.317 2649.8 389.632 2647.12 386.321 2647.12H365.165C361.854 2647.12 359.169 2649.8 359.169 2653.12V2692.9C359.169 2696.22 361.854 2698.91 365.165 2698.91H386.321C389.632 2698.91 392.317 2696.22 392.317 2692.9ZM391.609 2647.12C393.269 2648.58 394.315 2650.73 394.315 2653.12V2692.9C394.315 2695.29 393.269 2697.44 391.609 2698.91H406.308C404.649 2697.44 403.602 2695.29 403.602 2692.9V2653.12C403.602 2650.73 404.649 2648.58 406.308 2647.12H391.609ZM438.75 2653.12V2692.9C438.75 2696.22 436.065 2698.91 432.754 2698.91H411.596C408.285 2698.91 405.6 2696.22 405.6 2692.9V2653.12C405.6 2649.8 408.285 2647.12 411.596 2647.12H432.754C436.065 2647.12 438.75 2649.8 438.75 2653.12ZM440.748 2653.12C440.748 2650.73 439.701 2648.58 438.042 2647.12H450.419C448.759 2648.58 447.712 2650.73 447.712 2653.12V2692.9C447.712 2695.29 448.759 2697.44 450.419 2698.91H438.042C439.701 2697.44 440.748 2695.29 440.748 2692.9V2653.12ZM455.707 2698.91H479.185C482.496 2698.91 485.181 2696.22 485.181 2692.9V2653.12C485.181 2649.8 482.496 2647.12 479.185 2647.12H455.707C452.395 2647.12 449.711 2649.8 449.711 2653.12V2692.9C449.711 2696.22 452.395 2698.91 455.707 2698.91ZM484.473 2647.12C486.133 2648.58 487.179 2650.73 487.179 2653.12V2692.9C487.179 2695.29 486.133 2697.44 484.473 2698.91H496.85C495.19 2697.44 494.143 2695.29 494.143 2692.9V2653.12C494.143 2650.73 495.19 2648.58 496.85 2647.12H484.473ZM496.142 2692.9V2653.12C496.142 2649.8 498.826 2647.12 502.137 2647.12H525.617C528.929 2647.12 531.613 2649.8 531.613 2653.12V2692.9C531.613 2696.22 528.929 2698.91 525.617 2698.91H502.137C498.826 2698.91 496.142 2696.22 496.142 2692.9ZM533.611 2653.12C533.611 2650.73 532.565 2648.58 530.905 2647.12H543.284C541.624 2648.58 540.577 2650.73 540.577 2653.12V2692.9C540.577 2695.29 541.624 2697.44 543.284 2698.91H530.905C532.565 2697.44 533.611 2695.29 533.611 2692.9V2653.12ZM548.572 2698.91H572.048C575.359 2698.91 578.044 2696.22 578.044 2692.9V2653.12C578.044 2649.8 575.359 2647.12 572.048 2647.12H548.572C545.26 2647.12 542.576 2649.8 542.576 2653.12V2692.9C542.576 2696.22 545.26 2698.91 548.572 2698.91ZM577.336 2647.12C578.996 2648.58 580.042 2650.73 580.042 2653.12V2692.9C580.042 2695.29 578.996 2697.44 577.336 2698.91H618.482C621.794 2698.91 624.478 2696.22 624.478 2692.9V2653.12C624.478 2649.8 621.794 2647.12 618.482 2647.12H577.336ZM391.609 2701.35C393.268 2702.81 394.315 2704.96 394.315 2707.35V2892.62H403.602V2707.35C403.602 2704.96 404.649 2702.81 406.308 2701.35H391.609ZM624.478 2707.35V2859.51H585.865C583.57 2859.51 581.5 2860.48 580.042 2862.03V2707.35C580.042 2704.96 578.996 2702.81 577.336 2701.35H618.482C621.794 2701.35 624.478 2704.03 624.478 2707.35ZM548.572 2701.35H572.048C575.359 2701.35 578.044 2704.03 578.044 2707.35V2865.85C577.93 2866.39 577.87 2866.94 577.87 2867.52V2892.45H542.576V2707.35C542.576 2704.03 545.26 2701.35 548.572 2701.35ZM580.042 2892.45H624.478V2861.51H585.865C583.049 2861.51 580.686 2863.46 580.042 2866.08V2892.45ZM626.477 2861.51V2892.45H668.391V2867.52C668.391 2864.2 665.707 2861.51 662.395 2861.51H626.477ZM668.391 2894.45H626.477V2894.62H579.869V2950.09H668.391V2894.45ZM577.87 2894.62V2950.09H487.407V2936.48C487.407 2936.3 487.401 2936.12 487.389 2935.94C487.379 2935.8 487.366 2935.66 487.349 2935.52V2900.46C487.349 2897.62 489.306 2895.25 491.94 2894.62L577.87 2894.62ZM540.577 2707.35V2892.45H533.611V2707.35C533.611 2704.96 532.565 2702.81 530.905 2701.35H543.284C541.624 2702.81 540.577 2704.96 540.577 2707.35ZM496.849 2701.35H484.473C486.133 2702.81 487.179 2704.96 487.179 2707.35V2892.62H491.718C492.244 2892.51 492.788 2892.45 493.345 2892.45H494.143V2707.35C494.143 2704.96 495.19 2702.81 496.849 2701.35ZM525.617 2701.35L502.137 2701.35L502.083 2701.35C498.797 2701.38 496.142 2704.05 496.142 2707.35V2892.45H531.613V2707.35C531.613 2704.03 528.929 2701.35 525.617 2701.35ZM479.185 2701.35L479.24 2701.35C482.526 2701.38 485.181 2704.05 485.181 2707.35V2892.62L449.711 2892.62V2707.35C449.711 2704.03 452.395 2701.35 455.707 2701.35L479.185 2701.35ZM447.712 2707.35V2892.62H440.747V2707.35C440.747 2704.96 439.7 2702.81 438.041 2701.35H450.419C448.759 2702.81 447.712 2704.96 447.712 2707.35ZM487.875 2894.62H310.124C311.678 2896.08 312.648 2898.15 312.648 2900.46L312.649 2931.12C314.112 2929.5 316.23 2928.48 318.587 2928.48H479.413C481.769 2928.48 483.888 2929.5 485.351 2931.12V2900.46C485.351 2898.15 486.322 2896.08 487.875 2894.62ZM432.753 2701.35H411.596C408.285 2701.35 405.6 2704.03 405.6 2707.35V2892.62H438.749V2707.35C438.749 2704.03 436.064 2701.35 432.753 2701.35ZM365.164 2701.35L386.321 2701.35C389.632 2701.35 392.317 2704.03 392.317 2707.35V2892.62L359.168 2892.62V2707.35C359.168 2704.05 361.823 2701.38 365.109 2701.35L365.164 2701.35ZM357.17 2707.35V2892.62H347.884V2707.35C347.884 2704.96 346.838 2702.81 345.178 2701.35H359.876C358.216 2702.81 357.17 2704.96 357.17 2707.35ZM298.745 2701.35H313.444C311.785 2702.81 310.738 2704.96 310.738 2707.35V2892.62H306.281C305.756 2892.51 305.212 2892.45 304.654 2892.45H301.451V2707.35C301.451 2704.96 300.405 2702.81 298.745 2701.35ZM345.886 2892.62H312.736V2707.35C312.736 2704.03 315.421 2701.35 318.732 2701.35H339.89C343.201 2701.35 345.886 2704.03 345.886 2707.35V2892.62ZM171.443 2861.51H135.605C132.293 2861.51 129.609 2864.2 129.609 2867.52V2892.45H171.443V2861.51ZM267.013 2701.35H254.635C256.295 2702.81 257.342 2704.96 257.342 2707.35V2892.45H264.307V2707.35C264.307 2704.96 265.354 2702.81 267.013 2701.35ZM293.512 2701.35C296.798 2701.38 299.453 2704.05 299.453 2707.35V2892.45H266.305V2707.35C266.305 2704.03 268.99 2701.35 272.301 2701.35L293.457 2701.35L293.512 2701.35ZM306.06 2894.62C308.693 2895.25 310.65 2897.62 310.65 2900.46V2935.52C310.612 2935.83 310.592 2936.16 310.592 2936.48V2950.09H220.13V2894.62H306.06ZM218.131 2894.62V2950.09H129.609V2894.45H171.443V2894.62H218.131ZM217.874 2892.45V2865.77C217.128 2863.31 214.841 2861.51 212.135 2861.51H173.441V2892.45H217.874ZM225.868 2701.35L249.348 2701.35C252.659 2701.35 255.343 2704.03 255.343 2707.35V2892.45H220.13V2867.52C220.13 2866.82 220.04 2866.14 219.873 2865.49V2707.35C219.873 2704.05 222.527 2701.38 225.814 2701.35L225.868 2701.35ZM217.874 2707.35C217.874 2704.96 218.921 2702.81 220.58 2701.35H179.437C176.126 2701.35 173.441 2704.03 173.441 2707.35V2859.51H212.135C214.387 2859.51 216.421 2860.44 217.874 2861.94V2707.35ZM312.649 3050L312.649 2935.65C313.055 2932.73 315.559 2930.48 318.587 2930.48H479.413C482.442 2930.48 484.946 2932.73 485.351 2935.65L485.351 3050H312.649ZM310.592 2952.15H87.5186V2952.1H2.99418C-0.317122 2952.1 -3.00146 2954.78 -3.00146 2958.1V3050H310.592V2952.15ZM487.407 3050V2952.15H710.481V2952.1H795.006C798.317 2952.1 801.001 2954.78 801.001 2958.1V3050H487.407ZM89.5171 2950.09H127.61V2894.45H95.5127C92.2014 2894.45 89.5171 2897.14 89.5171 2900.46V2950.09ZM708.482 2950.09V2900.46C708.482 2897.14 705.798 2894.45 702.487 2894.45H670.39V2950.09H708.482Z" fill="#DAA261"/>
</g>
</svg>
