<svg width="24" height="24" viewBox="0 0 24 24" fill="none" xmlns="http://www.w3.org/2000/svg">
<path d="M22 21.9998H21.2308C20.4147 21.9998 19.6321 21.6746 19.0551 21.0958C18.478 20.5169 18.1538 19.7317 18.1538 18.9131C18.1538 19.7317 17.8297 20.5169 17.2526 21.0958C16.6756 21.6746 15.893 21.9998 15.0769 21.9998C14.2609 21.9998 13.4782 21.6746 12.9012 21.0958C12.3242 20.5169 12 19.7317 12 18.9131C12 19.7317 11.6758 20.5169 11.0988 21.0958C10.5218 21.6746 9.73913 21.9998 8.92308 21.9998C8.10703 21.9998 7.3244 21.6746 6.74736 21.0958C6.17033 20.5169 5.84615 19.7317 5.84615 18.9131C5.84615 19.7317 5.52198 20.5169 4.94494 21.0958C4.36791 21.6746 3.58528 21.9998 2.76923 21.9998H2" stroke="#2E4C63" stroke-linecap="round" stroke-linejoin="round"/>
<path d="M16.6145 15.826C15.8222 14.8596 14.8263 14.0813 13.6984 13.5469C12.5706 13.0125 11.3388 12.7354 10.0914 12.7354C8.84412 12.7354 7.61229 13.0125 6.48443 13.5469C5.35658 14.0813 4.36071 14.8596 3.56836 15.826" stroke="#2E4C63" stroke-linecap="round" stroke-linejoin="round"/>
<path d="M11.2305 12.8173C11.3228 9.32927 12.3843 6.14991 14.692 5.00781" stroke="#2E4C63" stroke-linecap="round" stroke-linejoin="round"/>
<path d="M10.0918 2.07503C11.0891 1.87803 12.1237 2.07235 12.9824 2.61793C13.8411 3.16351 14.4584 4.01878 14.7072 5.00745" stroke="#2E4C63" stroke-linecap="round" stroke-linejoin="round"/>
<path d="M20.3222 5.57834C19.6141 4.81132 18.6512 4.33004 17.6144 4.22489C16.5776 4.11974 15.5382 4.39796 14.6914 5.00729" stroke="#2E4C63" stroke-linecap="round" stroke-linejoin="round"/>
<path d="M9.04688 6.6587C9.64972 5.76771 10.5433 5.11539 11.5738 4.81398C12.6043 4.51257 13.7073 4.58092 14.693 5.00729C15.6817 5.24987 16.5378 5.86845 17.0803 6.7324C17.6229 7.59635 17.8095 8.63802 17.6007 9.63742" stroke="#2E4C63" stroke-linecap="round" stroke-linejoin="round"/>
</svg>
