<svg width="40" height="40" viewBox="0 0 40 40" fill="none" xmlns="http://www.w3.org/2000/svg">
<rect width="40" height="40" rx="20" fill="#DAA261"/>
<path d="M27.0732 11.9167C25.1916 10.0417 22.6829 9 20.0348 9C14.5296 9 10.0697 13.4444 10.0697 18.9306C10.0697 20.6667 10.5575 22.4028 11.3937 23.8611L10 29L15.2962 27.6111C16.7596 28.375 18.3624 28.7917 20.0348 28.7917C25.5401 28.7917 30 24.3472 30 18.8611C29.9303 16.2917 28.9547 13.7917 27.0732 11.9167ZM24.8432 22.4722C24.6341 23.0278 23.6585 23.5833 23.1707 23.6528C22.7526 23.7222 22.1951 23.7222 21.6376 23.5833C21.2892 23.4444 20.8014 23.3056 20.2439 23.0278C17.7352 21.9861 16.1324 19.4861 15.993 19.2778C15.8537 19.1389 14.9477 17.9583 14.9477 16.7083C14.9477 15.4583 15.5749 14.9028 15.784 14.625C15.993 14.3472 16.2718 14.3472 16.4808 14.3472C16.6202 14.3472 16.8293 14.3472 16.9686 14.3472C17.108 14.3472 17.3171 14.2778 17.5261 14.7639C17.7352 15.25 18.223 16.5 18.2927 16.5694C18.3624 16.7083 18.3624 16.8472 18.2927 16.9861C18.223 17.125 18.1533 17.2639 18.0139 17.4028C17.8746 17.5417 17.7352 17.75 17.6655 17.8194C17.5261 17.9583 17.3868 18.0972 17.5261 18.3056C17.6655 18.5833 18.1533 19.3472 18.9199 20.0417C19.8955 20.875 20.662 21.1528 20.9408 21.2917C21.2195 21.4306 21.3589 21.3611 21.4983 21.2222C21.6376 21.0833 22.1254 20.5278 22.2648 20.25C22.4042 19.9722 22.6132 20.0417 22.8223 20.1111C23.0314 20.1806 24.2857 20.8056 24.4948 20.9444C24.7735 21.0833 24.9129 21.1528 24.9826 21.2222C25.0523 21.4306 25.0523 21.9167 24.8432 22.4722Z" fill="#F2F2F2"/>
</svg>
