<svg width="248" height="208" viewBox="0 0 248 208" fill="none" xmlns="http://www.w3.org/2000/svg">
<g clip-path="url(#clip0_4232_971)">
<path d="M0.750008 207C-12.0833 207 -23 204.75 -32 200.25C-41 195.583 -48.25 189.083 -53.75 180.75C-59.25 172.417 -63.3333 162.833 -66 152C-68.5 141.167 -69.75 129.5 -69.75 117C-69.75 104.333 -68.5 92.5 -66 81.5C-63.3333 70.5 -59.25 60.9167 -53.75 52.75C-48.0833 44.4167 -40.75 37.9167 -31.75 33.25C-22.75 28.4167 -11.8333 26 1 26C14.1667 26 25.25 28.5 34.25 33.5C43.4167 38.5 50.6667 45.25 56 53.75C61.5 62.25 65.4167 71.9167 67.75 82.75C70.25 93.5833 71.5 104.917 71.5 116.75C71.5 128.417 70.25 139.667 67.75 150.5C65.4167 161.333 61.5 171 56 179.5C50.5 188 43.1667 194.75 34 199.75C25 204.583 13.9167 207 0.750008 207ZM0.750008 178.5C9.25001 178.5 16.0833 176.5 21.25 172.5C26.5833 168.5 30.5833 163.417 33.25 157.25C35.9167 150.917 37.6667 144.167 38.5 137C39.5 129.833 40 123.083 40 116.75C40 110.417 39.5833 103.75 38.75 96.75C37.9167 89.5833 36.1667 82.8333 33.5 76.5C30.8333 70.1667 26.9167 65 21.75 61C16.5833 57 9.66667 55 1 55C-7.66667 55 -14.6667 57 -20 61C-25.1667 65 -29.0833 70.1667 -31.75 76.5C-34.4167 82.6667 -36.25 89.3333 -37.25 96.5C-38.0833 103.667 -38.5 110.417 -38.5 116.75C-38.5 123.083 -38.0833 129.833 -37.25 137C-36.4167 144 -34.75 150.667 -32.25 157C-29.5833 163.333 -25.6667 168.5 -20.5 172.5C-15.1667 176.5 -8.08333 178.5 0.750008 178.5ZM158.027 207C150.194 207 142.444 206.083 134.777 204.25C127.111 202.417 120.111 199.583 113.777 195.75C107.444 191.75 102.111 186.583 97.7773 180.25C93.6107 173.917 90.944 166.25 89.7773 157.25H120.777C122.277 162.417 124.944 166.5 128.777 169.5C132.777 172.5 137.361 174.75 142.527 176.25C147.694 177.583 152.944 178.25 158.277 178.25C162.111 178.25 165.944 177.917 169.777 177.25C173.611 176.583 177.194 175.333 180.527 173.5C183.861 171.667 186.527 169.083 188.527 165.75C190.527 162.417 191.527 158.083 191.527 152.75C191.527 147.917 190.611 143.917 188.777 140.75C187.111 137.583 184.694 135.167 181.527 133.5C178.527 131.667 175.027 130.417 171.027 129.75C167.194 128.917 163.111 128.5 158.777 128.5H139.277V101.75H152.027C156.861 101.75 161.277 101.25 165.277 100.25C169.277 99.25 172.777 97.8333 175.777 96C178.777 94 181.027 91.5 182.527 88.5C184.194 85.5 185.027 81.9167 185.027 77.75C185.027 71.75 183.694 67.0833 181.027 63.75C178.527 60.4167 175.111 58.0833 170.777 56.75C166.444 55.25 161.694 54.5 156.527 54.5C151.861 54.5 147.361 55.25 143.027 56.75C138.694 58.0833 134.944 60.1667 131.777 63C128.611 65.8333 126.611 69.4167 125.777 73.75H95.2773C96.2773 65.4167 98.694 58.25 102.527 52.25C106.361 46.25 111.111 41.3333 116.777 37.5C122.611 33.5 129.111 30.5833 136.277 28.75C143.444 26.9167 150.861 26 158.527 26C166.027 26 173.194 26.8333 180.027 28.5C187.027 30.1667 193.194 32.9167 198.527 36.75C203.861 40.4167 208.111 45.25 211.277 51.25C214.444 57.25 216.027 64.5833 216.027 73.25C216.027 78.75 215.111 83.9167 213.277 88.75C211.444 93.5833 208.777 97.8333 205.277 101.5C201.944 105.167 197.861 108.167 193.027 110.5C199.694 112.333 205.277 115.333 209.777 119.5C214.277 123.5 217.611 128.333 219.777 134C222.111 139.667 223.277 145.917 223.277 152.75C223.277 163.417 221.277 172.333 217.277 179.5C213.444 186.5 208.277 192 201.777 196C195.444 200 188.444 202.833 180.777 204.5C173.111 206.167 165.527 207 158.027 207Z" fill="#F2ECE9"/>
<mask id="path-2-outside-1_4232_971" maskUnits="userSpaceOnUse" x="-85" y="21" width="298" height="185" fill="black">
<rect fill="white" x="-85" y="21" width="298" height="185"/>
<path d="M-12.25 204C-25.0833 204 -36 201.75 -45 197.25C-54 192.583 -61.25 186.083 -66.75 177.75C-72.25 169.417 -76.3333 159.833 -79 149C-81.5 138.167 -82.75 126.5 -82.75 114C-82.75 101.333 -81.5 89.5 -79 78.5C-76.3333 67.5 -72.25 57.9167 -66.75 49.75C-61.0833 41.4167 -53.75 34.9167 -44.75 30.25C-35.75 25.4167 -24.8333 23 -12 23C1.16667 23 12.25 25.5 21.25 30.5C30.4167 35.5 37.6667 42.25 43 50.75C48.5 59.25 52.4167 68.9167 54.75 79.75C57.25 90.5833 58.5 101.917 58.5 113.75C58.5 125.417 57.25 136.667 54.75 147.5C52.4167 158.333 48.5 168 43 176.5C37.5 185 30.1667 191.75 21 196.75C12 201.583 0.916674 204 -12.25 204ZM-12.25 175.5C-3.74999 175.5 3.08334 173.5 8.25 169.5C13.5833 165.5 17.5833 160.417 20.25 154.25C22.9167 147.917 24.6667 141.167 25.5 134C26.5 126.833 27 120.083 27 113.75C27 107.417 26.5833 100.75 25.75 93.75C24.9167 86.5833 23.1667 79.8333 20.5 73.5C17.8333 67.1667 13.9167 62 8.75001 58C3.58334 54 -3.33333 52 -12 52C-20.6667 52 -27.6667 54 -33 58C-38.1667 62 -42.0833 67.1667 -44.75 73.5C-47.4167 79.6667 -49.25 86.3333 -50.25 93.5C-51.0833 100.667 -51.5 107.417 -51.5 113.75C-51.5 120.083 -51.0833 126.833 -50.25 134C-49.4167 141 -47.75 147.667 -45.25 154C-42.5833 160.333 -38.6667 165.5 -33.5 169.5C-28.1667 173.5 -21.0833 175.5 -12.25 175.5ZM145.027 204C137.194 204 129.444 203.083 121.777 201.25C114.111 199.417 107.111 196.583 100.777 192.75C94.444 188.75 89.1107 183.583 84.7773 177.25C80.6107 170.917 77.944 163.25 76.7773 154.25H107.777C109.277 159.417 111.944 163.5 115.777 166.5C119.777 169.5 124.361 171.75 129.527 173.25C134.694 174.583 139.944 175.25 145.277 175.25C149.111 175.25 152.944 174.917 156.777 174.25C160.611 173.583 164.194 172.333 167.527 170.5C170.861 168.667 173.527 166.083 175.527 162.75C177.527 159.417 178.527 155.083 178.527 149.75C178.527 144.917 177.611 140.917 175.777 137.75C174.111 134.583 171.694 132.167 168.527 130.5C165.527 128.667 162.027 127.417 158.027 126.75C154.194 125.917 150.111 125.5 145.777 125.5H126.277V98.75H139.027C143.861 98.75 148.277 98.25 152.277 97.25C156.277 96.25 159.777 94.8333 162.777 93C165.777 91 168.027 88.5 169.527 85.5C171.194 82.5 172.027 78.9167 172.027 74.75C172.027 68.75 170.694 64.0833 168.027 60.75C165.527 57.4167 162.111 55.0833 157.777 53.75C153.444 52.25 148.694 51.5 143.527 51.5C138.861 51.5 134.361 52.25 130.027 53.75C125.694 55.0833 121.944 57.1667 118.777 60C115.611 62.8333 113.611 66.4167 112.777 70.75H82.2773C83.2773 62.4167 85.694 55.25 89.5273 49.25C93.3607 43.25 98.1107 38.3333 103.777 34.5C109.611 30.5 116.111 27.5833 123.277 25.75C130.444 23.9167 137.861 23 145.527 23C153.027 23 160.194 23.8333 167.027 25.5C174.027 27.1667 180.194 29.9167 185.527 33.75C190.861 37.4167 195.111 42.25 198.277 48.25C201.444 54.25 203.027 61.5833 203.027 70.25C203.027 75.75 202.111 80.9167 200.277 85.75C198.444 90.5833 195.777 94.8333 192.277 98.5C188.944 102.167 184.861 105.167 180.027 107.5C186.694 109.333 192.277 112.333 196.777 116.5C201.277 120.5 204.611 125.333 206.777 131C209.111 136.667 210.277 142.917 210.277 149.75C210.277 160.417 208.277 169.333 204.277 176.5C200.444 183.5 195.277 189 188.777 193C182.444 197 175.444 199.833 167.777 201.5C160.111 203.167 152.527 204 145.027 204Z"/>
</mask>
<path d="M-45 197.25L-45.9206 199.026L-45.9076 199.032L-45.8944 199.039L-45 197.25ZM-66.75 177.75L-68.4192 178.852L-66.75 177.75ZM-79 149L-80.9488 149.45L-80.9455 149.464L-80.942 149.478L-79 149ZM-79 78.5L-80.9437 78.0288L-80.9471 78.0428L-80.9503 78.0567L-79 78.5ZM-66.75 49.75L-68.4039 48.6254L-68.4089 48.6328L-66.75 49.75ZM-44.75 30.25L-43.8294 32.0255L-43.8165 32.0188L-43.8037 32.012L-44.75 30.25ZM21.25 30.5L20.2787 32.2483L20.2855 32.2521L20.2923 32.2558L21.25 30.5ZM43 50.75L41.3059 51.813L41.3133 51.8248L41.3209 51.8365L43 50.75ZM54.75 79.75L52.7948 80.1711L52.7979 80.1854L52.8012 80.1997L54.75 79.75ZM54.75 147.5L52.8012 147.05L52.7979 147.065L52.7948 147.079L54.75 147.5ZM43 176.5L44.6792 177.587L43 176.5ZM21 196.75L21.9463 198.512L21.9577 198.506L21 196.75ZM8.25001 169.5L7.05 167.9L7.03776 167.909L7.02566 167.919L8.25001 169.5ZM20.25 154.25L22.0857 155.044L22.0895 155.035L22.0933 155.026L20.25 154.25ZM25.5 134L23.5192 133.724L23.516 133.746L23.5134 133.769L25.5 134ZM25.75 93.75L23.7634 93.981L23.764 93.9864L25.75 93.75ZM20.5 73.5L18.6567 74.2761L20.5 73.5ZM8.75001 58L9.97435 56.4185L8.75001 58ZM-33 58L-34.2 56.4L-34.2122 56.4092L-34.2243 56.4185L-33 58ZM-44.75 73.5L-42.9143 74.2938L-42.9105 74.285L-42.9067 74.2761L-44.75 73.5ZM-50.25 93.5L-52.2308 93.2236L-52.234 93.2463L-52.2366 93.269L-50.25 93.5ZM-50.25 134L-52.2366 134.231L-52.236 134.236L-50.25 134ZM-45.25 154L-47.1103 154.734L-47.102 154.755L-47.0933 154.776L-45.25 154ZM-33.5 169.5L-34.7243 171.081L-34.7122 171.091L-34.7 171.1L-33.5 169.5ZM-12.25 202C-24.8558 202 -35.449 199.789 -44.1056 195.461L-45.8944 199.039C-36.551 203.711 -25.3108 206 -12.25 206V202ZM-44.0794 195.474C-52.7813 190.962 -59.7717 184.692 -65.0808 176.648L-68.4192 178.852C-62.7283 187.474 -55.2187 194.204 -45.9206 199.026L-44.0794 195.474ZM-65.0808 176.648C-70.441 168.527 -74.4396 159.159 -77.058 148.522L-80.942 149.478C-78.2271 160.507 -74.059 170.307 -68.4192 178.852L-65.0808 176.648ZM-77.0512 148.55C-79.5133 137.881 -80.75 126.367 -80.75 114H-84.75C-84.75 126.633 -83.4867 138.452 -80.9488 149.45L-77.0512 148.55ZM-80.75 114C-80.75 101.465 -79.5129 89.7813 -77.0497 78.9432L-80.9503 78.0567C-83.4871 89.2187 -84.75 101.202 -84.75 114H-80.75ZM-77.0563 78.9712C-74.4373 68.1677 -70.4404 58.8101 -65.0911 50.8672L-68.4089 48.6328C-74.0596 57.0233 -78.2294 66.8323 -80.9437 78.0288L-77.0563 78.9712ZM-65.0961 50.8746C-59.6173 42.8174 -52.5366 36.5404 -43.8294 32.0255L-45.6706 28.4745C-54.9634 33.293 -62.5494 40.0159 -68.4039 48.6254L-65.0961 50.8746ZM-43.8037 32.012C-35.1599 27.3699 -24.5861 25 -12 25V21C-25.0806 21 -36.3401 23.4634 -45.6963 28.488L-43.8037 32.012ZM-12 25C0.919426 25 11.6475 27.4532 20.2787 32.2483L22.2213 28.7517C12.8525 23.5468 1.41391 21 -12 21V25ZM20.2923 32.2558C29.1709 37.0987 36.1622 43.6152 41.3059 51.813L44.6941 49.687C39.1712 40.8848 31.6625 33.9013 22.2077 28.7442L20.2923 32.2558ZM41.3209 51.8365C46.6774 60.1148 50.5077 69.552 52.7948 80.1711L56.7052 79.3289C54.3257 68.2813 50.3226 58.3851 44.6792 49.6635L41.3209 51.8365ZM52.8012 80.1997C55.2651 90.8764 56.5 102.058 56.5 113.75H60.5C60.5 101.775 59.2349 90.2902 56.6988 79.3003L52.8012 80.1997ZM56.5 113.75C56.5 125.273 55.2655 136.372 52.8012 147.05L56.6988 147.95C59.2345 136.962 60.5 125.561 60.5 113.75H56.5ZM52.7948 147.079C50.5077 157.698 46.6774 167.135 41.3209 175.413L44.6792 177.587C50.3226 168.865 54.3257 158.969 56.7052 147.921L52.7948 147.079ZM41.3209 175.413C36.0077 183.625 28.926 190.149 20.0423 194.994L21.9577 198.506C31.4073 193.351 38.9924 186.375 44.6792 177.587L41.3209 175.413ZM20.0537 194.988C11.4167 199.626 0.679192 202 -12.25 202V206C1.15416 206 12.5833 203.54 21.9463 198.512L20.0537 194.988ZM-12.25 177.5C-3.44085 177.5 3.86421 175.425 9.47435 171.081L7.02566 167.919C2.30247 171.575 -4.05914 173.5 -12.25 173.5V177.5ZM9.45 171.1C15.064 166.889 19.282 161.527 22.0857 155.044L18.4143 153.456C15.8846 159.306 12.1026 164.111 7.05 167.9L9.45 171.1ZM22.0933 155.026C24.8368 148.51 26.6326 141.576 27.4866 134.231L23.5134 133.769C22.7008 140.757 20.9966 147.323 18.4067 153.474L22.0933 155.026ZM27.4808 134.276C28.4918 127.031 29 120.188 29 113.75H25C25 119.979 24.5082 126.636 23.5192 133.724L27.4808 134.276ZM29 113.75C29 107.329 28.5776 100.583 27.736 93.5136L23.764 93.9864C24.5891 100.917 25 107.504 25 113.75H29ZM27.7366 93.519C26.8826 86.1741 25.0868 79.2397 22.3433 72.7239L18.6567 74.2761C21.2465 80.4269 22.9508 86.9925 23.7634 93.981L27.7366 93.519ZM22.3433 72.7239C19.5502 66.0903 15.4274 60.6403 9.97435 56.4185L7.52566 59.5814C12.4059 63.3597 16.1165 68.243 18.6567 74.2761L22.3433 72.7239ZM9.97435 56.4185C4.35795 52.0704 -3.03458 50 -12 50V54C-3.63208 54 2.80872 55.9296 7.52566 59.5814L9.97435 56.4185ZM-12 50C-20.9693 50 -28.4292 52.0719 -34.2 56.4L-31.8 59.6C-26.9042 55.9281 -20.364 54 -12 54V50ZM-34.2243 56.4185C-39.6774 60.6403 -43.8002 66.0903 -46.5933 72.7239L-42.9067 74.2761C-40.3665 68.243 -36.6559 63.3597 -31.7757 59.5814L-34.2243 56.4185ZM-46.5857 72.7062C-49.3291 79.0502 -51.2078 85.8924 -52.2308 93.2236L-48.2692 93.7764C-47.2922 86.7743 -45.5043 80.2831 -42.9143 74.2938L-46.5857 72.7062ZM-52.2366 93.269C-53.0777 100.502 -53.5 107.33 -53.5 113.75H-49.5C-49.5 107.504 -49.089 100.831 -48.2634 93.731L-52.2366 93.269ZM-53.5 113.75C-53.5 120.17 -53.0777 126.998 -52.2366 134.231L-48.2634 133.769C-49.089 126.669 -49.5 119.996 -49.5 113.75H-53.5ZM-52.236 134.236C-51.383 141.401 -49.6756 148.236 -47.1103 154.734L-43.3897 153.266C-45.8244 147.098 -47.4503 140.599 -48.264 133.764L-52.236 134.236ZM-47.0933 154.776C-44.3002 161.41 -40.1774 166.86 -34.7243 171.081L-32.2757 167.919C-37.1559 164.14 -40.8665 159.257 -43.4067 153.224L-47.0933 154.776ZM-34.7 171.1C-28.9231 175.433 -21.3761 177.5 -12.25 177.5V173.5C-20.7906 173.5 -27.4102 171.567 -32.3 167.9L-34.7 171.1ZM100.777 192.75L99.7094 194.441L99.7254 194.451L99.7417 194.461L100.777 192.75ZM84.7773 177.25L83.1065 178.349L83.1165 178.364L83.1267 178.379L84.7773 177.25ZM76.7773 154.25V152.25H74.5014L74.7939 154.507L76.7773 154.25ZM107.777 154.25L109.698 153.692L109.279 152.25H107.777V154.25ZM115.777 166.5L114.545 168.075L114.561 168.088L114.577 168.1L115.777 166.5ZM129.527 173.25L128.97 175.171L128.999 175.179L129.028 175.187L129.527 173.25ZM156.777 174.25L156.435 172.28L156.777 174.25ZM167.527 170.5L166.564 168.748L167.527 170.5ZM175.777 137.75L174.008 138.681L174.026 138.717L174.047 138.752L175.777 137.75ZM168.527 130.5L167.484 132.207L167.539 132.24L167.596 132.27L168.527 130.5ZM158.027 126.75L157.602 128.704L157.65 128.715L157.699 128.723L158.027 126.75ZM126.277 125.5H124.277V127.5H126.277V125.5ZM126.277 98.75V96.75H124.277V98.75H126.277ZM152.277 97.25L151.792 95.3097L152.277 97.25ZM162.777 93L163.82 94.7066L163.854 94.686L163.887 94.6641L162.777 93ZM169.527 85.5L167.779 84.5287L167.758 84.5667L167.738 84.6056L169.527 85.5ZM168.027 60.75L166.427 61.95L166.446 61.975L166.466 61.9994L168.027 60.75ZM157.777 53.75L157.123 55.64L157.156 55.6513L157.189 55.6615L157.777 53.75ZM130.027 53.75L130.616 55.6615L130.649 55.6513L130.682 55.64L130.027 53.75ZM118.777 60L117.444 58.5095L118.777 60ZM112.777 70.75V72.75H114.429L114.741 71.1277L112.777 70.75ZM82.2773 70.75L80.2916 70.5117L80.023 72.75H82.2773V70.75ZM89.5273 49.25L91.2127 50.3268V50.3268L89.5273 49.25ZM103.777 34.5L104.898 36.1566L104.908 36.1495L103.777 34.5ZM123.277 25.75L122.782 23.8124L123.277 25.75ZM167.027 25.5L166.553 27.4431L166.564 27.4456L167.027 25.5ZM185.527 33.75L184.36 35.374L184.377 35.3862L184.394 35.3981L185.527 33.75ZM198.277 48.25L196.509 49.1835L198.277 48.25ZM200.277 85.75L202.147 86.4593L200.277 85.75ZM192.277 98.5L190.831 97.119L190.814 97.1366L190.797 97.1546L192.277 98.5ZM180.027 107.5L179.158 105.699L174.359 108.015L179.497 109.428L180.027 107.5ZM196.777 116.5L195.419 117.968L195.433 117.981L195.449 117.995L196.777 116.5ZM206.777 131L204.909 131.714L204.918 131.738L204.928 131.761L206.777 131ZM204.277 176.5L202.531 175.525L202.527 175.532L202.523 175.539L204.277 176.5ZM188.777 193L187.729 191.297L187.719 191.303L187.709 191.309L188.777 193ZM167.777 201.5L167.352 199.546L167.777 201.5ZM145.027 202C137.352 202 129.758 201.102 122.242 199.305L121.312 203.195C129.13 205.065 137.036 206 145.027 206V202ZM122.242 199.305C114.764 197.516 107.958 194.759 101.813 191.039L99.7417 194.461C106.263 198.408 113.457 201.317 121.312 203.195L122.242 199.305ZM101.845 191.059C95.7482 187.208 90.6112 182.235 86.428 176.121L83.1267 178.379C87.6101 184.932 93.1399 190.292 99.7094 194.441L101.845 191.059ZM86.4482 176.151C82.4779 170.116 79.896 162.751 78.7607 153.993L74.7939 154.507C75.992 163.749 78.7435 171.717 83.1065 178.349L86.4482 176.151ZM76.7773 156.25H107.777V152.25H76.7773V156.25ZM105.857 154.808C107.461 160.333 110.346 164.789 114.545 168.075L117.01 164.925C113.542 162.211 111.094 158.501 109.698 153.692L105.857 154.808ZM114.577 168.1C118.785 171.255 123.589 173.609 128.97 175.171L130.085 171.329C125.132 169.891 120.77 167.745 116.977 164.9L114.577 168.1ZM129.028 175.187C134.357 176.562 139.775 177.25 145.277 177.25V173.25C140.113 173.25 135.031 172.605 130.027 171.313L129.028 175.187ZM145.277 177.25C149.227 177.25 153.175 176.906 157.12 176.22L156.435 172.28C152.713 172.927 148.994 173.25 145.277 173.25V177.25ZM157.12 176.22C161.166 175.517 164.96 174.195 168.491 172.252L166.564 168.748C163.428 170.472 160.055 171.65 156.435 172.28L157.12 176.22ZM168.491 172.252C172.141 170.245 175.065 167.409 177.242 163.779L173.812 161.721C171.99 164.758 169.58 167.089 166.564 168.748L168.491 172.252ZM177.242 163.779C179.486 160.04 180.527 155.316 180.527 149.75H176.527C176.527 154.85 175.569 158.793 173.812 161.721L177.242 163.779ZM180.527 149.75C180.527 144.674 179.566 140.302 177.508 136.748L174.047 138.752C175.656 141.532 176.527 145.159 176.527 149.75H180.527ZM177.547 136.819C175.692 133.294 172.983 130.585 169.459 128.73L167.596 132.27C170.405 133.748 172.529 135.873 174.008 138.681L177.547 136.819ZM169.57 128.793C166.321 126.808 162.571 125.48 158.356 124.777L157.699 128.723C161.484 129.354 164.734 130.526 167.484 132.207L169.57 128.793ZM158.452 124.796C154.466 123.929 150.239 123.5 145.777 123.5V127.5C149.983 127.5 153.922 127.904 157.602 128.704L158.452 124.796ZM145.777 123.5H126.277V127.5H145.777V123.5ZM128.277 125.5V98.75H124.277V125.5H128.277ZM126.277 100.75H139.027V96.75H126.277V100.75ZM139.027 100.75C143.997 100.75 148.579 100.236 152.762 99.1903L151.792 95.3097C147.975 96.2639 143.724 96.75 139.027 96.75V100.75ZM152.762 99.1903C156.926 98.1494 160.62 96.662 163.82 94.7066L161.734 91.2934C158.934 93.0046 155.629 94.3506 151.792 95.3097L152.762 99.1903ZM163.887 94.6641C167.154 92.486 169.649 89.729 171.316 86.3944L167.738 84.6056C166.406 87.271 164.401 89.514 161.668 91.3359L163.887 94.6641ZM171.276 86.4713C173.139 83.1168 174.027 79.1842 174.027 74.75H170.027C170.027 78.6491 169.249 81.8832 167.779 84.5287L171.276 86.4713ZM174.027 74.75C174.027 68.4767 172.635 63.3079 169.589 59.5006L166.466 61.9994C168.753 64.8588 170.027 69.0233 170.027 74.75H174.027ZM169.627 59.55C166.851 55.8484 163.065 53.2845 158.366 51.8384L157.189 55.6615C161.156 56.8821 164.204 58.9849 166.427 61.95L169.627 59.55ZM158.432 51.86C153.863 50.2786 148.889 49.5 143.527 49.5V53.5C148.499 53.5 153.025 54.2214 157.123 55.64L158.432 51.86ZM143.527 49.5C138.642 49.5 133.921 50.2859 129.373 51.86L130.682 55.64C134.801 54.2141 139.079 53.5 143.527 53.5V49.5ZM129.439 51.8384C124.849 53.2509 120.84 55.4709 117.444 58.5095L120.111 61.4905C123.048 58.8624 126.539 56.9158 130.616 55.6615L129.439 51.8384ZM117.444 58.5095C113.938 61.6466 111.726 65.6268 110.813 70.3723L114.741 71.1277C115.495 67.2065 117.284 64.02 120.111 61.4905L117.444 58.5095ZM112.777 68.75H82.2773V72.75H112.777V68.75ZM84.2631 70.9883C85.2336 62.9005 87.5677 56.032 91.2127 50.3268L87.8419 48.1732C83.8203 54.468 81.3211 61.9328 80.2916 70.5117L84.2631 70.9883ZM91.2127 50.3268C94.9054 44.547 99.4663 39.8309 104.898 36.1566L102.657 32.8434C96.7551 36.8357 91.816 41.953 87.8419 48.1732L91.2127 50.3268ZM104.908 36.1495C110.54 32.288 116.823 29.4655 123.773 27.6876L122.782 23.8124C115.398 25.7011 108.682 28.712 102.646 32.8505L104.908 36.1495ZM123.773 27.6876C130.772 25.8972 138.022 25 145.527 25V21C137.7 21 130.116 21.9361 122.782 23.8124L123.773 27.6876ZM145.527 25C152.878 25 159.885 25.8166 166.553 27.443L167.501 23.557C160.503 21.85 153.176 21 145.527 21V25ZM166.564 27.4456C173.335 29.0577 179.258 31.7066 184.36 35.374L186.695 32.126C181.13 28.1267 174.72 25.2756 167.491 23.5544L166.564 27.4456ZM184.394 35.3981C189.448 38.8726 193.485 43.4554 196.509 49.1835L200.046 47.3165C196.736 41.0446 192.273 35.9608 186.66 32.1019L184.394 35.3981ZM196.509 49.1835C199.487 54.827 201.027 61.8208 201.027 70.25H205.027C205.027 61.3459 203.401 53.673 200.046 47.3165L196.509 49.1835ZM201.027 70.25C201.027 75.5233 200.149 80.4481 198.407 85.0407L202.147 86.4593C204.072 81.3852 205.027 75.9767 205.027 70.25H201.027ZM198.407 85.0407C196.667 89.6292 194.142 93.6496 190.831 97.119L193.724 99.881C197.412 96.017 200.221 91.5375 202.147 86.4593L198.407 85.0407ZM190.797 97.1546C187.65 100.616 183.78 103.468 179.158 105.699L180.897 109.301C185.942 106.866 190.238 103.717 193.757 99.8453L190.797 97.1546ZM179.497 109.428C185.894 111.188 191.182 114.045 195.419 117.968L198.136 115.032C193.372 110.622 187.494 107.479 180.558 105.572L179.497 109.428ZM195.449 117.995C199.707 121.78 202.856 126.345 204.909 131.714L208.645 130.286C206.365 124.322 202.848 119.22 198.106 115.005L195.449 117.995ZM204.928 131.761C207.151 137.16 208.277 143.148 208.277 149.75H212.277C212.277 142.685 211.07 136.173 208.627 130.238L204.928 131.761ZM208.277 149.75C208.277 160.175 206.322 168.733 202.531 175.525L206.024 177.475C210.233 169.934 212.277 160.658 212.277 149.75H208.277ZM202.523 175.539C198.849 182.249 193.92 187.487 187.729 191.297L189.826 194.703C196.635 190.513 202.039 184.751 206.032 177.461L202.523 175.539ZM187.709 191.309C181.583 195.179 174.802 197.926 167.352 199.546L168.202 203.454C176.086 201.74 183.305 198.821 189.845 194.691L187.709 191.309ZM167.352 199.546C159.819 201.183 152.378 202 145.027 202V206C152.677 206 160.402 205.15 168.202 203.454L167.352 199.546Z" fill="#DAA261" mask="url(#path-2-outside-1_4232_971)"/>
</g>
<defs>
<clipPath id="clip0_4232_971">
<rect width="248" height="208" fill="white"/>
</clipPath>
</defs>
</svg>
