<svg width="248" height="208" viewBox="0 0 248 208" fill="none" xmlns="http://www.w3.org/2000/svg">
<g clip-path="url(#clip0_4232_934)">
<path d="M0.750008 207C-12.0833 207 -23 204.75 -32 200.25C-41 195.583 -48.25 189.083 -53.75 180.75C-59.25 172.417 -63.3333 162.833 -66 152C-68.5 141.167 -69.75 129.5 -69.75 117C-69.75 104.333 -68.5 92.5 -66 81.5C-63.3333 70.5 -59.25 60.9167 -53.75 52.75C-48.0833 44.4167 -40.75 37.9167 -31.75 33.25C-22.75 28.4167 -11.8333 26 1 26C14.1667 26 25.25 28.5 34.25 33.5C43.4167 38.5 50.6667 45.25 56 53.75C61.5 62.25 65.4167 71.9167 67.75 82.75C70.25 93.5833 71.5 104.917 71.5 116.75C71.5 128.417 70.25 139.667 67.75 150.5C65.4167 161.333 61.5 171 56 179.5C50.5 188 43.1667 194.75 34 199.75C25 204.583 13.9167 207 0.750008 207ZM0.750008 178.5C9.25001 178.5 16.0833 176.5 21.25 172.5C26.5833 168.5 30.5833 163.417 33.25 157.25C35.9167 150.917 37.6667 144.167 38.5 137C39.5 129.833 40 123.083 40 116.75C40 110.417 39.5833 103.75 38.75 96.75C37.9167 89.5833 36.1667 82.8333 33.5 76.5C30.8333 70.1667 26.9167 65 21.75 61C16.5833 57 9.66667 55 1 55C-7.66667 55 -14.6667 57 -20 61C-25.1667 65 -29.0833 70.1667 -31.75 76.5C-34.4167 82.6667 -36.25 89.3333 -37.25 96.5C-38.0833 103.667 -38.5 110.417 -38.5 116.75C-38.5 123.083 -38.0833 129.833 -37.25 137C-36.4167 144 -34.75 150.667 -32.25 157C-29.5833 163.333 -25.6667 168.5 -20.5 172.5C-15.1667 176.5 -8.08333 178.5 0.750008 178.5ZM160.027 207C152.194 207 144.777 206.083 137.777 204.25C130.777 202.25 124.444 199.25 118.777 195.25C113.111 191.25 108.361 186.167 104.527 180C100.861 173.667 98.3607 166.25 97.0273 157.75H127.777C129.111 161.417 131.277 164.833 134.277 168C137.444 171.167 141.194 173.667 145.527 175.5C150.027 177.333 154.861 178.25 160.027 178.25C167.027 178.25 173.027 177.083 178.027 174.75C183.027 172.25 186.944 168.75 189.777 164.25C192.611 159.583 194.027 154 194.027 147.5C194.027 137.833 191.027 130.25 185.027 124.75C179.194 119.25 171.194 116.5 161.027 116.5C155.027 116.5 149.444 117.583 144.277 119.75C139.111 121.75 134.277 124.583 129.777 128.25H102.027L106.777 28.25H219.527V56.75H135.527L132.527 99C137.527 95.5 143.277 92.9167 149.777 91.25C156.277 89.4167 163.361 88.5833 171.027 88.75C182.361 88.9167 192.111 91.4167 200.277 96.25C208.611 100.917 214.944 107.417 219.277 115.75C223.611 124.083 225.777 133.917 225.777 145.25C225.777 158.417 222.861 169.583 217.027 178.75C211.361 187.917 203.527 194.917 193.527 199.75C183.694 204.583 172.527 207 160.027 207Z" fill="#F2ECE9"/>
<mask id="path-2-outside-1_4232_934" maskUnits="userSpaceOnUse" x="-85" y="21" width="300" height="185" fill="black">
<rect fill="white" x="-85" y="21" width="300" height="185"/>
<path d="M-12.25 204C-25.0833 204 -36 201.75 -45 197.25C-54 192.583 -61.25 186.083 -66.75 177.75C-72.25 169.417 -76.3333 159.833 -79 149C-81.5 138.167 -82.75 126.5 -82.75 114C-82.75 101.333 -81.5 89.5 -79 78.5C-76.3333 67.5 -72.25 57.9167 -66.75 49.75C-61.0833 41.4167 -53.75 34.9167 -44.75 30.25C-35.75 25.4167 -24.8333 23 -12 23C1.16667 23 12.25 25.5 21.25 30.5C30.4167 35.5 37.6667 42.25 43 50.75C48.5 59.25 52.4167 68.9167 54.75 79.75C57.25 90.5833 58.5 101.917 58.5 113.75C58.5 125.417 57.25 136.667 54.75 147.5C52.4167 158.333 48.5 168 43 176.5C37.5 185 30.1667 191.75 21 196.75C12 201.583 0.916674 204 -12.25 204ZM-12.25 175.5C-3.74999 175.5 3.08334 173.5 8.25 169.5C13.5833 165.5 17.5833 160.417 20.25 154.25C22.9167 147.917 24.6667 141.167 25.5 134C26.5 126.833 27 120.083 27 113.75C27 107.417 26.5833 100.75 25.75 93.75C24.9167 86.5833 23.1667 79.8333 20.5 73.5C17.8333 67.1667 13.9167 62 8.75001 58C3.58334 54 -3.33333 52 -12 52C-20.6667 52 -27.6667 54 -33 58C-38.1667 62 -42.0833 67.1667 -44.75 73.5C-47.4167 79.6667 -49.25 86.3333 -50.25 93.5C-51.0833 100.667 -51.5 107.417 -51.5 113.75C-51.5 120.083 -51.0833 126.833 -50.25 134C-49.4167 141 -47.75 147.667 -45.25 154C-42.5833 160.333 -38.6667 165.5 -33.5 169.5C-28.1667 173.5 -21.0833 175.5 -12.25 175.5ZM147.027 204C139.194 204 131.777 203.083 124.777 201.25C117.777 199.25 111.444 196.25 105.777 192.25C100.111 188.25 95.3607 183.167 91.5273 177C87.8607 170.667 85.3607 163.25 84.0273 154.75H114.777C116.111 158.417 118.277 161.833 121.277 165C124.444 168.167 128.194 170.667 132.527 172.5C137.027 174.333 141.861 175.25 147.027 175.25C154.027 175.25 160.027 174.083 165.027 171.75C170.027 169.25 173.944 165.75 176.777 161.25C179.611 156.583 181.027 151 181.027 144.5C181.027 134.833 178.027 127.25 172.027 121.75C166.194 116.25 158.194 113.5 148.027 113.5C142.027 113.5 136.444 114.583 131.277 116.75C126.111 118.75 121.277 121.583 116.777 125.25H89.0273L93.7773 25.25H206.527V53.75H122.527L119.527 96C124.527 92.5 130.277 89.9167 136.777 88.25C143.277 86.4167 150.361 85.5833 158.027 85.75C169.361 85.9167 179.111 88.4167 187.277 93.25C195.611 97.9167 201.944 104.417 206.277 112.75C210.611 121.083 212.777 130.917 212.777 142.25C212.777 155.417 209.861 166.583 204.027 175.75C198.361 184.917 190.527 191.917 180.527 196.75C170.694 201.583 159.527 204 147.027 204Z"/>
</mask>
<path d="M-45 197.25L-45.9206 199.026L-45.9076 199.032L-45.8944 199.039L-45 197.25ZM-66.75 177.75L-68.4192 178.852L-66.75 177.75ZM-79 149L-80.9488 149.45L-80.9455 149.464L-80.942 149.478L-79 149ZM-79 78.5L-80.9437 78.0288L-80.9471 78.0428L-80.9503 78.0567L-79 78.5ZM-66.75 49.75L-68.4039 48.6254L-68.4089 48.6328L-66.75 49.75ZM-44.75 30.25L-43.8294 32.0255L-43.8165 32.0188L-43.8037 32.012L-44.75 30.25ZM21.25 30.5L20.2787 32.2483L20.2855 32.2521L20.2923 32.2558L21.25 30.5ZM43 50.75L41.3059 51.813L41.3133 51.8248L41.3209 51.8365L43 50.75ZM54.75 79.75L52.7948 80.1711L52.7979 80.1854L52.8012 80.1997L54.75 79.75ZM54.75 147.5L52.8012 147.05L52.7979 147.065L52.7948 147.079L54.75 147.5ZM43 176.5L44.6792 177.587L43 176.5ZM21 196.75L21.9463 198.512L21.9577 198.506L21 196.75ZM8.25001 169.5L7.05 167.9L7.03776 167.909L7.02566 167.919L8.25001 169.5ZM20.25 154.25L22.0857 155.044L22.0895 155.035L22.0933 155.026L20.25 154.25ZM25.5 134L23.5192 133.724L23.516 133.746L23.5134 133.769L25.5 134ZM25.75 93.75L23.7634 93.981L23.764 93.9864L25.75 93.75ZM20.5 73.5L18.6567 74.2761L20.5 73.5ZM8.75001 58L9.97435 56.4185L8.75001 58ZM-33 58L-34.2 56.4L-34.2122 56.4092L-34.2243 56.4185L-33 58ZM-44.75 73.5L-42.9143 74.2938L-42.9105 74.285L-42.9067 74.2761L-44.75 73.5ZM-50.25 93.5L-52.2308 93.2236L-52.234 93.2463L-52.2366 93.269L-50.25 93.5ZM-50.25 134L-52.2366 134.231L-52.236 134.236L-50.25 134ZM-45.25 154L-47.1103 154.734L-47.102 154.755L-47.0933 154.776L-45.25 154ZM-33.5 169.5L-34.7243 171.081L-34.7122 171.091L-34.7 171.1L-33.5 169.5ZM-12.25 202C-24.8558 202 -35.449 199.789 -44.1056 195.461L-45.8944 199.039C-36.551 203.711 -25.3108 206 -12.25 206V202ZM-44.0794 195.474C-52.7813 190.962 -59.7717 184.692 -65.0808 176.648L-68.4192 178.852C-62.7283 187.474 -55.2187 194.204 -45.9206 199.026L-44.0794 195.474ZM-65.0808 176.648C-70.441 168.527 -74.4396 159.159 -77.058 148.522L-80.942 149.478C-78.2271 160.507 -74.059 170.307 -68.4192 178.852L-65.0808 176.648ZM-77.0512 148.55C-79.5133 137.881 -80.75 126.367 -80.75 114H-84.75C-84.75 126.633 -83.4867 138.452 -80.9488 149.45L-77.0512 148.55ZM-80.75 114C-80.75 101.465 -79.5129 89.7813 -77.0497 78.9432L-80.9503 78.0567C-83.4871 89.2187 -84.75 101.202 -84.75 114H-80.75ZM-77.0563 78.9712C-74.4373 68.1677 -70.4404 58.8101 -65.0911 50.8672L-68.4089 48.6328C-74.0596 57.0233 -78.2294 66.8323 -80.9437 78.0288L-77.0563 78.9712ZM-65.0961 50.8746C-59.6173 42.8174 -52.5366 36.5404 -43.8294 32.0255L-45.6706 28.4745C-54.9634 33.293 -62.5494 40.0159 -68.4039 48.6254L-65.0961 50.8746ZM-43.8037 32.012C-35.1599 27.3699 -24.5861 25 -12 25V21C-25.0806 21 -36.3401 23.4634 -45.6963 28.488L-43.8037 32.012ZM-12 25C0.919426 25 11.6475 27.4532 20.2787 32.2483L22.2213 28.7517C12.8525 23.5468 1.41391 21 -12 21V25ZM20.2923 32.2558C29.1709 37.0987 36.1622 43.6152 41.3059 51.813L44.6941 49.687C39.1712 40.8848 31.6625 33.9013 22.2077 28.7442L20.2923 32.2558ZM41.3209 51.8365C46.6774 60.1148 50.5077 69.552 52.7948 80.1711L56.7052 79.3289C54.3257 68.2813 50.3226 58.3851 44.6792 49.6635L41.3209 51.8365ZM52.8012 80.1997C55.2651 90.8764 56.5 102.058 56.5 113.75H60.5C60.5 101.775 59.2349 90.2902 56.6988 79.3003L52.8012 80.1997ZM56.5 113.75C56.5 125.273 55.2655 136.372 52.8012 147.05L56.6988 147.95C59.2345 136.962 60.5 125.561 60.5 113.75H56.5ZM52.7948 147.079C50.5077 157.698 46.6774 167.135 41.3209 175.413L44.6792 177.587C50.3226 168.865 54.3257 158.969 56.7052 147.921L52.7948 147.079ZM41.3209 175.413C36.0077 183.625 28.926 190.149 20.0423 194.994L21.9577 198.506C31.4073 193.351 38.9924 186.375 44.6792 177.587L41.3209 175.413ZM20.0537 194.988C11.4167 199.626 0.679192 202 -12.25 202V206C1.15416 206 12.5833 203.54 21.9463 198.512L20.0537 194.988ZM-12.25 177.5C-3.44085 177.5 3.86421 175.425 9.47435 171.081L7.02566 167.919C2.30247 171.575 -4.05914 173.5 -12.25 173.5V177.5ZM9.45 171.1C15.064 166.889 19.282 161.527 22.0857 155.044L18.4143 153.456C15.8846 159.306 12.1026 164.111 7.05 167.9L9.45 171.1ZM22.0933 155.026C24.8368 148.51 26.6326 141.576 27.4866 134.231L23.5134 133.769C22.7008 140.757 20.9966 147.323 18.4067 153.474L22.0933 155.026ZM27.4808 134.276C28.4918 127.031 29 120.188 29 113.75H25C25 119.979 24.5082 126.636 23.5192 133.724L27.4808 134.276ZM29 113.75C29 107.329 28.5776 100.583 27.736 93.5136L23.764 93.9864C24.5891 100.917 25 107.504 25 113.75H29ZM27.7366 93.519C26.8826 86.1741 25.0868 79.2397 22.3433 72.7239L18.6567 74.2761C21.2465 80.4269 22.9508 86.9925 23.7634 93.981L27.7366 93.519ZM22.3433 72.7239C19.5502 66.0903 15.4274 60.6403 9.97435 56.4185L7.52566 59.5814C12.4059 63.3597 16.1165 68.243 18.6567 74.2761L22.3433 72.7239ZM9.97435 56.4185C4.35795 52.0704 -3.03458 50 -12 50V54C-3.63208 54 2.80872 55.9296 7.52566 59.5814L9.97435 56.4185ZM-12 50C-20.9693 50 -28.4292 52.0719 -34.2 56.4L-31.8 59.6C-26.9042 55.9281 -20.364 54 -12 54V50ZM-34.2243 56.4185C-39.6774 60.6403 -43.8002 66.0903 -46.5933 72.7239L-42.9067 74.2761C-40.3665 68.243 -36.6559 63.3597 -31.7757 59.5814L-34.2243 56.4185ZM-46.5857 72.7062C-49.3291 79.0502 -51.2078 85.8924 -52.2308 93.2236L-48.2692 93.7764C-47.2922 86.7743 -45.5043 80.2831 -42.9143 74.2938L-46.5857 72.7062ZM-52.2366 93.269C-53.0777 100.502 -53.5 107.33 -53.5 113.75H-49.5C-49.5 107.504 -49.089 100.831 -48.2634 93.731L-52.2366 93.269ZM-53.5 113.75C-53.5 120.17 -53.0777 126.998 -52.2366 134.231L-48.2634 133.769C-49.089 126.669 -49.5 119.996 -49.5 113.75H-53.5ZM-52.236 134.236C-51.383 141.401 -49.6756 148.236 -47.1103 154.734L-43.3897 153.266C-45.8244 147.098 -47.4503 140.599 -48.264 133.764L-52.236 134.236ZM-47.0933 154.776C-44.3002 161.41 -40.1774 166.86 -34.7243 171.081L-32.2757 167.919C-37.1559 164.14 -40.8665 159.257 -43.4067 153.224L-47.0933 154.776ZM-34.7 171.1C-28.9231 175.433 -21.3761 177.5 -12.25 177.5V173.5C-20.7906 173.5 -27.4102 171.567 -32.3 167.9L-34.7 171.1ZM124.777 201.25L124.228 203.173L124.249 203.179L124.271 203.185L124.777 201.25ZM105.777 192.25L104.624 193.884L105.777 192.25ZM91.5273 177L89.7965 178.002L89.8122 178.029L89.8288 178.056L91.5273 177ZM84.0273 154.75V152.75H81.6892L82.0515 155.06L84.0273 154.75ZM114.777 154.75L116.657 154.067L116.178 152.75H114.777V154.75ZM121.277 165L119.825 166.375L119.844 166.395L119.863 166.414L121.277 165ZM132.527 172.5L131.748 174.342L131.76 174.347L131.773 174.352L132.527 172.5ZM165.027 171.75L165.873 173.562L165.898 173.551L165.922 173.539L165.027 171.75ZM176.777 161.25L178.47 162.316L178.478 162.302L178.487 162.288L176.777 161.25ZM172.027 121.75L170.655 123.205L170.666 123.215L170.676 123.224L172.027 121.75ZM131.277 116.75L131.999 118.615L132.025 118.605L132.051 118.594L131.277 116.75ZM116.777 125.25V127.25H117.489L118.041 126.8L116.777 125.25ZM89.0273 125.25L87.0296 125.155L86.9301 127.25H89.0273V125.25ZM93.7773 25.25V23.25H91.8701L91.7796 25.1551L93.7773 25.25ZM206.527 25.25H208.527V23.25H206.527V25.25ZM206.527 53.75V55.75H208.527V53.75H206.527ZM122.527 53.75V51.75H120.664L120.532 53.6083L122.527 53.75ZM119.527 96L117.532 95.8583L117.235 100.046L120.674 97.6385L119.527 96ZM136.777 88.25L137.274 90.1873L137.297 90.1814L137.32 90.1749L136.777 88.25ZM158.027 85.75L157.984 87.7496L157.998 87.7498L158.027 85.75ZM187.277 93.25L186.259 94.9711L186.279 94.9833L186.3 94.995L187.277 93.25ZM206.277 112.75L208.052 111.827L206.277 112.75ZM204.027 175.75L202.34 174.676L202.333 174.687L202.326 174.698L204.027 175.75ZM180.527 196.75L179.657 194.949L179.645 194.955L180.527 196.75ZM147.027 202C139.351 202 132.106 201.102 125.284 199.315L124.271 203.185C131.449 205.065 139.037 206 147.027 206V202ZM125.327 199.327C118.532 197.386 112.405 194.48 106.931 190.616L104.624 193.884C110.483 198.02 117.023 201.114 124.228 203.173L125.327 199.327ZM106.931 190.616C101.493 186.778 96.9247 181.894 93.2259 175.944L89.8288 178.056C93.7966 184.439 98.7285 189.722 104.624 193.884L106.931 190.616ZM93.2582 175.998C89.7349 169.912 87.3049 162.738 86.0032 154.44L82.0515 155.06C83.4165 163.762 85.9865 171.421 89.7965 178.002L93.2582 175.998ZM84.0273 156.75H114.777V152.75H84.0273V156.75ZM112.898 155.433C114.335 159.386 116.659 163.033 119.825 166.375L122.729 163.625C119.895 160.633 117.886 157.447 116.657 154.067L112.898 155.433ZM119.863 166.414C123.221 169.772 127.19 172.413 131.748 174.342L133.307 170.658C129.198 168.92 125.667 166.561 122.692 163.586L119.863 166.414ZM131.773 174.352C136.527 176.289 141.619 177.25 147.027 177.25V173.25C142.103 173.25 137.527 172.377 133.282 170.648L131.773 174.352ZM147.027 177.25C154.244 177.25 160.547 176.048 165.873 173.562L164.182 169.938C159.508 172.119 153.811 173.25 147.027 173.25V177.25ZM165.922 173.539C171.231 170.884 175.431 167.141 178.47 162.316L175.085 160.184C172.457 164.359 168.823 167.616 164.133 169.961L165.922 173.539ZM178.487 162.288C181.544 157.253 183.027 151.296 183.027 144.5H179.027C179.027 150.704 177.678 155.913 175.068 160.212L178.487 162.288ZM183.027 144.5C183.027 134.387 179.87 126.226 173.379 120.276L170.676 123.224C176.185 128.274 179.027 135.279 179.027 144.5H183.027ZM173.399 120.295C167.103 114.358 158.562 111.5 148.027 111.5V115.5C157.826 115.5 165.285 118.142 170.655 123.205L173.399 120.295ZM148.027 111.5C141.781 111.5 135.932 112.629 130.504 114.906L132.051 118.594C136.956 116.538 142.274 115.5 148.027 115.5V111.5ZM130.555 114.885C125.184 116.964 120.169 119.907 115.514 123.7L118.041 126.8C122.386 123.26 127.038 120.536 131.999 118.615L130.555 114.885ZM116.777 123.25H89.0273V127.25H116.777V123.25ZM91.0251 125.345L95.7751 25.3449L91.7796 25.1551L87.0296 125.155L91.0251 125.345ZM93.7773 27.25H206.527V23.25H93.7773V27.25ZM204.527 25.25V53.75H208.527V25.25H204.527ZM206.527 51.75H122.527V55.75H206.527V51.75ZM120.532 53.6083L117.532 95.8583L121.522 96.1416L124.522 53.8916L120.532 53.6083ZM120.674 97.6385C125.459 94.2894 130.984 91.8002 137.274 90.1873L136.281 86.3127C129.571 88.0331 123.596 90.7106 118.38 94.3615L120.674 97.6385ZM137.32 90.1749C143.606 88.4021 150.489 87.5866 157.984 87.7495L158.071 83.7505C150.232 83.5801 142.949 84.4313 136.234 86.3251L137.32 90.1749ZM157.998 87.7498C169.051 87.9123 178.445 90.3469 186.259 94.9711L188.296 91.5288C179.776 86.4864 169.671 83.921 158.057 83.7502L157.998 87.7498ZM186.3 94.995C194.299 99.4746 200.353 105.691 204.503 113.673L208.052 111.827C203.535 103.142 196.922 96.3588 188.255 91.505L186.3 94.995ZM204.503 113.673C208.66 121.668 210.777 131.172 210.777 142.25H214.777C214.777 130.661 212.561 120.499 208.052 111.827L204.503 113.673ZM210.777 142.25C210.777 155.117 207.93 165.893 202.34 174.676L205.715 176.824C211.792 167.274 214.777 155.716 214.777 142.25H210.777ZM202.326 174.698C196.866 183.531 189.326 190.276 179.657 194.949L181.398 198.551C191.729 193.557 199.855 186.302 205.729 176.802L202.326 174.698ZM179.645 194.955C170.123 199.636 159.265 202 147.027 202V206C159.79 206 171.265 203.531 181.41 198.545L179.645 194.955Z" fill="#DAA261" mask="url(#path-2-outside-1_4232_934)"/>
</g>
<defs>
<clipPath id="clip0_4232_934">
<rect width="248" height="208" fill="white"/>
</clipPath>
</defs>
</svg>
